%TF.GenerationSoftware,KiCad,Pcbnew,5.1.10-88a1d61d58~90~ubuntu20.04.1*%
%TF.CreationDate,2021-09-15T12:25:38+00:00*%
%TF.ProjectId,WifiServoBridge,57696669-5365-4727-966f-427269646765,rev?*%
%TF.SameCoordinates,Original*%
%TF.FileFunction,Paste,Top*%
%TF.FilePolarity,Positive*%
%FSLAX46Y46*%
G04 Gerber Fmt 4.6, Leading zero omitted, Abs format (unit mm)*
G04 Created by KiCad (PCBNEW 5.1.10-88a1d61d58~90~ubuntu20.04.1) date 2021-09-15 12:25:38*
%MOMM*%
%LPD*%
G01*
G04 APERTURE LIST*
G04 APERTURE END LIST*
%TO.C,D2*%
G36*
G01*
X405285000Y84276250D02*
X405285000Y83363750D01*
G75*
G02*
X405041250Y83120000I-243750J0D01*
G01*
X404553750Y83120000D01*
G75*
G02*
X404310000Y83363750I0J243750D01*
G01*
X404310000Y84276250D01*
G75*
G02*
X404553750Y84520000I243750J0D01*
G01*
X405041250Y84520000D01*
G75*
G02*
X405285000Y84276250I0J-243750D01*
G01*
G37*
G36*
G01*
X403410000Y84276250D02*
X403410000Y83363750D01*
G75*
G02*
X403166250Y83120000I-243750J0D01*
G01*
X402678750Y83120000D01*
G75*
G02*
X402435000Y83363750I0J243750D01*
G01*
X402435000Y84276250D01*
G75*
G02*
X402678750Y84520000I243750J0D01*
G01*
X403166250Y84520000D01*
G75*
G02*
X403410000Y84276250I0J-243750D01*
G01*
G37*
%TD*%
%TO.C,D3*%
G36*
G01*
X403410000Y81736250D02*
X403410000Y80823750D01*
G75*
G02*
X403166250Y80580000I-243750J0D01*
G01*
X402678750Y80580000D01*
G75*
G02*
X402435000Y80823750I0J243750D01*
G01*
X402435000Y81736250D01*
G75*
G02*
X402678750Y81980000I243750J0D01*
G01*
X403166250Y81980000D01*
G75*
G02*
X403410000Y81736250I0J-243750D01*
G01*
G37*
G36*
G01*
X405285000Y81736250D02*
X405285000Y80823750D01*
G75*
G02*
X405041250Y80580000I-243750J0D01*
G01*
X404553750Y80580000D01*
G75*
G02*
X404310000Y80823750I0J243750D01*
G01*
X404310000Y81736250D01*
G75*
G02*
X404553750Y81980000I243750J0D01*
G01*
X405041250Y81980000D01*
G75*
G02*
X405285000Y81736250I0J-243750D01*
G01*
G37*
%TD*%
%TO.C,R2*%
G36*
G01*
X400205000Y84270002D02*
X400205000Y83369998D01*
G75*
G02*
X399955002Y83120000I-249998J0D01*
G01*
X399429998Y83120000D01*
G75*
G02*
X399180000Y83369998I0J249998D01*
G01*
X399180000Y84270002D01*
G75*
G02*
X399429998Y84520000I249998J0D01*
G01*
X399955002Y84520000D01*
G75*
G02*
X400205000Y84270002I0J-249998D01*
G01*
G37*
G36*
G01*
X398380000Y84270002D02*
X398380000Y83369998D01*
G75*
G02*
X398130002Y83120000I-249998J0D01*
G01*
X397604998Y83120000D01*
G75*
G02*
X397355000Y83369998I0J249998D01*
G01*
X397355000Y84270002D01*
G75*
G02*
X397604998Y84520000I249998J0D01*
G01*
X398130002Y84520000D01*
G75*
G02*
X398380000Y84270002I0J-249998D01*
G01*
G37*
%TD*%
%TO.C,R3*%
G36*
G01*
X398380000Y81730002D02*
X398380000Y80829998D01*
G75*
G02*
X398130002Y80580000I-249998J0D01*
G01*
X397604998Y80580000D01*
G75*
G02*
X397355000Y80829998I0J249998D01*
G01*
X397355000Y81730002D01*
G75*
G02*
X397604998Y81980000I249998J0D01*
G01*
X398130002Y81980000D01*
G75*
G02*
X398380000Y81730002I0J-249998D01*
G01*
G37*
G36*
G01*
X400205000Y81730002D02*
X400205000Y80829998D01*
G75*
G02*
X399955002Y80580000I-249998J0D01*
G01*
X399429998Y80580000D01*
G75*
G02*
X399180000Y80829998I0J249998D01*
G01*
X399180000Y81730002D01*
G75*
G02*
X399429998Y81980000I249998J0D01*
G01*
X399955002Y81980000D01*
G75*
G02*
X400205000Y81730002I0J-249998D01*
G01*
G37*
%TD*%
%TO.C,D1*%
G36*
G01*
X405285000Y86816250D02*
X405285000Y85903750D01*
G75*
G02*
X405041250Y85660000I-243750J0D01*
G01*
X404553750Y85660000D01*
G75*
G02*
X404310000Y85903750I0J243750D01*
G01*
X404310000Y86816250D01*
G75*
G02*
X404553750Y87060000I243750J0D01*
G01*
X405041250Y87060000D01*
G75*
G02*
X405285000Y86816250I0J-243750D01*
G01*
G37*
G36*
G01*
X403410000Y86816250D02*
X403410000Y85903750D01*
G75*
G02*
X403166250Y85660000I-243750J0D01*
G01*
X402678750Y85660000D01*
G75*
G02*
X402435000Y85903750I0J243750D01*
G01*
X402435000Y86816250D01*
G75*
G02*
X402678750Y87060000I243750J0D01*
G01*
X403166250Y87060000D01*
G75*
G02*
X403410000Y86816250I0J-243750D01*
G01*
G37*
%TD*%
%TO.C,R1*%
G36*
G01*
X400205000Y86810002D02*
X400205000Y85909998D01*
G75*
G02*
X399955002Y85660000I-249998J0D01*
G01*
X399429998Y85660000D01*
G75*
G02*
X399180000Y85909998I0J249998D01*
G01*
X399180000Y86810002D01*
G75*
G02*
X399429998Y87060000I249998J0D01*
G01*
X399955002Y87060000D01*
G75*
G02*
X400205000Y86810002I0J-249998D01*
G01*
G37*
G36*
G01*
X398380000Y86810002D02*
X398380000Y85909998D01*
G75*
G02*
X398130002Y85660000I-249998J0D01*
G01*
X397604998Y85660000D01*
G75*
G02*
X397355000Y85909998I0J249998D01*
G01*
X397355000Y86810002D01*
G75*
G02*
X397604998Y87060000I249998J0D01*
G01*
X398130002Y87060000D01*
G75*
G02*
X398380000Y86810002I0J-249998D01*
G01*
G37*
%TD*%
M02*
