%TF.GenerationSoftware,KiCad,Pcbnew,5.1.10-88a1d61d58~90~ubuntu20.04.1*%
%TF.CreationDate,2021-09-15T12:25:38+00:00*%
%TF.ProjectId,WifiServoBridge,57696669-5365-4727-966f-427269646765,rev?*%
%TF.SameCoordinates,Original*%
%TF.FileFunction,Copper,L1,Top*%
%TF.FilePolarity,Positive*%
%FSLAX46Y46*%
G04 Gerber Fmt 4.6, Leading zero omitted, Abs format (unit mm)*
G04 Created by KiCad (PCBNEW 5.1.10-88a1d61d58~90~ubuntu20.04.1) date 2021-09-15 12:25:38*
%MOMM*%
%LPD*%
G01*
G04 APERTURE LIST*
%TA.AperFunction,ComponentPad*%
%ADD10O,1.700000X1.700000*%
%TD*%
%TA.AperFunction,ComponentPad*%
%ADD11R,1.700000X1.700000*%
%TD*%
%TA.AperFunction,ComponentPad*%
%ADD12C,1.700000*%
%TD*%
%TA.AperFunction,ViaPad*%
%ADD13C,0.800000*%
%TD*%
%TA.AperFunction,Conductor*%
%ADD14C,1.000000*%
%TD*%
%TA.AperFunction,Conductor*%
%ADD15C,0.254000*%
%TD*%
%TA.AperFunction,Conductor*%
%ADD16C,0.100000*%
%TD*%
G04 APERTURE END LIST*
D10*
%TO.P,J4,19*%
%TO.N,DEBUG_LED*%
X392430000Y83820000D03*
%TO.P,J4,18*%
%TO.N,MCU_GPIO7*%
X392430000Y86360000D03*
%TO.P,J4,17*%
%TO.N,MCU_GPIO8*%
X392430000Y88900000D03*
%TO.P,J4,16*%
%TO.N,MCU_GPIO15*%
X392430000Y91440000D03*
%TO.P,J4,15*%
%TO.N,MCU_GPIO2*%
X392430000Y93980000D03*
%TO.P,J4,14*%
%TO.N,MCU_GPIO0*%
X392430000Y96520000D03*
%TO.P,J4,13*%
%TO.N,MCU_GPIO4*%
X392430000Y99060000D03*
%TO.P,J4,12*%
%TO.N,MCU_GPIO16*%
X392430000Y101600000D03*
%TO.P,J4,11*%
%TO.N,MCU_GPIO17*%
X392430000Y104140000D03*
%TO.P,J4,10*%
%TO.N,MCU_GPIO5*%
X392430000Y106680000D03*
%TO.P,J4,9*%
%TO.N,MCU_GPIO18*%
X392430000Y109220000D03*
%TO.P,J4,8*%
%TO.N,MCU_GPIO19*%
X392430000Y111760000D03*
%TO.P,J4,7*%
%TO.N,MCU_GND*%
X392430000Y114300000D03*
%TO.P,J4,6*%
%TO.N,MCU_GPIO21*%
X392430000Y116840000D03*
%TO.P,J4,5*%
%TO.N,MCU_GPIO3*%
X392430000Y119380000D03*
%TO.P,J4,4*%
%TO.N,MCU_GPIO1*%
X392430000Y121920000D03*
%TO.P,J4,3*%
%TO.N,MCU_GPIO22*%
X392430000Y124460000D03*
%TO.P,J4,2*%
%TO.N,MCU_GPIO23*%
X392430000Y127000000D03*
D11*
%TO.P,J4,1*%
%TO.N,MCU_GND*%
X392430000Y129540000D03*
%TD*%
D10*
%TO.P,J3,19*%
%TO.N,MCU_+5V*%
X351790000Y83820000D03*
%TO.P,J3,18*%
%TO.N,MCU_CMD*%
X351790000Y86360000D03*
%TO.P,J3,17*%
%TO.N,MCU_GPIO10*%
X351790000Y88900000D03*
%TO.P,J3,16*%
%TO.N,MCU_GPIO9*%
X351790000Y91440000D03*
%TO.P,J3,15*%
%TO.N,MCU_GPIO13*%
X351790000Y93980000D03*
%TO.P,J3,14*%
%TO.N,MCU_GND*%
X351790000Y96520000D03*
%TO.P,J3,13*%
%TO.N,MCU_GPIO12*%
X351790000Y99060000D03*
%TO.P,J3,12*%
%TO.N,MCU_GPIO14*%
X351790000Y101600000D03*
%TO.P,J3,11*%
%TO.N,MCU_GPIO27*%
X351790000Y104140000D03*
%TO.P,J3,10*%
%TO.N,MCU_GPIO26*%
X351790000Y106680000D03*
%TO.P,J3,9*%
%TO.N,MCU_GPIO25*%
X351790000Y109220000D03*
%TO.P,J3,8*%
%TO.N,MCU_GPIO33*%
X351790000Y111760000D03*
%TO.P,J3,7*%
%TO.N,MCU_GPIO32*%
X351790000Y114300000D03*
%TO.P,J3,6*%
%TO.N,MCU_GPIO35*%
X351790000Y116840000D03*
%TO.P,J3,5*%
%TO.N,MCU_GPIO34*%
X351790000Y119380000D03*
%TO.P,J3,4*%
%TO.N,MCU_SN*%
X351790000Y121920000D03*
%TO.P,J3,3*%
%TO.N,MCU_SP*%
X351790000Y124460000D03*
%TO.P,J3,2*%
%TO.N,MCU_EN*%
X351790000Y127000000D03*
D11*
%TO.P,J3,1*%
%TO.N,MCU_+3V3*%
X351790000Y129540000D03*
%TD*%
%TO.P,J1,2*%
%TO.N,MCU_GND*%
X410210000Y124460000D03*
D12*
%TO.P,J1,1*%
%TO.N,SERVO_VCC*%
X407670000Y124460000D03*
%TD*%
%TO.P,J2,1*%
%TO.N,MCU_+5V*%
X402590000Y124460000D03*
D11*
%TO.P,J2,2*%
%TO.N,MCU_GND*%
X405130000Y124460000D03*
%TD*%
D12*
%TO.P,J5,1*%
%TO.N,MCU_GPIO5*%
X402590000Y104140000D03*
%TO.P,J5,2*%
%TO.N,SERVO_VCC*%
X405130000Y104140000D03*
D11*
%TO.P,J5,3*%
%TO.N,MCU_GND*%
X407670000Y104140000D03*
%TD*%
%TO.P,J6,3*%
%TO.N,MCU_GND*%
X407670000Y101600000D03*
D12*
%TO.P,J6,2*%
%TO.N,SERVO_VCC*%
X405130000Y101600000D03*
%TO.P,J6,1*%
%TO.N,MCU_GPIO17*%
X402590000Y101600000D03*
%TD*%
%TO.P,J7,1*%
%TO.N,MCU_GPIO16*%
X402590000Y99060000D03*
%TO.P,J7,2*%
%TO.N,SERVO_VCC*%
X405130000Y99060000D03*
D11*
%TO.P,J7,3*%
%TO.N,MCU_GND*%
X407670000Y99060000D03*
%TD*%
%TO.P,J8,3*%
%TO.N,MCU_GND*%
X407670000Y96520000D03*
D12*
%TO.P,J8,2*%
%TO.N,SERVO_VCC*%
X405130000Y96520000D03*
%TO.P,J8,1*%
%TO.N,MCU_GPIO4*%
X402590000Y96520000D03*
%TD*%
%TO.P,J9,1*%
%TO.N,MCU_GPIO2*%
X402590000Y93980000D03*
%TO.P,J9,2*%
%TO.N,SERVO_VCC*%
X405130000Y93980000D03*
D11*
%TO.P,J9,3*%
%TO.N,MCU_GND*%
X407670000Y93980000D03*
%TD*%
%TO.P,J10,3*%
%TO.N,MCU_GND*%
X407670000Y91440000D03*
D12*
%TO.P,J10,2*%
%TO.N,SERVO_VCC*%
X405130000Y91440000D03*
%TO.P,J10,1*%
%TO.N,MCU_GPIO15*%
X402590000Y91440000D03*
%TD*%
%TO.P,U1,2*%
%TO.N,MCU_+3V3*%
X359410000Y129540000D03*
%TO.P,U1,4*%
%TO.N,MCU_EN*%
X359410000Y127000000D03*
%TO.P,U1,5*%
%TO.N,MCU_SP*%
X359410000Y124460000D03*
%TO.P,U1,6*%
%TO.N,MCU_SN*%
X359410000Y121920000D03*
%TO.P,U1,35*%
%TO.N,MCU_GPIO34*%
X359410000Y119380000D03*
%TO.P,U1,36*%
%TO.N,MCU_GPIO35*%
X359410000Y116840000D03*
%TO.P,U1,33*%
%TO.N,MCU_GPIO32*%
X359410000Y114300000D03*
%TO.P,U1,34*%
%TO.N,MCU_GPIO33*%
X359410000Y111760000D03*
%TO.P,U1,30*%
%TO.N,MCU_GPIO25*%
X359410000Y109220000D03*
%TO.P,U1,31*%
%TO.N,MCU_GPIO26*%
X359410000Y106680000D03*
%TO.P,U1,32*%
%TO.N,MCU_GPIO27*%
X359410000Y104140000D03*
%TO.P,U1,21*%
%TO.N,MCU_GPIO14*%
X359410000Y101600000D03*
%TO.P,U1,19*%
%TO.N,MCU_GPIO12*%
X359410000Y99060000D03*
D11*
%TO.P,U1,1*%
%TO.N,MCU_GND*%
X359410000Y96520000D03*
D12*
%TO.P,U1,20*%
%TO.N,MCU_GPIO13*%
X359410000Y93980000D03*
%TO.P,U1,17*%
%TO.N,MCU_GPIO9*%
X359410000Y91440000D03*
%TO.P,U1,18*%
%TO.N,MCU_GPIO10*%
X359410000Y88900000D03*
%TO.P,U1,7*%
%TO.N,MCU_CMD*%
X359410000Y86360000D03*
%TO.P,U1,3*%
%TO.N,MCU_+5V*%
X359410000Y83820000D03*
D11*
%TO.P,U1,1*%
%TO.N,MCU_GND*%
X384810000Y129540000D03*
D12*
%TO.P,U1,29*%
%TO.N,MCU_GPIO23*%
X384810000Y127000000D03*
%TO.P,U1,28*%
%TO.N,MCU_GPIO22*%
X384810000Y124460000D03*
%TO.P,U1,9*%
%TO.N,MCU_GPIO1*%
X384810000Y121920000D03*
%TO.P,U1,11*%
%TO.N,MCU_GPIO3*%
X384810000Y119380000D03*
%TO.P,U1,27*%
%TO.N,MCU_GPIO21*%
X384810000Y116840000D03*
D11*
%TO.P,U1,1*%
%TO.N,MCU_GND*%
X384810000Y114300000D03*
D12*
%TO.P,U1,26*%
%TO.N,MCU_GPIO19*%
X384810000Y111760000D03*
%TO.P,U1,25*%
%TO.N,MCU_GPIO18*%
X384810000Y109220000D03*
%TO.P,U1,13*%
%TO.N,MCU_GPIO5*%
X384810000Y106680000D03*
%TO.P,U1,24*%
%TO.N,MCU_GPIO17*%
X384810000Y104140000D03*
%TO.P,U1,23*%
%TO.N,MCU_GPIO16*%
X384810000Y101600000D03*
%TO.P,U1,12*%
%TO.N,MCU_GPIO4*%
X384810000Y99060000D03*
%TO.P,U1,8*%
%TO.N,MCU_GPIO0*%
X384810000Y96520000D03*
%TO.P,U1,10*%
%TO.N,MCU_GPIO2*%
X384810000Y93980000D03*
%TO.P,U1,22*%
%TO.N,MCU_GPIO15*%
X384810000Y91440000D03*
%TO.P,U1,16*%
%TO.N,MCU_GPIO8*%
X384810000Y88900000D03*
%TO.P,U1,15*%
%TO.N,MCU_GPIO7*%
X384810000Y86360000D03*
%TO.P,U1,14*%
%TO.N,DEBUG_LED*%
X384810000Y83820000D03*
%TD*%
%TO.P,D2,1*%
%TO.N,MCU_GND*%
%TA.AperFunction,SMDPad,CuDef*%
G36*
G01*
X405285000Y84276250D02*
X405285000Y83363750D01*
G75*
G02*
X405041250Y83120000I-243750J0D01*
G01*
X404553750Y83120000D01*
G75*
G02*
X404310000Y83363750I0J243750D01*
G01*
X404310000Y84276250D01*
G75*
G02*
X404553750Y84520000I243750J0D01*
G01*
X405041250Y84520000D01*
G75*
G02*
X405285000Y84276250I0J-243750D01*
G01*
G37*
%TD.AperFunction*%
%TO.P,D2,2*%
%TO.N,Net-(D2-Pad2)*%
%TA.AperFunction,SMDPad,CuDef*%
G36*
G01*
X403410000Y84276250D02*
X403410000Y83363750D01*
G75*
G02*
X403166250Y83120000I-243750J0D01*
G01*
X402678750Y83120000D01*
G75*
G02*
X402435000Y83363750I0J243750D01*
G01*
X402435000Y84276250D01*
G75*
G02*
X402678750Y84520000I243750J0D01*
G01*
X403166250Y84520000D01*
G75*
G02*
X403410000Y84276250I0J-243750D01*
G01*
G37*
%TD.AperFunction*%
%TD*%
%TO.P,D3,2*%
%TO.N,Net-(D3-Pad2)*%
%TA.AperFunction,SMDPad,CuDef*%
G36*
G01*
X403410000Y81736250D02*
X403410000Y80823750D01*
G75*
G02*
X403166250Y80580000I-243750J0D01*
G01*
X402678750Y80580000D01*
G75*
G02*
X402435000Y80823750I0J243750D01*
G01*
X402435000Y81736250D01*
G75*
G02*
X402678750Y81980000I243750J0D01*
G01*
X403166250Y81980000D01*
G75*
G02*
X403410000Y81736250I0J-243750D01*
G01*
G37*
%TD.AperFunction*%
%TO.P,D3,1*%
%TO.N,MCU_GND*%
%TA.AperFunction,SMDPad,CuDef*%
G36*
G01*
X405285000Y81736250D02*
X405285000Y80823750D01*
G75*
G02*
X405041250Y80580000I-243750J0D01*
G01*
X404553750Y80580000D01*
G75*
G02*
X404310000Y80823750I0J243750D01*
G01*
X404310000Y81736250D01*
G75*
G02*
X404553750Y81980000I243750J0D01*
G01*
X405041250Y81980000D01*
G75*
G02*
X405285000Y81736250I0J-243750D01*
G01*
G37*
%TD.AperFunction*%
%TD*%
%TO.P,R2,1*%
%TO.N,Net-(D2-Pad2)*%
%TA.AperFunction,SMDPad,CuDef*%
G36*
G01*
X400205000Y84270002D02*
X400205000Y83369998D01*
G75*
G02*
X399955002Y83120000I-249998J0D01*
G01*
X399429998Y83120000D01*
G75*
G02*
X399180000Y83369998I0J249998D01*
G01*
X399180000Y84270002D01*
G75*
G02*
X399429998Y84520000I249998J0D01*
G01*
X399955002Y84520000D01*
G75*
G02*
X400205000Y84270002I0J-249998D01*
G01*
G37*
%TD.AperFunction*%
%TO.P,R2,2*%
%TO.N,MCU_+3V3*%
%TA.AperFunction,SMDPad,CuDef*%
G36*
G01*
X398380000Y84270002D02*
X398380000Y83369998D01*
G75*
G02*
X398130002Y83120000I-249998J0D01*
G01*
X397604998Y83120000D01*
G75*
G02*
X397355000Y83369998I0J249998D01*
G01*
X397355000Y84270002D01*
G75*
G02*
X397604998Y84520000I249998J0D01*
G01*
X398130002Y84520000D01*
G75*
G02*
X398380000Y84270002I0J-249998D01*
G01*
G37*
%TD.AperFunction*%
%TD*%
%TO.P,R3,2*%
%TO.N,DEBUG_LED*%
%TA.AperFunction,SMDPad,CuDef*%
G36*
G01*
X398380000Y81730002D02*
X398380000Y80829998D01*
G75*
G02*
X398130002Y80580000I-249998J0D01*
G01*
X397604998Y80580000D01*
G75*
G02*
X397355000Y80829998I0J249998D01*
G01*
X397355000Y81730002D01*
G75*
G02*
X397604998Y81980000I249998J0D01*
G01*
X398130002Y81980000D01*
G75*
G02*
X398380000Y81730002I0J-249998D01*
G01*
G37*
%TD.AperFunction*%
%TO.P,R3,1*%
%TO.N,Net-(D3-Pad2)*%
%TA.AperFunction,SMDPad,CuDef*%
G36*
G01*
X400205000Y81730002D02*
X400205000Y80829998D01*
G75*
G02*
X399955002Y80580000I-249998J0D01*
G01*
X399429998Y80580000D01*
G75*
G02*
X399180000Y80829998I0J249998D01*
G01*
X399180000Y81730002D01*
G75*
G02*
X399429998Y81980000I249998J0D01*
G01*
X399955002Y81980000D01*
G75*
G02*
X400205000Y81730002I0J-249998D01*
G01*
G37*
%TD.AperFunction*%
%TD*%
%TO.P,D1,1*%
%TO.N,MCU_GND*%
%TA.AperFunction,SMDPad,CuDef*%
G36*
G01*
X405285000Y86816250D02*
X405285000Y85903750D01*
G75*
G02*
X405041250Y85660000I-243750J0D01*
G01*
X404553750Y85660000D01*
G75*
G02*
X404310000Y85903750I0J243750D01*
G01*
X404310000Y86816250D01*
G75*
G02*
X404553750Y87060000I243750J0D01*
G01*
X405041250Y87060000D01*
G75*
G02*
X405285000Y86816250I0J-243750D01*
G01*
G37*
%TD.AperFunction*%
%TO.P,D1,2*%
%TO.N,Net-(D1-Pad2)*%
%TA.AperFunction,SMDPad,CuDef*%
G36*
G01*
X403410000Y86816250D02*
X403410000Y85903750D01*
G75*
G02*
X403166250Y85660000I-243750J0D01*
G01*
X402678750Y85660000D01*
G75*
G02*
X402435000Y85903750I0J243750D01*
G01*
X402435000Y86816250D01*
G75*
G02*
X402678750Y87060000I243750J0D01*
G01*
X403166250Y87060000D01*
G75*
G02*
X403410000Y86816250I0J-243750D01*
G01*
G37*
%TD.AperFunction*%
%TD*%
%TO.P,R1,1*%
%TO.N,Net-(D1-Pad2)*%
%TA.AperFunction,SMDPad,CuDef*%
G36*
G01*
X400205000Y86810002D02*
X400205000Y85909998D01*
G75*
G02*
X399955002Y85660000I-249998J0D01*
G01*
X399429998Y85660000D01*
G75*
G02*
X399180000Y85909998I0J249998D01*
G01*
X399180000Y86810002D01*
G75*
G02*
X399429998Y87060000I249998J0D01*
G01*
X399955002Y87060000D01*
G75*
G02*
X400205000Y86810002I0J-249998D01*
G01*
G37*
%TD.AperFunction*%
%TO.P,R1,2*%
%TO.N,SERVO_VCC*%
%TA.AperFunction,SMDPad,CuDef*%
G36*
G01*
X398380000Y86810002D02*
X398380000Y85909998D01*
G75*
G02*
X398130002Y85660000I-249998J0D01*
G01*
X397604998Y85660000D01*
G75*
G02*
X397355000Y85909998I0J249998D01*
G01*
X397355000Y86810002D01*
G75*
G02*
X397604998Y87060000I249998J0D01*
G01*
X398130002Y87060000D01*
G75*
G02*
X398380000Y86810002I0J-249998D01*
G01*
G37*
%TD.AperFunction*%
%TD*%
D13*
%TO.N,MCU_GND*%
X406400000Y86360000D03*
X406400000Y83820000D03*
X406400000Y81280000D03*
%TO.N,MCU_+5V*%
X402590000Y133985000D03*
%TO.N,MCU_+3V3*%
X396240000Y83820000D03*
%TD*%
D14*
%TO.N,SERVO_VCC*%
X397867500Y86360000D02*
X397867500Y87987500D01*
X397867500Y87987500D02*
X398780000Y88900000D01*
X398780000Y88900000D02*
X403860000Y88900000D01*
X403860000Y88900000D02*
X405130000Y90170000D01*
X405130000Y90170000D02*
X405130000Y91440000D01*
%TO.N,MCU_GND*%
X404797500Y86360000D02*
X406400000Y86360000D01*
X351790000Y96520000D02*
X359410000Y96520000D01*
X384810000Y114300000D02*
X392430000Y114300000D01*
X384810000Y129540000D02*
X392430000Y129540000D01*
X404797500Y81280000D02*
X406400000Y81280000D01*
X404797500Y83820000D02*
X406400000Y83820000D01*
%TO.N,MCU_+5V*%
X351790000Y83820000D02*
X359410000Y83820000D01*
X402590000Y124460000D02*
X402590000Y133985000D01*
%TO.N,MCU_CMD*%
X351790000Y86360000D02*
X359410000Y86360000D01*
%TO.N,MCU_GPIO10*%
X351790000Y88900000D02*
X359410000Y88900000D01*
%TO.N,MCU_GPIO9*%
X351790000Y91440000D02*
X359410000Y91440000D01*
%TO.N,MCU_GPIO27*%
X351790000Y104140000D02*
X359410000Y104140000D01*
%TO.N,MCU_GPIO26*%
X351790000Y106680000D02*
X359410000Y106680000D01*
%TO.N,MCU_GPIO25*%
X351790000Y109220000D02*
X359410000Y109220000D01*
%TO.N,MCU_GPIO33*%
X351790000Y111760000D02*
X359410000Y111760000D01*
%TO.N,MCU_GPIO32*%
X351790000Y114300000D02*
X359410000Y114300000D01*
%TO.N,MCU_GPIO35*%
X351790000Y116840000D02*
X359410000Y116840000D01*
%TO.N,MCU_GPIO34*%
X351790000Y119380000D02*
X359410000Y119380000D01*
%TO.N,MCU_SN*%
X351790000Y121920000D02*
X359410000Y121920000D01*
%TO.N,MCU_SP*%
X351790000Y124460000D02*
X359410000Y124460000D01*
%TO.N,MCU_EN*%
X351790000Y127000000D02*
X359410000Y127000000D01*
%TO.N,MCU_GPIO7*%
X384810000Y86360000D02*
X392430000Y86360000D01*
%TO.N,MCU_GPIO8*%
X384810000Y88900000D02*
X392430000Y88900000D01*
%TO.N,MCU_GPIO15*%
X384810000Y91440000D02*
X392430000Y91440000D01*
X392430000Y91440000D02*
X402590000Y91440000D01*
%TO.N,MCU_GPIO0*%
X384810000Y96520000D02*
X392430000Y96520000D01*
%TO.N,MCU_GPIO16*%
X384810000Y101600000D02*
X392430000Y101600000D01*
X392430000Y101600000D02*
X396240000Y101600000D01*
X396240000Y101600000D02*
X398780000Y99060000D01*
X398780000Y99060000D02*
X402590000Y99060000D01*
%TO.N,MCU_GPIO17*%
X384810000Y104140000D02*
X392430000Y104140000D01*
X392430000Y104140000D02*
X396240000Y104140000D01*
X396240000Y104140000D02*
X398780000Y101600000D01*
X398780000Y101600000D02*
X402590000Y101600000D01*
%TO.N,MCU_GPIO18*%
X384810000Y109220000D02*
X392430000Y109220000D01*
%TO.N,MCU_GPIO19*%
X384810000Y111760000D02*
X392430000Y111760000D01*
%TO.N,MCU_GPIO3*%
X384810000Y119380000D02*
X392430000Y119380000D01*
%TO.N,MCU_GPIO1*%
X384810000Y121920000D02*
X392430000Y121920000D01*
%TO.N,MCU_GPIO22*%
X384810000Y124460000D02*
X392430000Y124460000D01*
%TO.N,MCU_GPIO23*%
X384810000Y127000000D02*
X392430000Y127000000D01*
%TO.N,MCU_+3V3*%
X351790000Y129540000D02*
X359410000Y129540000D01*
X396240000Y83820000D02*
X397867500Y83820000D01*
%TO.N,DEBUG_LED*%
X392430000Y83820000D02*
X384810000Y83820000D01*
X392430000Y83820000D02*
X392430000Y82550000D01*
X392430000Y82550000D02*
X393700000Y81280000D01*
X393700000Y81280000D02*
X397867500Y81280000D01*
%TO.N,MCU_GPIO21*%
X384810000Y116840000D02*
X392430000Y116840000D01*
%TO.N,MCU_GPIO13*%
X351790000Y93980000D02*
X359410000Y93980000D01*
%TO.N,MCU_GPIO12*%
X351790000Y99060000D02*
X359410000Y99060000D01*
%TO.N,MCU_GPIO14*%
X351790000Y101600000D02*
X359410000Y101600000D01*
%TO.N,MCU_GPIO2*%
X392430000Y93980000D02*
X384810000Y93980000D01*
X392430000Y93980000D02*
X402590000Y93980000D01*
%TO.N,MCU_GPIO4*%
X384810000Y99060000D02*
X392430000Y99060000D01*
X396240000Y99060000D02*
X392430000Y99060000D01*
X398780000Y96520000D02*
X396240000Y99060000D01*
X402590000Y96520000D02*
X398780000Y96520000D01*
%TO.N,MCU_GPIO5*%
X384810000Y106680000D02*
X392430000Y106680000D01*
X392430000Y106680000D02*
X396240000Y106680000D01*
X396240000Y106680000D02*
X398780000Y104140000D01*
X398780000Y104140000D02*
X402590000Y104140000D01*
%TO.N,Net-(D1-Pad2)*%
X399692500Y86360000D02*
X402922500Y86360000D01*
%TO.N,Net-(D2-Pad2)*%
X402922500Y83820000D02*
X399692500Y83820000D01*
%TO.N,Net-(D3-Pad2)*%
X399692500Y81280000D02*
X402922500Y81280000D01*
%TD*%
D15*
%TO.N,SERVO_VCC*%
X412623000Y87757000D02*
X403987000Y87757000D01*
X403987000Y90932165D01*
X404017932Y91006842D01*
X404075000Y91293740D01*
X404075000Y91586260D01*
X404017932Y91873158D01*
X403987000Y91947835D01*
X403987000Y93472165D01*
X404017932Y93546842D01*
X404075000Y93833740D01*
X404075000Y94126260D01*
X404017932Y94413158D01*
X403987000Y94487835D01*
X403987000Y96012165D01*
X404017932Y96086842D01*
X404075000Y96373740D01*
X404075000Y96666260D01*
X404017932Y96953158D01*
X403987000Y97027835D01*
X403987000Y98552165D01*
X404017932Y98626842D01*
X404075000Y98913740D01*
X404075000Y99206260D01*
X404017932Y99493158D01*
X403987000Y99567835D01*
X403987000Y101092165D01*
X404017932Y101166842D01*
X404075000Y101453740D01*
X404075000Y101746260D01*
X404017932Y102033158D01*
X403987000Y102107835D01*
X403987000Y103632165D01*
X404017932Y103706842D01*
X404075000Y103993740D01*
X404075000Y104286260D01*
X404017932Y104573158D01*
X403987000Y104647835D01*
X403987000Y104990000D01*
X406181928Y104990000D01*
X406181928Y103290000D01*
X406194188Y103165518D01*
X406230498Y103045820D01*
X406289463Y102935506D01*
X406343222Y102870000D01*
X406289463Y102804494D01*
X406230498Y102694180D01*
X406194188Y102574482D01*
X406181928Y102450000D01*
X406181928Y100750000D01*
X406194188Y100625518D01*
X406230498Y100505820D01*
X406289463Y100395506D01*
X406343222Y100330000D01*
X406289463Y100264494D01*
X406230498Y100154180D01*
X406194188Y100034482D01*
X406181928Y99910000D01*
X406181928Y98210000D01*
X406194188Y98085518D01*
X406230498Y97965820D01*
X406289463Y97855506D01*
X406343222Y97790000D01*
X406289463Y97724494D01*
X406230498Y97614180D01*
X406194188Y97494482D01*
X406181928Y97370000D01*
X406181928Y95670000D01*
X406194188Y95545518D01*
X406230498Y95425820D01*
X406289463Y95315506D01*
X406343222Y95250000D01*
X406289463Y95184494D01*
X406230498Y95074180D01*
X406194188Y94954482D01*
X406181928Y94830000D01*
X406181928Y93130000D01*
X406194188Y93005518D01*
X406230498Y92885820D01*
X406289463Y92775506D01*
X406343222Y92710000D01*
X406289463Y92644494D01*
X406230498Y92534180D01*
X406194188Y92414482D01*
X406181928Y92290000D01*
X406181928Y90590000D01*
X406194188Y90465518D01*
X406230498Y90345820D01*
X406289463Y90235506D01*
X406368815Y90138815D01*
X406465506Y90059463D01*
X406575820Y90000498D01*
X406695518Y89964188D01*
X406820000Y89951928D01*
X408520000Y89951928D01*
X408644482Y89964188D01*
X408764180Y90000498D01*
X408874494Y90059463D01*
X408971185Y90138815D01*
X409050537Y90235506D01*
X409109502Y90345820D01*
X409145812Y90465518D01*
X409158072Y90590000D01*
X409158072Y92290000D01*
X409145812Y92414482D01*
X409109502Y92534180D01*
X409050537Y92644494D01*
X408996778Y92710000D01*
X409050537Y92775506D01*
X409109502Y92885820D01*
X409145812Y93005518D01*
X409158072Y93130000D01*
X409158072Y94830000D01*
X409145812Y94954482D01*
X409109502Y95074180D01*
X409050537Y95184494D01*
X408996778Y95250000D01*
X409050537Y95315506D01*
X409109502Y95425820D01*
X409145812Y95545518D01*
X409158072Y95670000D01*
X409158072Y97370000D01*
X409145812Y97494482D01*
X409109502Y97614180D01*
X409050537Y97724494D01*
X408996778Y97790000D01*
X409050537Y97855506D01*
X409109502Y97965820D01*
X409145812Y98085518D01*
X409158072Y98210000D01*
X409158072Y99910000D01*
X409145812Y100034482D01*
X409109502Y100154180D01*
X409050537Y100264494D01*
X408996778Y100330000D01*
X409050537Y100395506D01*
X409109502Y100505820D01*
X409145812Y100625518D01*
X409158072Y100750000D01*
X409158072Y102450000D01*
X409145812Y102574482D01*
X409109502Y102694180D01*
X409050537Y102804494D01*
X408996778Y102870000D01*
X409050537Y102935506D01*
X409109502Y103045820D01*
X409145812Y103165518D01*
X409158072Y103290000D01*
X409158072Y104990000D01*
X409145812Y105114482D01*
X409109502Y105234180D01*
X409050537Y105344494D01*
X408971185Y105441185D01*
X408874494Y105520537D01*
X408764180Y105579502D01*
X408644482Y105615812D01*
X408520000Y105628072D01*
X406820000Y105628072D01*
X406695518Y105615812D01*
X406575820Y105579502D01*
X406465506Y105520537D01*
X406368815Y105441185D01*
X406289463Y105344494D01*
X406230498Y105234180D01*
X406194188Y105114482D01*
X406181928Y104990000D01*
X403987000Y104990000D01*
X403987000Y120523000D01*
X406400000Y120523000D01*
X406424776Y120525440D01*
X406448601Y120532667D01*
X406470557Y120544403D01*
X406489803Y120560197D01*
X406505597Y120579443D01*
X406517333Y120601399D01*
X406524560Y120625224D01*
X406527000Y120650000D01*
X406527000Y123286306D01*
X406569502Y123365820D01*
X406605812Y123485518D01*
X406618072Y123610000D01*
X406618072Y125310000D01*
X408721928Y125310000D01*
X408721928Y123610000D01*
X408734188Y123485518D01*
X408770498Y123365820D01*
X408829463Y123255506D01*
X408908815Y123158815D01*
X409005506Y123079463D01*
X409115820Y123020498D01*
X409235518Y122984188D01*
X409360000Y122971928D01*
X411060000Y122971928D01*
X411184482Y122984188D01*
X411304180Y123020498D01*
X411414494Y123079463D01*
X411511185Y123158815D01*
X411590537Y123255506D01*
X411649502Y123365820D01*
X411685812Y123485518D01*
X411698072Y123610000D01*
X411698072Y125310000D01*
X411685812Y125434482D01*
X411649502Y125554180D01*
X411590537Y125664494D01*
X411511185Y125761185D01*
X411414494Y125840537D01*
X411304180Y125899502D01*
X411184482Y125935812D01*
X411060000Y125948072D01*
X409360000Y125948072D01*
X409235518Y125935812D01*
X409115820Y125899502D01*
X409005506Y125840537D01*
X408908815Y125761185D01*
X408829463Y125664494D01*
X408770498Y125554180D01*
X408734188Y125434482D01*
X408721928Y125310000D01*
X406618072Y125310000D01*
X406605812Y125434482D01*
X406569502Y125554180D01*
X406527000Y125633694D01*
X406527000Y134493000D01*
X412623000Y134493000D01*
X412623000Y87757000D01*
%TA.AperFunction,Conductor*%
D16*
G36*
X412623000Y87757000D02*
G01*
X403987000Y87757000D01*
X403987000Y90932165D01*
X404017932Y91006842D01*
X404075000Y91293740D01*
X404075000Y91586260D01*
X404017932Y91873158D01*
X403987000Y91947835D01*
X403987000Y93472165D01*
X404017932Y93546842D01*
X404075000Y93833740D01*
X404075000Y94126260D01*
X404017932Y94413158D01*
X403987000Y94487835D01*
X403987000Y96012165D01*
X404017932Y96086842D01*
X404075000Y96373740D01*
X404075000Y96666260D01*
X404017932Y96953158D01*
X403987000Y97027835D01*
X403987000Y98552165D01*
X404017932Y98626842D01*
X404075000Y98913740D01*
X404075000Y99206260D01*
X404017932Y99493158D01*
X403987000Y99567835D01*
X403987000Y101092165D01*
X404017932Y101166842D01*
X404075000Y101453740D01*
X404075000Y101746260D01*
X404017932Y102033158D01*
X403987000Y102107835D01*
X403987000Y103632165D01*
X404017932Y103706842D01*
X404075000Y103993740D01*
X404075000Y104286260D01*
X404017932Y104573158D01*
X403987000Y104647835D01*
X403987000Y104990000D01*
X406181928Y104990000D01*
X406181928Y103290000D01*
X406194188Y103165518D01*
X406230498Y103045820D01*
X406289463Y102935506D01*
X406343222Y102870000D01*
X406289463Y102804494D01*
X406230498Y102694180D01*
X406194188Y102574482D01*
X406181928Y102450000D01*
X406181928Y100750000D01*
X406194188Y100625518D01*
X406230498Y100505820D01*
X406289463Y100395506D01*
X406343222Y100330000D01*
X406289463Y100264494D01*
X406230498Y100154180D01*
X406194188Y100034482D01*
X406181928Y99910000D01*
X406181928Y98210000D01*
X406194188Y98085518D01*
X406230498Y97965820D01*
X406289463Y97855506D01*
X406343222Y97790000D01*
X406289463Y97724494D01*
X406230498Y97614180D01*
X406194188Y97494482D01*
X406181928Y97370000D01*
X406181928Y95670000D01*
X406194188Y95545518D01*
X406230498Y95425820D01*
X406289463Y95315506D01*
X406343222Y95250000D01*
X406289463Y95184494D01*
X406230498Y95074180D01*
X406194188Y94954482D01*
X406181928Y94830000D01*
X406181928Y93130000D01*
X406194188Y93005518D01*
X406230498Y92885820D01*
X406289463Y92775506D01*
X406343222Y92710000D01*
X406289463Y92644494D01*
X406230498Y92534180D01*
X406194188Y92414482D01*
X406181928Y92290000D01*
X406181928Y90590000D01*
X406194188Y90465518D01*
X406230498Y90345820D01*
X406289463Y90235506D01*
X406368815Y90138815D01*
X406465506Y90059463D01*
X406575820Y90000498D01*
X406695518Y89964188D01*
X406820000Y89951928D01*
X408520000Y89951928D01*
X408644482Y89964188D01*
X408764180Y90000498D01*
X408874494Y90059463D01*
X408971185Y90138815D01*
X409050537Y90235506D01*
X409109502Y90345820D01*
X409145812Y90465518D01*
X409158072Y90590000D01*
X409158072Y92290000D01*
X409145812Y92414482D01*
X409109502Y92534180D01*
X409050537Y92644494D01*
X408996778Y92710000D01*
X409050537Y92775506D01*
X409109502Y92885820D01*
X409145812Y93005518D01*
X409158072Y93130000D01*
X409158072Y94830000D01*
X409145812Y94954482D01*
X409109502Y95074180D01*
X409050537Y95184494D01*
X408996778Y95250000D01*
X409050537Y95315506D01*
X409109502Y95425820D01*
X409145812Y95545518D01*
X409158072Y95670000D01*
X409158072Y97370000D01*
X409145812Y97494482D01*
X409109502Y97614180D01*
X409050537Y97724494D01*
X408996778Y97790000D01*
X409050537Y97855506D01*
X409109502Y97965820D01*
X409145812Y98085518D01*
X409158072Y98210000D01*
X409158072Y99910000D01*
X409145812Y100034482D01*
X409109502Y100154180D01*
X409050537Y100264494D01*
X408996778Y100330000D01*
X409050537Y100395506D01*
X409109502Y100505820D01*
X409145812Y100625518D01*
X409158072Y100750000D01*
X409158072Y102450000D01*
X409145812Y102574482D01*
X409109502Y102694180D01*
X409050537Y102804494D01*
X408996778Y102870000D01*
X409050537Y102935506D01*
X409109502Y103045820D01*
X409145812Y103165518D01*
X409158072Y103290000D01*
X409158072Y104990000D01*
X409145812Y105114482D01*
X409109502Y105234180D01*
X409050537Y105344494D01*
X408971185Y105441185D01*
X408874494Y105520537D01*
X408764180Y105579502D01*
X408644482Y105615812D01*
X408520000Y105628072D01*
X406820000Y105628072D01*
X406695518Y105615812D01*
X406575820Y105579502D01*
X406465506Y105520537D01*
X406368815Y105441185D01*
X406289463Y105344494D01*
X406230498Y105234180D01*
X406194188Y105114482D01*
X406181928Y104990000D01*
X403987000Y104990000D01*
X403987000Y120523000D01*
X406400000Y120523000D01*
X406424776Y120525440D01*
X406448601Y120532667D01*
X406470557Y120544403D01*
X406489803Y120560197D01*
X406505597Y120579443D01*
X406517333Y120601399D01*
X406524560Y120625224D01*
X406527000Y120650000D01*
X406527000Y123286306D01*
X406569502Y123365820D01*
X406605812Y123485518D01*
X406618072Y123610000D01*
X406618072Y125310000D01*
X408721928Y125310000D01*
X408721928Y123610000D01*
X408734188Y123485518D01*
X408770498Y123365820D01*
X408829463Y123255506D01*
X408908815Y123158815D01*
X409005506Y123079463D01*
X409115820Y123020498D01*
X409235518Y122984188D01*
X409360000Y122971928D01*
X411060000Y122971928D01*
X411184482Y122984188D01*
X411304180Y123020498D01*
X411414494Y123079463D01*
X411511185Y123158815D01*
X411590537Y123255506D01*
X411649502Y123365820D01*
X411685812Y123485518D01*
X411698072Y123610000D01*
X411698072Y125310000D01*
X411685812Y125434482D01*
X411649502Y125554180D01*
X411590537Y125664494D01*
X411511185Y125761185D01*
X411414494Y125840537D01*
X411304180Y125899502D01*
X411184482Y125935812D01*
X411060000Y125948072D01*
X409360000Y125948072D01*
X409235518Y125935812D01*
X409115820Y125899502D01*
X409005506Y125840537D01*
X408908815Y125761185D01*
X408829463Y125664494D01*
X408770498Y125554180D01*
X408734188Y125434482D01*
X408721928Y125310000D01*
X406618072Y125310000D01*
X406605812Y125434482D01*
X406569502Y125554180D01*
X406527000Y125633694D01*
X406527000Y134493000D01*
X412623000Y134493000D01*
X412623000Y87757000D01*
G37*
%TD.AperFunction*%
%TD*%
M02*
