M48
; DRILL file {KiCad 5.1.10-88a1d61d58~90~ubuntu20.04.1} date Wed Sep 15 15:38:36 2021
; FORMAT={-:-/ absolute / inch / decimal}
; #@! TF.CreationDate,2021-09-15T15:38:36+00:00
; #@! TF.GenerationSoftware,Kicad,Pcbnew,5.1.10-88a1d61d58~90~ubuntu20.04.1
; #@! TF.FileFunction,Plated,1,2,PTH
FMAT,2
INCH
T1C0.0157
T2C0.0394
%
G90
G05
T1
X15.6Y3.3
X15.85Y5.275
X16.0Y3.4
X16.0Y3.3
X16.0Y3.2
T2
X13.85Y5.1
X13.85Y5.0
X13.85Y4.9
X13.85Y4.8
X13.85Y4.7
X13.85Y4.6
X13.85Y4.5
X13.85Y4.4
X13.85Y4.3
X13.85Y4.2
X13.85Y4.1
X13.85Y4.0
X13.85Y3.9
X13.85Y3.8
X13.85Y3.7
X13.85Y3.6
X13.85Y3.5
X13.85Y3.4
X13.85Y3.3
X14.15Y5.1
X14.15Y5.0
X14.15Y4.9
X14.15Y4.8
X14.15Y4.7
X14.15Y4.6
X14.15Y4.5
X14.15Y4.4
X14.15Y4.3
X14.15Y4.2
X14.15Y4.1
X14.15Y4.0
X14.15Y3.9
X14.15Y3.8
X14.15Y3.7
X14.15Y3.6
X14.15Y3.5
X14.15Y3.4
X14.15Y3.3
X15.15Y5.1
X15.15Y5.0
X15.15Y4.9
X15.15Y4.8
X15.15Y4.7
X15.15Y4.6
X15.15Y4.5
X15.15Y4.4
X15.15Y4.3
X15.15Y4.2
X15.15Y4.1
X15.15Y4.0
X15.15Y3.9
X15.15Y3.8
X15.15Y3.7
X15.15Y3.6
X15.15Y3.5
X15.15Y3.4
X15.15Y3.3
X15.45Y5.1
X15.45Y5.0
X15.45Y4.9
X15.45Y4.8
X15.45Y4.7
X15.45Y4.6
X15.45Y4.5
X15.45Y4.4
X15.45Y4.3
X15.45Y4.2
X15.45Y4.1
X15.45Y4.0
X15.45Y3.9
X15.45Y3.8
X15.45Y3.7
X15.45Y3.6
X15.45Y3.5
X15.45Y3.4
X15.45Y3.3
X15.85Y4.9
X15.85Y4.1
X15.85Y4.0
X15.85Y3.9
X15.85Y3.8
X15.85Y3.7
X15.85Y3.6
X15.95Y4.9
X15.95Y4.1
X15.95Y4.0
X15.95Y3.9
X15.95Y3.8
X15.95Y3.7
X15.95Y3.6
X16.05Y4.9
X16.05Y4.1
X16.05Y4.0
X16.05Y3.9
X16.05Y3.8
X16.05Y3.7
X16.05Y3.6
X16.15Y4.9
T0
M30
