%TF.GenerationSoftware,KiCad,Pcbnew,5.1.10-88a1d61d58~90~ubuntu20.04.1*%
%TF.CreationDate,2021-09-14T21:11:22+00:00*%
%TF.ProjectId,WifiServoBridge,57696669-5365-4727-966f-427269646765,rev?*%
%TF.SameCoordinates,Original*%
%TF.FileFunction,Soldermask,Bot*%
%TF.FilePolarity,Negative*%
%FSLAX46Y46*%
G04 Gerber Fmt 4.6, Leading zero omitted, Abs format (unit mm)*
G04 Created by KiCad (PCBNEW 5.1.10-88a1d61d58~90~ubuntu20.04.1) date 2021-09-14 21:11:22*
%MOMM*%
%LPD*%
G01*
G04 APERTURE LIST*
%ADD10C,3.200000*%
%ADD11O,1.700000X1.700000*%
%ADD12R,1.700000X1.700000*%
%ADD13C,1.700000*%
G04 APERTURE END LIST*
D10*
%TO.C,REF\u002A\u002A*%
X398780000Y115570000D03*
%TD*%
%TO.C,REF\u002A\u002A*%
X373380000Y86360000D03*
%TD*%
%TO.C,REF\u002A\u002A*%
X373380000Y128270000D03*
%TD*%
D11*
%TO.C,J4*%
X392430000Y83820000D03*
X392430000Y86360000D03*
X392430000Y88900000D03*
X392430000Y91440000D03*
X392430000Y93980000D03*
X392430000Y96520000D03*
X392430000Y99060000D03*
X392430000Y101600000D03*
X392430000Y104140000D03*
X392430000Y106680000D03*
X392430000Y109220000D03*
X392430000Y111760000D03*
X392430000Y114300000D03*
X392430000Y116840000D03*
X392430000Y119380000D03*
X392430000Y121920000D03*
X392430000Y124460000D03*
X392430000Y127000000D03*
D12*
X392430000Y129540000D03*
%TD*%
D11*
%TO.C,J3*%
X351790000Y83820000D03*
X351790000Y86360000D03*
X351790000Y88900000D03*
X351790000Y91440000D03*
X351790000Y93980000D03*
X351790000Y96520000D03*
X351790000Y99060000D03*
X351790000Y101600000D03*
X351790000Y104140000D03*
X351790000Y106680000D03*
X351790000Y109220000D03*
X351790000Y111760000D03*
X351790000Y114300000D03*
X351790000Y116840000D03*
X351790000Y119380000D03*
X351790000Y121920000D03*
X351790000Y124460000D03*
X351790000Y127000000D03*
D12*
X351790000Y129540000D03*
%TD*%
%TO.C,J1*%
X410210000Y124460000D03*
D13*
X407670000Y124460000D03*
%TD*%
%TO.C,J2*%
X402590000Y124460000D03*
D12*
X405130000Y124460000D03*
%TD*%
D13*
%TO.C,J5*%
X402590000Y104140000D03*
X405130000Y104140000D03*
D12*
X407670000Y104140000D03*
%TD*%
%TO.C,J6*%
X407670000Y101600000D03*
D13*
X405130000Y101600000D03*
X402590000Y101600000D03*
%TD*%
%TO.C,J7*%
X402590000Y99060000D03*
X405130000Y99060000D03*
D12*
X407670000Y99060000D03*
%TD*%
%TO.C,J8*%
X407670000Y96520000D03*
D13*
X405130000Y96520000D03*
X402590000Y96520000D03*
%TD*%
%TO.C,J9*%
X402590000Y93980000D03*
X405130000Y93980000D03*
D12*
X407670000Y93980000D03*
%TD*%
%TO.C,J10*%
X407670000Y91440000D03*
D13*
X405130000Y91440000D03*
X402590000Y91440000D03*
%TD*%
%TO.C,U1*%
X359410000Y129540000D03*
X359410000Y127000000D03*
X359410000Y124460000D03*
X359410000Y121920000D03*
X359410000Y119380000D03*
X359410000Y116840000D03*
X359410000Y114300000D03*
X359410000Y111760000D03*
X359410000Y109220000D03*
X359410000Y106680000D03*
X359410000Y104140000D03*
X359410000Y101600000D03*
X359410000Y99060000D03*
D12*
X359410000Y96520000D03*
D13*
X359410000Y93980000D03*
X359410000Y91440000D03*
X359410000Y88900000D03*
X359410000Y86360000D03*
X359410000Y83820000D03*
D12*
X384810000Y129540000D03*
D13*
X384810000Y127000000D03*
X384810000Y124460000D03*
X384810000Y121920000D03*
X384810000Y119380000D03*
X384810000Y116840000D03*
D12*
X384810000Y114300000D03*
D13*
X384810000Y111760000D03*
X384810000Y109220000D03*
X384810000Y106680000D03*
X384810000Y104140000D03*
X384810000Y101600000D03*
X384810000Y99060000D03*
X384810000Y96520000D03*
X384810000Y93980000D03*
X384810000Y91440000D03*
X384810000Y88900000D03*
X384810000Y86360000D03*
X384810000Y83820000D03*
%TD*%
M02*
