%TF.GenerationSoftware,KiCad,Pcbnew,5.1.10-88a1d61d58~90~ubuntu20.04.1*%
%TF.CreationDate,2021-09-12T18:51:28+00:00*%
%TF.ProjectId,WifiServoBridge,57696669-5365-4727-966f-427269646765,rev?*%
%TF.SameCoordinates,Original*%
%TF.FileFunction,Copper,L2,Bot*%
%TF.FilePolarity,Positive*%
%FSLAX46Y46*%
G04 Gerber Fmt 4.6, Leading zero omitted, Abs format (unit mm)*
G04 Created by KiCad (PCBNEW 5.1.10-88a1d61d58~90~ubuntu20.04.1) date 2021-09-12 18:51:28*
%MOMM*%
%LPD*%
G01*
G04 APERTURE LIST*
%TA.AperFunction,ComponentPad*%
%ADD10O,1.700000X1.700000*%
%TD*%
%TA.AperFunction,ComponentPad*%
%ADD11R,1.700000X1.700000*%
%TD*%
%TA.AperFunction,ComponentPad*%
%ADD12C,1.700000*%
%TD*%
%TA.AperFunction,ViaPad*%
%ADD13C,0.800000*%
%TD*%
%TA.AperFunction,Conductor*%
%ADD14C,1.000000*%
%TD*%
%TA.AperFunction,Conductor*%
%ADD15C,0.254000*%
%TD*%
%TA.AperFunction,Conductor*%
%ADD16C,0.100000*%
%TD*%
G04 APERTURE END LIST*
D10*
%TO.P,J4,19*%
%TO.N,DEBUG_LED*%
X392430000Y83820000D03*
%TO.P,J4,18*%
%TO.N,MCU_GPIO7*%
X392430000Y86360000D03*
%TO.P,J4,17*%
%TO.N,MCU_GPIO8*%
X392430000Y88900000D03*
%TO.P,J4,16*%
%TO.N,MCU_GPIO15*%
X392430000Y91440000D03*
%TO.P,J4,15*%
%TO.N,SERVO_A*%
X392430000Y93980000D03*
%TO.P,J4,14*%
%TO.N,MCU_GPIO0*%
X392430000Y96520000D03*
%TO.P,J4,13*%
%TO.N,SERVO_B*%
X392430000Y99060000D03*
%TO.P,J4,12*%
%TO.N,MCU_GPIO16*%
X392430000Y101600000D03*
%TO.P,J4,11*%
%TO.N,MCU_GPIO17*%
X392430000Y104140000D03*
%TO.P,J4,10*%
%TO.N,SERVO_C*%
X392430000Y106680000D03*
%TO.P,J4,9*%
%TO.N,MCU_GPIO18*%
X392430000Y109220000D03*
%TO.P,J4,8*%
%TO.N,MCU_GPIO19*%
X392430000Y111760000D03*
%TO.P,J4,7*%
%TO.N,MCU_GND*%
X392430000Y114300000D03*
%TO.P,J4,6*%
%TO.N,MCU_GPIO21*%
X392430000Y116840000D03*
%TO.P,J4,5*%
%TO.N,MCU_GPIO3*%
X392430000Y119380000D03*
%TO.P,J4,4*%
%TO.N,MCU_GPIO1*%
X392430000Y121920000D03*
%TO.P,J4,3*%
%TO.N,MCU_GPIO22*%
X392430000Y124460000D03*
%TO.P,J4,2*%
%TO.N,MCU_GPIO23*%
X392430000Y127000000D03*
D11*
%TO.P,J4,1*%
%TO.N,MCU_GND*%
X392430000Y129540000D03*
%TD*%
D10*
%TO.P,J3,19*%
%TO.N,MCU_+5V*%
X351790000Y83820000D03*
%TO.P,J3,18*%
%TO.N,MCU_CMD*%
X351790000Y86360000D03*
%TO.P,J3,17*%
%TO.N,MCU_GPIO10*%
X351790000Y88900000D03*
%TO.P,J3,16*%
%TO.N,MCU_GPIO9*%
X351790000Y91440000D03*
%TO.P,J3,15*%
%TO.N,SERVO_E*%
X351790000Y93980000D03*
%TO.P,J3,14*%
%TO.N,MCU_GND*%
X351790000Y96520000D03*
%TO.P,J3,13*%
%TO.N,SERVO_D*%
X351790000Y99060000D03*
%TO.P,J3,12*%
%TO.N,SERVO_F*%
X351790000Y101600000D03*
%TO.P,J3,11*%
%TO.N,MCU_GPIO27*%
X351790000Y104140000D03*
%TO.P,J3,10*%
%TO.N,MCU_GPIO26*%
X351790000Y106680000D03*
%TO.P,J3,9*%
%TO.N,MCU_GPIO25*%
X351790000Y109220000D03*
%TO.P,J3,8*%
%TO.N,MCU_GPIO33*%
X351790000Y111760000D03*
%TO.P,J3,7*%
%TO.N,MCU_GPIO32*%
X351790000Y114300000D03*
%TO.P,J3,6*%
%TO.N,MCU_GPIO35*%
X351790000Y116840000D03*
%TO.P,J3,5*%
%TO.N,MCU_GPIO34*%
X351790000Y119380000D03*
%TO.P,J3,4*%
%TO.N,MCU_SN*%
X351790000Y121920000D03*
%TO.P,J3,3*%
%TO.N,MCU_SP*%
X351790000Y124460000D03*
%TO.P,J3,2*%
%TO.N,MCU_EN*%
X351790000Y127000000D03*
D11*
%TO.P,J3,1*%
%TO.N,MCU_+3V3*%
X351790000Y129540000D03*
%TD*%
%TO.P,J1,2*%
%TO.N,SERVO_GND*%
X410210000Y124460000D03*
D12*
%TO.P,J1,1*%
%TO.N,SERVO_VCC*%
X407670000Y124460000D03*
%TD*%
%TO.P,J2,1*%
%TO.N,MCU_+5V*%
X402590000Y124460000D03*
D11*
%TO.P,J2,2*%
%TO.N,MCU_GND*%
X405130000Y124460000D03*
%TD*%
D12*
%TO.P,J5,1*%
%TO.N,SERVO_A*%
X402590000Y104140000D03*
%TO.P,J5,2*%
%TO.N,SERVO_VCC*%
X405130000Y104140000D03*
D11*
%TO.P,J5,3*%
%TO.N,SERVO_GND*%
X407670000Y104140000D03*
%TD*%
%TO.P,J6,3*%
%TO.N,SERVO_GND*%
X407670000Y101600000D03*
D12*
%TO.P,J6,2*%
%TO.N,SERVO_VCC*%
X405130000Y101600000D03*
%TO.P,J6,1*%
%TO.N,SERVO_B*%
X402590000Y101600000D03*
%TD*%
%TO.P,J7,1*%
%TO.N,SERVO_C*%
X402590000Y99060000D03*
%TO.P,J7,2*%
%TO.N,SERVO_VCC*%
X405130000Y99060000D03*
D11*
%TO.P,J7,3*%
%TO.N,SERVO_GND*%
X407670000Y99060000D03*
%TD*%
%TO.P,J8,3*%
%TO.N,SERVO_GND*%
X407670000Y96520000D03*
D12*
%TO.P,J8,2*%
%TO.N,SERVO_VCC*%
X405130000Y96520000D03*
%TO.P,J8,1*%
%TO.N,SERVO_D*%
X402590000Y96520000D03*
%TD*%
%TO.P,J9,1*%
%TO.N,SERVO_E*%
X402590000Y93980000D03*
%TO.P,J9,2*%
%TO.N,SERVO_VCC*%
X405130000Y93980000D03*
D11*
%TO.P,J9,3*%
%TO.N,SERVO_GND*%
X407670000Y93980000D03*
%TD*%
%TO.P,J10,3*%
%TO.N,SERVO_GND*%
X407670000Y91440000D03*
D12*
%TO.P,J10,2*%
%TO.N,SERVO_VCC*%
X405130000Y91440000D03*
%TO.P,J10,1*%
%TO.N,SERVO_F*%
X402590000Y91440000D03*
%TD*%
%TO.P,U1,2*%
%TO.N,MCU_+3V3*%
X359410000Y129540000D03*
%TO.P,U1,4*%
%TO.N,MCU_EN*%
X359410000Y127000000D03*
%TO.P,U1,5*%
%TO.N,MCU_SP*%
X359410000Y124460000D03*
%TO.P,U1,6*%
%TO.N,MCU_SN*%
X359410000Y121920000D03*
%TO.P,U1,35*%
%TO.N,MCU_GPIO34*%
X359410000Y119380000D03*
%TO.P,U1,36*%
%TO.N,MCU_GPIO35*%
X359410000Y116840000D03*
%TO.P,U1,33*%
%TO.N,MCU_GPIO32*%
X359410000Y114300000D03*
%TO.P,U1,34*%
%TO.N,MCU_GPIO33*%
X359410000Y111760000D03*
%TO.P,U1,30*%
%TO.N,MCU_GPIO25*%
X359410000Y109220000D03*
%TO.P,U1,31*%
%TO.N,MCU_GPIO26*%
X359410000Y106680000D03*
%TO.P,U1,32*%
%TO.N,MCU_GPIO27*%
X359410000Y104140000D03*
%TO.P,U1,21*%
%TO.N,SERVO_F*%
X359410000Y101600000D03*
%TO.P,U1,19*%
%TO.N,SERVO_D*%
X359410000Y99060000D03*
D11*
%TO.P,U1,1*%
%TO.N,MCU_GND*%
X359410000Y96520000D03*
D12*
%TO.P,U1,20*%
%TO.N,SERVO_E*%
X359410000Y93980000D03*
%TO.P,U1,17*%
%TO.N,MCU_GPIO9*%
X359410000Y91440000D03*
%TO.P,U1,18*%
%TO.N,MCU_GPIO10*%
X359410000Y88900000D03*
%TO.P,U1,7*%
%TO.N,MCU_CMD*%
X359410000Y86360000D03*
%TO.P,U1,3*%
%TO.N,MCU_+5V*%
X359410000Y83820000D03*
D11*
%TO.P,U1,1*%
%TO.N,MCU_GND*%
X384810000Y129540000D03*
D12*
%TO.P,U1,29*%
%TO.N,MCU_GPIO23*%
X384810000Y127000000D03*
%TO.P,U1,28*%
%TO.N,MCU_GPIO22*%
X384810000Y124460000D03*
%TO.P,U1,9*%
%TO.N,MCU_GPIO1*%
X384810000Y121920000D03*
%TO.P,U1,11*%
%TO.N,MCU_GPIO3*%
X384810000Y119380000D03*
%TO.P,U1,27*%
%TO.N,MCU_GPIO21*%
X384810000Y116840000D03*
D11*
%TO.P,U1,1*%
%TO.N,MCU_GND*%
X384810000Y114300000D03*
D12*
%TO.P,U1,26*%
%TO.N,MCU_GPIO19*%
X384810000Y111760000D03*
%TO.P,U1,25*%
%TO.N,MCU_GPIO18*%
X384810000Y109220000D03*
%TO.P,U1,13*%
%TO.N,SERVO_C*%
X384810000Y106680000D03*
%TO.P,U1,24*%
%TO.N,MCU_GPIO17*%
X384810000Y104140000D03*
%TO.P,U1,23*%
%TO.N,MCU_GPIO16*%
X384810000Y101600000D03*
%TO.P,U1,12*%
%TO.N,SERVO_B*%
X384810000Y99060000D03*
%TO.P,U1,8*%
%TO.N,MCU_GPIO0*%
X384810000Y96520000D03*
%TO.P,U1,10*%
%TO.N,SERVO_A*%
X384810000Y93980000D03*
%TO.P,U1,22*%
%TO.N,MCU_GPIO15*%
X384810000Y91440000D03*
%TO.P,U1,16*%
%TO.N,MCU_GPIO8*%
X384810000Y88900000D03*
%TO.P,U1,15*%
%TO.N,MCU_GPIO7*%
X384810000Y86360000D03*
%TO.P,U1,14*%
%TO.N,DEBUG_LED*%
X384810000Y83820000D03*
%TD*%
D13*
%TO.N,MCU_GND*%
X411480000Y86360000D03*
X411480000Y83820000D03*
X394970000Y88900000D03*
X401955000Y88900000D03*
%TO.N,SERVO_A*%
X394970000Y93980000D03*
X394970000Y104140000D03*
%TO.N,SERVO_B*%
X396240000Y99060000D03*
X396240000Y101600000D03*
%TO.N,SERVO_C*%
X397510000Y106680000D03*
X397510000Y99060000D03*
%TO.N,SERVO_D*%
X398780000Y96520000D03*
%TO.N,SERVO_E*%
X400050000Y93980000D03*
%TO.N,SERVO_F*%
X397510000Y91440000D03*
%TO.N,MCU_+3V3*%
X365760000Y129540000D03*
X368300000Y129540000D03*
X394970000Y86360000D03*
X394970000Y82550000D03*
%TD*%
D14*
%TO.N,SERVO_A*%
X394970000Y104140000D02*
X394970000Y93980000D01*
%TO.N,SERVO_B*%
X396240000Y101600000D02*
X396240000Y99060000D01*
%TO.N,SERVO_C*%
X397510000Y99060000D02*
X397510000Y106680000D01*
%TO.N,SERVO_D*%
X398780000Y88900000D02*
X398780000Y96520000D01*
X398780000Y81280000D02*
X398780000Y88900000D01*
X363220000Y81280000D02*
X364490000Y80010000D01*
X363220000Y97790000D02*
X363220000Y81280000D01*
X364490000Y80010000D02*
X397510000Y80010000D01*
X361950000Y99060000D02*
X363220000Y97790000D01*
X397510000Y80010000D02*
X398780000Y81280000D01*
X359410000Y99060000D02*
X361950000Y99060000D01*
%TO.N,SERVO_E*%
X400050000Y88900000D02*
X400050000Y93980000D01*
X398780000Y78740000D02*
X400050000Y80010000D01*
X363220000Y78740000D02*
X398780000Y78740000D01*
X361950000Y80010000D02*
X363220000Y78740000D01*
X361950000Y92710000D02*
X361950000Y80010000D01*
X400050000Y80010000D02*
X400050000Y88900000D01*
X360680000Y93980000D02*
X361950000Y92710000D01*
X359410000Y93980000D02*
X360680000Y93980000D01*
%TO.N,SERVO_F*%
X397510000Y88900000D02*
X397510000Y91440000D01*
X396240000Y81280000D02*
X397510000Y82550000D01*
X397510000Y82550000D02*
X397510000Y88900000D01*
X365760000Y81280000D02*
X396240000Y81280000D01*
X364490000Y82550000D02*
X365760000Y81280000D01*
X363220000Y101600000D02*
X364490000Y100330000D01*
X364490000Y100330000D02*
X364490000Y82550000D01*
X359410000Y101600000D02*
X363220000Y101600000D01*
%TO.N,MCU_+3V3*%
X394970000Y82550000D02*
X394970000Y86360000D01*
X365760000Y129540000D02*
X368300000Y129540000D01*
%TD*%
D15*
%TO.N,MCU_GND*%
X406273000Y124967835D02*
X406242068Y124893158D01*
X406185000Y124606260D01*
X406185000Y124313740D01*
X406242068Y124026842D01*
X406273000Y123952165D01*
X406273000Y122047000D01*
X402590000Y122047000D01*
X402565224Y122044560D01*
X402541399Y122037333D01*
X402519443Y122025597D01*
X402500197Y122009803D01*
X402484403Y121990557D01*
X402472667Y121968601D01*
X402465440Y121944776D01*
X402463000Y121920000D01*
X402463000Y105625000D01*
X402443740Y105625000D01*
X402156842Y105567932D01*
X401886589Y105455990D01*
X401643368Y105293475D01*
X401436525Y105086632D01*
X401274010Y104843411D01*
X401162068Y104573158D01*
X401105000Y104286260D01*
X401105000Y103993740D01*
X401162068Y103706842D01*
X401274010Y103436589D01*
X401436525Y103193368D01*
X401643368Y102986525D01*
X401817760Y102870000D01*
X401643368Y102753475D01*
X401436525Y102546632D01*
X401274010Y102303411D01*
X401162068Y102033158D01*
X401105000Y101746260D01*
X401105000Y101453740D01*
X401162068Y101166842D01*
X401274010Y100896589D01*
X401436525Y100653368D01*
X401643368Y100446525D01*
X401817760Y100330000D01*
X401643368Y100213475D01*
X401436525Y100006632D01*
X401274010Y99763411D01*
X401162068Y99493158D01*
X401105000Y99206260D01*
X401105000Y98913740D01*
X401162068Y98626842D01*
X401274010Y98356589D01*
X401436525Y98113368D01*
X401643368Y97906525D01*
X401817760Y97790000D01*
X401643368Y97673475D01*
X401436525Y97466632D01*
X401274010Y97223411D01*
X401162068Y96953158D01*
X401105000Y96666260D01*
X401105000Y96373740D01*
X401162068Y96086842D01*
X401274010Y95816589D01*
X401436525Y95573368D01*
X401643368Y95366525D01*
X401817760Y95250000D01*
X401643368Y95133475D01*
X401436525Y94926632D01*
X401274010Y94683411D01*
X401162068Y94413158D01*
X401139338Y94298887D01*
X401103676Y94416447D01*
X400998284Y94613623D01*
X400856449Y94786449D01*
X400683623Y94928284D01*
X400486447Y95033676D01*
X400272499Y95098577D01*
X400050000Y95120491D01*
X399915000Y95107195D01*
X399915000Y96575752D01*
X399898577Y96742499D01*
X399833676Y96956447D01*
X399728284Y97153623D01*
X399586449Y97326449D01*
X399413623Y97468284D01*
X399216447Y97573676D01*
X399002499Y97638577D01*
X398780000Y97660491D01*
X398557502Y97638577D01*
X398343554Y97573676D01*
X398146378Y97468284D01*
X397973552Y97326449D01*
X397831717Y97153623D01*
X397726325Y96956447D01*
X397661424Y96742499D01*
X397645001Y96575752D01*
X397645000Y92567195D01*
X397510000Y92580491D01*
X397287502Y92558577D01*
X397073554Y92493676D01*
X396876378Y92388284D01*
X396703552Y92246449D01*
X396561717Y92073623D01*
X396456325Y91876447D01*
X396391424Y91662499D01*
X396375001Y91495752D01*
X396375000Y88844249D01*
X396375001Y88844239D01*
X396375000Y83020132D01*
X396105000Y82750132D01*
X396105000Y86415752D01*
X396088577Y86582499D01*
X396023676Y86796447D01*
X395918284Y86993623D01*
X395776449Y87166449D01*
X395603623Y87308284D01*
X395406447Y87413676D01*
X395192499Y87478577D01*
X394970000Y87500491D01*
X394747502Y87478577D01*
X394533554Y87413676D01*
X394336378Y87308284D01*
X394163552Y87166449D01*
X394021717Y86993623D01*
X393916325Y86796447D01*
X393880663Y86678885D01*
X393857932Y86793158D01*
X393745990Y87063411D01*
X393583475Y87306632D01*
X393376632Y87513475D01*
X393202240Y87630000D01*
X393376632Y87746525D01*
X393583475Y87953368D01*
X393745990Y88196589D01*
X393857932Y88466842D01*
X393915000Y88753740D01*
X393915000Y89046260D01*
X393857932Y89333158D01*
X393745990Y89603411D01*
X393583475Y89846632D01*
X393376632Y90053475D01*
X393202240Y90170000D01*
X393376632Y90286525D01*
X393583475Y90493368D01*
X393745990Y90736589D01*
X393857932Y91006842D01*
X393915000Y91293740D01*
X393915000Y91586260D01*
X393857932Y91873158D01*
X393745990Y92143411D01*
X393583475Y92386632D01*
X393376632Y92593475D01*
X393202240Y92710000D01*
X393376632Y92826525D01*
X393583475Y93033368D01*
X393745990Y93276589D01*
X393857932Y93546842D01*
X393880663Y93661115D01*
X393916325Y93543553D01*
X394021717Y93346377D01*
X394163552Y93173551D01*
X394336378Y93031716D01*
X394533554Y92926324D01*
X394747502Y92861423D01*
X394970000Y92839509D01*
X395192499Y92861423D01*
X395406447Y92926324D01*
X395603623Y93031716D01*
X395776449Y93173551D01*
X395918284Y93346377D01*
X396023676Y93543553D01*
X396088577Y93757501D01*
X396105000Y93924248D01*
X396105000Y97932805D01*
X396240000Y97919509D01*
X396462499Y97941423D01*
X396676447Y98006324D01*
X396873623Y98111716D01*
X396875000Y98112846D01*
X396876377Y98111716D01*
X397073553Y98006324D01*
X397287501Y97941423D01*
X397510000Y97919509D01*
X397732498Y97941423D01*
X397946446Y98006324D01*
X398143623Y98111716D01*
X398316449Y98253551D01*
X398458284Y98426377D01*
X398563676Y98623553D01*
X398628577Y98837501D01*
X398645000Y99004248D01*
X398645000Y106735752D01*
X398628577Y106902499D01*
X398563676Y107116447D01*
X398458284Y107313623D01*
X398316449Y107486449D01*
X398143623Y107628284D01*
X397946447Y107733676D01*
X397732499Y107798577D01*
X397510000Y107820491D01*
X397287502Y107798577D01*
X397073554Y107733676D01*
X396876378Y107628284D01*
X396703552Y107486449D01*
X396561717Y107313623D01*
X396456325Y107116447D01*
X396391424Y106902499D01*
X396375001Y106735752D01*
X396375000Y102727195D01*
X396240000Y102740491D01*
X396105000Y102727195D01*
X396105000Y104195752D01*
X396088577Y104362499D01*
X396023676Y104576447D01*
X395918284Y104773623D01*
X395776449Y104946449D01*
X395603623Y105088284D01*
X395406446Y105193676D01*
X395192498Y105258577D01*
X394970000Y105280491D01*
X394747501Y105258577D01*
X394533553Y105193676D01*
X394336377Y105088284D01*
X394163551Y104946449D01*
X394021716Y104773623D01*
X393916324Y104576446D01*
X393880662Y104458886D01*
X393857932Y104573158D01*
X393745990Y104843411D01*
X393583475Y105086632D01*
X393376632Y105293475D01*
X393202240Y105410000D01*
X393376632Y105526525D01*
X393583475Y105733368D01*
X393745990Y105976589D01*
X393857932Y106246842D01*
X393915000Y106533740D01*
X393915000Y106826260D01*
X393857932Y107113158D01*
X393745990Y107383411D01*
X393583475Y107626632D01*
X393376632Y107833475D01*
X393202240Y107950000D01*
X393376632Y108066525D01*
X393583475Y108273368D01*
X393745990Y108516589D01*
X393857932Y108786842D01*
X393915000Y109073740D01*
X393915000Y109366260D01*
X393857932Y109653158D01*
X393745990Y109923411D01*
X393583475Y110166632D01*
X393376632Y110373475D01*
X393202240Y110490000D01*
X393376632Y110606525D01*
X393583475Y110813368D01*
X393745990Y111056589D01*
X393857932Y111326842D01*
X393915000Y111613740D01*
X393915000Y111906260D01*
X393857932Y112193158D01*
X393745990Y112463411D01*
X393583475Y112706632D01*
X393376632Y112913475D01*
X393133411Y113075990D01*
X392863158Y113187932D01*
X392576260Y113245000D01*
X392283740Y113245000D01*
X391996842Y113187932D01*
X391726589Y113075990D01*
X391483368Y112913475D01*
X391276525Y112706632D01*
X391114010Y112463411D01*
X391002068Y112193158D01*
X390945000Y111906260D01*
X390945000Y111613740D01*
X391002068Y111326842D01*
X391114010Y111056589D01*
X391276525Y110813368D01*
X391483368Y110606525D01*
X391657760Y110490000D01*
X391483368Y110373475D01*
X391276525Y110166632D01*
X391114010Y109923411D01*
X391002068Y109653158D01*
X390945000Y109366260D01*
X390945000Y109073740D01*
X391002068Y108786842D01*
X391114010Y108516589D01*
X391276525Y108273368D01*
X391483368Y108066525D01*
X391657760Y107950000D01*
X391483368Y107833475D01*
X391276525Y107626632D01*
X391114010Y107383411D01*
X391002068Y107113158D01*
X390945000Y106826260D01*
X390945000Y106533740D01*
X391002068Y106246842D01*
X391114010Y105976589D01*
X391276525Y105733368D01*
X391483368Y105526525D01*
X391657760Y105410000D01*
X391483368Y105293475D01*
X391276525Y105086632D01*
X391114010Y104843411D01*
X391002068Y104573158D01*
X390945000Y104286260D01*
X390945000Y103993740D01*
X391002068Y103706842D01*
X391114010Y103436589D01*
X391276525Y103193368D01*
X391483368Y102986525D01*
X391657760Y102870000D01*
X391483368Y102753475D01*
X391276525Y102546632D01*
X391114010Y102303411D01*
X391002068Y102033158D01*
X390945000Y101746260D01*
X390945000Y101453740D01*
X391002068Y101166842D01*
X391114010Y100896589D01*
X391276525Y100653368D01*
X391483368Y100446525D01*
X391657760Y100330000D01*
X391483368Y100213475D01*
X391276525Y100006632D01*
X391114010Y99763411D01*
X391002068Y99493158D01*
X390945000Y99206260D01*
X390945000Y98913740D01*
X391002068Y98626842D01*
X391114010Y98356589D01*
X391276525Y98113368D01*
X391483368Y97906525D01*
X391657760Y97790000D01*
X391483368Y97673475D01*
X391276525Y97466632D01*
X391114010Y97223411D01*
X391002068Y96953158D01*
X390945000Y96666260D01*
X390945000Y96373740D01*
X391002068Y96086842D01*
X391114010Y95816589D01*
X391276525Y95573368D01*
X391483368Y95366525D01*
X391657760Y95250000D01*
X391483368Y95133475D01*
X391276525Y94926632D01*
X391114010Y94683411D01*
X391002068Y94413158D01*
X390945000Y94126260D01*
X390945000Y93833740D01*
X391002068Y93546842D01*
X391114010Y93276589D01*
X391276525Y93033368D01*
X391483368Y92826525D01*
X391657760Y92710000D01*
X391483368Y92593475D01*
X391276525Y92386632D01*
X391114010Y92143411D01*
X391002068Y91873158D01*
X390945000Y91586260D01*
X390945000Y91293740D01*
X391002068Y91006842D01*
X391114010Y90736589D01*
X391276525Y90493368D01*
X391483368Y90286525D01*
X391657760Y90170000D01*
X391483368Y90053475D01*
X391276525Y89846632D01*
X391114010Y89603411D01*
X391002068Y89333158D01*
X390945000Y89046260D01*
X390945000Y88753740D01*
X391002068Y88466842D01*
X391114010Y88196589D01*
X391276525Y87953368D01*
X391483368Y87746525D01*
X391657760Y87630000D01*
X391483368Y87513475D01*
X391276525Y87306632D01*
X391114010Y87063411D01*
X391002068Y86793158D01*
X390945000Y86506260D01*
X390945000Y86213740D01*
X391002068Y85926842D01*
X391114010Y85656589D01*
X391276525Y85413368D01*
X391483368Y85206525D01*
X391657760Y85090000D01*
X391483368Y84973475D01*
X391276525Y84766632D01*
X391114010Y84523411D01*
X391002068Y84253158D01*
X390945000Y83966260D01*
X390945000Y83673740D01*
X391002068Y83386842D01*
X391114010Y83116589D01*
X391276525Y82873368D01*
X391483368Y82666525D01*
X391726589Y82504010D01*
X391941479Y82415000D01*
X385298521Y82415000D01*
X385513411Y82504010D01*
X385756632Y82666525D01*
X385963475Y82873368D01*
X386125990Y83116589D01*
X386237932Y83386842D01*
X386295000Y83673740D01*
X386295000Y83966260D01*
X386237932Y84253158D01*
X386125990Y84523411D01*
X385963475Y84766632D01*
X385756632Y84973475D01*
X385582240Y85090000D01*
X385756632Y85206525D01*
X385963475Y85413368D01*
X386125990Y85656589D01*
X386237932Y85926842D01*
X386295000Y86213740D01*
X386295000Y86506260D01*
X386237932Y86793158D01*
X386125990Y87063411D01*
X385963475Y87306632D01*
X385756632Y87513475D01*
X385582240Y87630000D01*
X385756632Y87746525D01*
X385963475Y87953368D01*
X386125990Y88196589D01*
X386237932Y88466842D01*
X386295000Y88753740D01*
X386295000Y89046260D01*
X386237932Y89333158D01*
X386125990Y89603411D01*
X385963475Y89846632D01*
X385756632Y90053475D01*
X385582240Y90170000D01*
X385756632Y90286525D01*
X385963475Y90493368D01*
X386125990Y90736589D01*
X386237932Y91006842D01*
X386295000Y91293740D01*
X386295000Y91586260D01*
X386237932Y91873158D01*
X386125990Y92143411D01*
X385963475Y92386632D01*
X385756632Y92593475D01*
X385582240Y92710000D01*
X385756632Y92826525D01*
X385963475Y93033368D01*
X386125990Y93276589D01*
X386237932Y93546842D01*
X386295000Y93833740D01*
X386295000Y94126260D01*
X386237932Y94413158D01*
X386125990Y94683411D01*
X385963475Y94926632D01*
X385756632Y95133475D01*
X385582240Y95250000D01*
X385756632Y95366525D01*
X385963475Y95573368D01*
X386125990Y95816589D01*
X386237932Y96086842D01*
X386295000Y96373740D01*
X386295000Y96666260D01*
X386237932Y96953158D01*
X386125990Y97223411D01*
X385963475Y97466632D01*
X385756632Y97673475D01*
X385582240Y97790000D01*
X385756632Y97906525D01*
X385963475Y98113368D01*
X386125990Y98356589D01*
X386237932Y98626842D01*
X386295000Y98913740D01*
X386295000Y99206260D01*
X386237932Y99493158D01*
X386125990Y99763411D01*
X385963475Y100006632D01*
X385756632Y100213475D01*
X385582240Y100330000D01*
X385756632Y100446525D01*
X385963475Y100653368D01*
X386125990Y100896589D01*
X386237932Y101166842D01*
X386295000Y101453740D01*
X386295000Y101746260D01*
X386237932Y102033158D01*
X386125990Y102303411D01*
X385963475Y102546632D01*
X385756632Y102753475D01*
X385582240Y102870000D01*
X385756632Y102986525D01*
X385963475Y103193368D01*
X386125990Y103436589D01*
X386237932Y103706842D01*
X386295000Y103993740D01*
X386295000Y104286260D01*
X386237932Y104573158D01*
X386125990Y104843411D01*
X385963475Y105086632D01*
X385756632Y105293475D01*
X385582240Y105410000D01*
X385756632Y105526525D01*
X385963475Y105733368D01*
X386125990Y105976589D01*
X386237932Y106246842D01*
X386295000Y106533740D01*
X386295000Y106826260D01*
X386237932Y107113158D01*
X386125990Y107383411D01*
X385963475Y107626632D01*
X385756632Y107833475D01*
X385582240Y107950000D01*
X385756632Y108066525D01*
X385963475Y108273368D01*
X386125990Y108516589D01*
X386237932Y108786842D01*
X386295000Y109073740D01*
X386295000Y109366260D01*
X386237932Y109653158D01*
X386125990Y109923411D01*
X385963475Y110166632D01*
X385756632Y110373475D01*
X385582240Y110490000D01*
X385756632Y110606525D01*
X385963475Y110813368D01*
X386125990Y111056589D01*
X386237932Y111326842D01*
X386295000Y111613740D01*
X386295000Y111906260D01*
X386237932Y112193158D01*
X386125990Y112463411D01*
X385963475Y112706632D01*
X385756632Y112913475D01*
X385513411Y113075990D01*
X385243158Y113187932D01*
X384956260Y113245000D01*
X384663740Y113245000D01*
X384376842Y113187932D01*
X384106589Y113075990D01*
X383863368Y112913475D01*
X383656525Y112706632D01*
X383494010Y112463411D01*
X383382068Y112193158D01*
X383325000Y111906260D01*
X383325000Y111613740D01*
X383382068Y111326842D01*
X383494010Y111056589D01*
X383656525Y110813368D01*
X383863368Y110606525D01*
X384037760Y110490000D01*
X383863368Y110373475D01*
X383656525Y110166632D01*
X383494010Y109923411D01*
X383382068Y109653158D01*
X383325000Y109366260D01*
X383325000Y109073740D01*
X383382068Y108786842D01*
X383494010Y108516589D01*
X383656525Y108273368D01*
X383863368Y108066525D01*
X384037760Y107950000D01*
X383863368Y107833475D01*
X383656525Y107626632D01*
X383494010Y107383411D01*
X383382068Y107113158D01*
X383325000Y106826260D01*
X383325000Y106533740D01*
X383382068Y106246842D01*
X383494010Y105976589D01*
X383656525Y105733368D01*
X383863368Y105526525D01*
X384037760Y105410000D01*
X383863368Y105293475D01*
X383656525Y105086632D01*
X383494010Y104843411D01*
X383382068Y104573158D01*
X383325000Y104286260D01*
X383325000Y103993740D01*
X383382068Y103706842D01*
X383494010Y103436589D01*
X383656525Y103193368D01*
X383863368Y102986525D01*
X384037760Y102870000D01*
X383863368Y102753475D01*
X383656525Y102546632D01*
X383494010Y102303411D01*
X383382068Y102033158D01*
X383325000Y101746260D01*
X383325000Y101453740D01*
X383382068Y101166842D01*
X383494010Y100896589D01*
X383656525Y100653368D01*
X383863368Y100446525D01*
X384037760Y100330000D01*
X383863368Y100213475D01*
X383656525Y100006632D01*
X383494010Y99763411D01*
X383382068Y99493158D01*
X383325000Y99206260D01*
X383325000Y98913740D01*
X383382068Y98626842D01*
X383494010Y98356589D01*
X383656525Y98113368D01*
X383863368Y97906525D01*
X384037760Y97790000D01*
X383863368Y97673475D01*
X383656525Y97466632D01*
X383494010Y97223411D01*
X383382068Y96953158D01*
X383325000Y96666260D01*
X383325000Y96373740D01*
X383382068Y96086842D01*
X383494010Y95816589D01*
X383656525Y95573368D01*
X383863368Y95366525D01*
X384037760Y95250000D01*
X383863368Y95133475D01*
X383656525Y94926632D01*
X383494010Y94683411D01*
X383382068Y94413158D01*
X383325000Y94126260D01*
X383325000Y93833740D01*
X383382068Y93546842D01*
X383494010Y93276589D01*
X383656525Y93033368D01*
X383863368Y92826525D01*
X384037760Y92710000D01*
X383863368Y92593475D01*
X383656525Y92386632D01*
X383494010Y92143411D01*
X383382068Y91873158D01*
X383325000Y91586260D01*
X383325000Y91293740D01*
X383382068Y91006842D01*
X383494010Y90736589D01*
X383656525Y90493368D01*
X383863368Y90286525D01*
X384037760Y90170000D01*
X383863368Y90053475D01*
X383656525Y89846632D01*
X383494010Y89603411D01*
X383382068Y89333158D01*
X383325000Y89046260D01*
X383325000Y88753740D01*
X383382068Y88466842D01*
X383494010Y88196589D01*
X383656525Y87953368D01*
X383863368Y87746525D01*
X384037760Y87630000D01*
X383863368Y87513475D01*
X383656525Y87306632D01*
X383494010Y87063411D01*
X383382068Y86793158D01*
X383325000Y86506260D01*
X383325000Y86213740D01*
X383382068Y85926842D01*
X383494010Y85656589D01*
X383656525Y85413368D01*
X383863368Y85206525D01*
X384037760Y85090000D01*
X383863368Y84973475D01*
X383656525Y84766632D01*
X383494010Y84523411D01*
X383382068Y84253158D01*
X383325000Y83966260D01*
X383325000Y83673740D01*
X383382068Y83386842D01*
X383494010Y83116589D01*
X383656525Y82873368D01*
X383863368Y82666525D01*
X384106589Y82504010D01*
X384321479Y82415000D01*
X366230132Y82415000D01*
X365625000Y83020131D01*
X365625000Y86580128D01*
X371145000Y86580128D01*
X371145000Y86139872D01*
X371230890Y85708075D01*
X371399369Y85301331D01*
X371643962Y84935271D01*
X371955271Y84623962D01*
X372321331Y84379369D01*
X372728075Y84210890D01*
X373159872Y84125000D01*
X373600128Y84125000D01*
X374031925Y84210890D01*
X374438669Y84379369D01*
X374804729Y84623962D01*
X375116038Y84935271D01*
X375360631Y85301331D01*
X375529110Y85708075D01*
X375615000Y86139872D01*
X375615000Y86580128D01*
X375529110Y87011925D01*
X375360631Y87418669D01*
X375116038Y87784729D01*
X374804729Y88096038D01*
X374438669Y88340631D01*
X374031925Y88509110D01*
X373600128Y88595000D01*
X373159872Y88595000D01*
X372728075Y88509110D01*
X372321331Y88340631D01*
X371955271Y88096038D01*
X371643962Y87784729D01*
X371399369Y87418669D01*
X371230890Y87011925D01*
X371145000Y86580128D01*
X365625000Y86580128D01*
X365625000Y100274257D01*
X365630490Y100330001D01*
X365625000Y100385745D01*
X365625000Y100385752D01*
X365608577Y100552499D01*
X365543676Y100766447D01*
X365438284Y100963623D01*
X365296449Y101136449D01*
X365253140Y101171992D01*
X364061996Y102363135D01*
X364026449Y102406449D01*
X363853623Y102548284D01*
X363656447Y102653676D01*
X363442499Y102718577D01*
X363275752Y102735000D01*
X363275751Y102735000D01*
X363220000Y102740491D01*
X363164249Y102735000D01*
X360375107Y102735000D01*
X360356632Y102753475D01*
X360182240Y102870000D01*
X360356632Y102986525D01*
X360563475Y103193368D01*
X360725990Y103436589D01*
X360837932Y103706842D01*
X360895000Y103993740D01*
X360895000Y104286260D01*
X360837932Y104573158D01*
X360725990Y104843411D01*
X360563475Y105086632D01*
X360356632Y105293475D01*
X360182240Y105410000D01*
X360356632Y105526525D01*
X360563475Y105733368D01*
X360725990Y105976589D01*
X360837932Y106246842D01*
X360895000Y106533740D01*
X360895000Y106826260D01*
X360837932Y107113158D01*
X360725990Y107383411D01*
X360563475Y107626632D01*
X360356632Y107833475D01*
X360182240Y107950000D01*
X360356632Y108066525D01*
X360563475Y108273368D01*
X360725990Y108516589D01*
X360837932Y108786842D01*
X360895000Y109073740D01*
X360895000Y109366260D01*
X360837932Y109653158D01*
X360725990Y109923411D01*
X360563475Y110166632D01*
X360356632Y110373475D01*
X360182240Y110490000D01*
X360356632Y110606525D01*
X360563475Y110813368D01*
X360725990Y111056589D01*
X360837932Y111326842D01*
X360895000Y111613740D01*
X360895000Y111906260D01*
X360837932Y112193158D01*
X360725990Y112463411D01*
X360563475Y112706632D01*
X360356632Y112913475D01*
X360182240Y113030000D01*
X360356632Y113146525D01*
X360563475Y113353368D01*
X360725990Y113596589D01*
X360837932Y113866842D01*
X360895000Y114153740D01*
X360895000Y114446260D01*
X360837932Y114733158D01*
X360725990Y115003411D01*
X360563475Y115246632D01*
X360356632Y115453475D01*
X360182240Y115570000D01*
X360356632Y115686525D01*
X360563475Y115893368D01*
X360725990Y116136589D01*
X360837932Y116406842D01*
X360895000Y116693740D01*
X360895000Y116986260D01*
X360837932Y117273158D01*
X360725990Y117543411D01*
X360563475Y117786632D01*
X360356632Y117993475D01*
X360182240Y118110000D01*
X360356632Y118226525D01*
X360563475Y118433368D01*
X360725990Y118676589D01*
X360837932Y118946842D01*
X360895000Y119233740D01*
X360895000Y119526260D01*
X360837932Y119813158D01*
X360725990Y120083411D01*
X360563475Y120326632D01*
X360356632Y120533475D01*
X360182240Y120650000D01*
X360356632Y120766525D01*
X360563475Y120973368D01*
X360725990Y121216589D01*
X360837932Y121486842D01*
X360895000Y121773740D01*
X360895000Y122066260D01*
X360837932Y122353158D01*
X360725990Y122623411D01*
X360563475Y122866632D01*
X360356632Y123073475D01*
X360182240Y123190000D01*
X360356632Y123306525D01*
X360563475Y123513368D01*
X360725990Y123756589D01*
X360837932Y124026842D01*
X360895000Y124313740D01*
X360895000Y124606260D01*
X360837932Y124893158D01*
X360725990Y125163411D01*
X360563475Y125406632D01*
X360356632Y125613475D01*
X360182240Y125730000D01*
X360356632Y125846525D01*
X360563475Y126053368D01*
X360725990Y126296589D01*
X360837932Y126566842D01*
X360895000Y126853740D01*
X360895000Y127146260D01*
X360837932Y127433158D01*
X360725990Y127703411D01*
X360563475Y127946632D01*
X360356632Y128153475D01*
X360182240Y128270000D01*
X360356632Y128386525D01*
X360563475Y128593368D01*
X360725990Y128836589D01*
X360837932Y129106842D01*
X360895000Y129393740D01*
X360895000Y129540000D01*
X364619509Y129540000D01*
X364641423Y129317501D01*
X364706324Y129103553D01*
X364811716Y128906377D01*
X364953551Y128733551D01*
X365126377Y128591716D01*
X365323553Y128486324D01*
X365537501Y128421423D01*
X365704248Y128405000D01*
X368355752Y128405000D01*
X368522499Y128421423D01*
X368736447Y128486324D01*
X368743563Y128490128D01*
X371145000Y128490128D01*
X371145000Y128049872D01*
X371230890Y127618075D01*
X371399369Y127211331D01*
X371643962Y126845271D01*
X371955271Y126533962D01*
X372321331Y126289369D01*
X372728075Y126120890D01*
X373159872Y126035000D01*
X373600128Y126035000D01*
X374031925Y126120890D01*
X374438669Y126289369D01*
X374804729Y126533962D01*
X375116038Y126845271D01*
X375317152Y127146260D01*
X383325000Y127146260D01*
X383325000Y126853740D01*
X383382068Y126566842D01*
X383494010Y126296589D01*
X383656525Y126053368D01*
X383863368Y125846525D01*
X384037760Y125730000D01*
X383863368Y125613475D01*
X383656525Y125406632D01*
X383494010Y125163411D01*
X383382068Y124893158D01*
X383325000Y124606260D01*
X383325000Y124313740D01*
X383382068Y124026842D01*
X383494010Y123756589D01*
X383656525Y123513368D01*
X383863368Y123306525D01*
X384037760Y123190000D01*
X383863368Y123073475D01*
X383656525Y122866632D01*
X383494010Y122623411D01*
X383382068Y122353158D01*
X383325000Y122066260D01*
X383325000Y121773740D01*
X383382068Y121486842D01*
X383494010Y121216589D01*
X383656525Y120973368D01*
X383863368Y120766525D01*
X384037760Y120650000D01*
X383863368Y120533475D01*
X383656525Y120326632D01*
X383494010Y120083411D01*
X383382068Y119813158D01*
X383325000Y119526260D01*
X383325000Y119233740D01*
X383382068Y118946842D01*
X383494010Y118676589D01*
X383656525Y118433368D01*
X383863368Y118226525D01*
X384037760Y118110000D01*
X383863368Y117993475D01*
X383656525Y117786632D01*
X383494010Y117543411D01*
X383382068Y117273158D01*
X383325000Y116986260D01*
X383325000Y116693740D01*
X383382068Y116406842D01*
X383494010Y116136589D01*
X383656525Y115893368D01*
X383863368Y115686525D01*
X384106589Y115524010D01*
X384376842Y115412068D01*
X384663740Y115355000D01*
X384956260Y115355000D01*
X385243158Y115412068D01*
X385513411Y115524010D01*
X385756632Y115686525D01*
X385963475Y115893368D01*
X386125990Y116136589D01*
X386237932Y116406842D01*
X386295000Y116693740D01*
X386295000Y116986260D01*
X386237932Y117273158D01*
X386125990Y117543411D01*
X385963475Y117786632D01*
X385756632Y117993475D01*
X385582240Y118110000D01*
X385756632Y118226525D01*
X385963475Y118433368D01*
X386125990Y118676589D01*
X386237932Y118946842D01*
X386295000Y119233740D01*
X386295000Y119526260D01*
X386237932Y119813158D01*
X386125990Y120083411D01*
X385963475Y120326632D01*
X385756632Y120533475D01*
X385582240Y120650000D01*
X385756632Y120766525D01*
X385963475Y120973368D01*
X386125990Y121216589D01*
X386237932Y121486842D01*
X386295000Y121773740D01*
X386295000Y122066260D01*
X386237932Y122353158D01*
X386125990Y122623411D01*
X385963475Y122866632D01*
X385756632Y123073475D01*
X385582240Y123190000D01*
X385756632Y123306525D01*
X385963475Y123513368D01*
X386125990Y123756589D01*
X386237932Y124026842D01*
X386295000Y124313740D01*
X386295000Y124606260D01*
X386237932Y124893158D01*
X386125990Y125163411D01*
X385963475Y125406632D01*
X385756632Y125613475D01*
X385582240Y125730000D01*
X385756632Y125846525D01*
X385963475Y126053368D01*
X386125990Y126296589D01*
X386237932Y126566842D01*
X386295000Y126853740D01*
X386295000Y127146260D01*
X390945000Y127146260D01*
X390945000Y126853740D01*
X391002068Y126566842D01*
X391114010Y126296589D01*
X391276525Y126053368D01*
X391483368Y125846525D01*
X391657760Y125730000D01*
X391483368Y125613475D01*
X391276525Y125406632D01*
X391114010Y125163411D01*
X391002068Y124893158D01*
X390945000Y124606260D01*
X390945000Y124313740D01*
X391002068Y124026842D01*
X391114010Y123756589D01*
X391276525Y123513368D01*
X391483368Y123306525D01*
X391657760Y123190000D01*
X391483368Y123073475D01*
X391276525Y122866632D01*
X391114010Y122623411D01*
X391002068Y122353158D01*
X390945000Y122066260D01*
X390945000Y121773740D01*
X391002068Y121486842D01*
X391114010Y121216589D01*
X391276525Y120973368D01*
X391483368Y120766525D01*
X391657760Y120650000D01*
X391483368Y120533475D01*
X391276525Y120326632D01*
X391114010Y120083411D01*
X391002068Y119813158D01*
X390945000Y119526260D01*
X390945000Y119233740D01*
X391002068Y118946842D01*
X391114010Y118676589D01*
X391276525Y118433368D01*
X391483368Y118226525D01*
X391657760Y118110000D01*
X391483368Y117993475D01*
X391276525Y117786632D01*
X391114010Y117543411D01*
X391002068Y117273158D01*
X390945000Y116986260D01*
X390945000Y116693740D01*
X391002068Y116406842D01*
X391114010Y116136589D01*
X391276525Y115893368D01*
X391483368Y115686525D01*
X391726589Y115524010D01*
X391996842Y115412068D01*
X392283740Y115355000D01*
X392576260Y115355000D01*
X392863158Y115412068D01*
X393133411Y115524010D01*
X393376632Y115686525D01*
X393480235Y115790128D01*
X396545000Y115790128D01*
X396545000Y115349872D01*
X396630890Y114918075D01*
X396799369Y114511331D01*
X397043962Y114145271D01*
X397355271Y113833962D01*
X397721331Y113589369D01*
X398128075Y113420890D01*
X398559872Y113335000D01*
X399000128Y113335000D01*
X399431925Y113420890D01*
X399838669Y113589369D01*
X400204729Y113833962D01*
X400516038Y114145271D01*
X400760631Y114511331D01*
X400929110Y114918075D01*
X401015000Y115349872D01*
X401015000Y115790128D01*
X400929110Y116221925D01*
X400760631Y116628669D01*
X400516038Y116994729D01*
X400204729Y117306038D01*
X399838669Y117550631D01*
X399431925Y117719110D01*
X399000128Y117805000D01*
X398559872Y117805000D01*
X398128075Y117719110D01*
X397721331Y117550631D01*
X397355271Y117306038D01*
X397043962Y116994729D01*
X396799369Y116628669D01*
X396630890Y116221925D01*
X396545000Y115790128D01*
X393480235Y115790128D01*
X393583475Y115893368D01*
X393745990Y116136589D01*
X393857932Y116406842D01*
X393915000Y116693740D01*
X393915000Y116986260D01*
X393857932Y117273158D01*
X393745990Y117543411D01*
X393583475Y117786632D01*
X393376632Y117993475D01*
X393202240Y118110000D01*
X393376632Y118226525D01*
X393583475Y118433368D01*
X393745990Y118676589D01*
X393857932Y118946842D01*
X393915000Y119233740D01*
X393915000Y119526260D01*
X393857932Y119813158D01*
X393745990Y120083411D01*
X393583475Y120326632D01*
X393376632Y120533475D01*
X393202240Y120650000D01*
X393376632Y120766525D01*
X393583475Y120973368D01*
X393745990Y121216589D01*
X393857932Y121486842D01*
X393915000Y121773740D01*
X393915000Y122066260D01*
X393857932Y122353158D01*
X393745990Y122623411D01*
X393583475Y122866632D01*
X393376632Y123073475D01*
X393202240Y123190000D01*
X393376632Y123306525D01*
X393583475Y123513368D01*
X393745990Y123756589D01*
X393857932Y124026842D01*
X393915000Y124313740D01*
X393915000Y124606260D01*
X401105000Y124606260D01*
X401105000Y124313740D01*
X401162068Y124026842D01*
X401274010Y123756589D01*
X401436525Y123513368D01*
X401643368Y123306525D01*
X401886589Y123144010D01*
X402156842Y123032068D01*
X402443740Y122975000D01*
X402736260Y122975000D01*
X403023158Y123032068D01*
X403293411Y123144010D01*
X403536632Y123306525D01*
X403743475Y123513368D01*
X403905990Y123756589D01*
X404017932Y124026842D01*
X404075000Y124313740D01*
X404075000Y124606260D01*
X404017932Y124893158D01*
X403905990Y125163411D01*
X403743475Y125406632D01*
X403536632Y125613475D01*
X403293411Y125775990D01*
X403023158Y125887932D01*
X402736260Y125945000D01*
X402443740Y125945000D01*
X402156842Y125887932D01*
X401886589Y125775990D01*
X401643368Y125613475D01*
X401436525Y125406632D01*
X401274010Y125163411D01*
X401162068Y124893158D01*
X401105000Y124606260D01*
X393915000Y124606260D01*
X393857932Y124893158D01*
X393745990Y125163411D01*
X393583475Y125406632D01*
X393376632Y125613475D01*
X393202240Y125730000D01*
X393376632Y125846525D01*
X393583475Y126053368D01*
X393745990Y126296589D01*
X393857932Y126566842D01*
X393915000Y126853740D01*
X393915000Y127146260D01*
X393857932Y127433158D01*
X393745990Y127703411D01*
X393583475Y127946632D01*
X393376632Y128153475D01*
X393133411Y128315990D01*
X392863158Y128427932D01*
X392576260Y128485000D01*
X392283740Y128485000D01*
X391996842Y128427932D01*
X391726589Y128315990D01*
X391483368Y128153475D01*
X391276525Y127946632D01*
X391114010Y127703411D01*
X391002068Y127433158D01*
X390945000Y127146260D01*
X386295000Y127146260D01*
X386237932Y127433158D01*
X386125990Y127703411D01*
X385963475Y127946632D01*
X385756632Y128153475D01*
X385513411Y128315990D01*
X385243158Y128427932D01*
X384956260Y128485000D01*
X384663740Y128485000D01*
X384376842Y128427932D01*
X384106589Y128315990D01*
X383863368Y128153475D01*
X383656525Y127946632D01*
X383494010Y127703411D01*
X383382068Y127433158D01*
X383325000Y127146260D01*
X375317152Y127146260D01*
X375360631Y127211331D01*
X375529110Y127618075D01*
X375615000Y128049872D01*
X375615000Y128490128D01*
X375529110Y128921925D01*
X375360631Y129328669D01*
X375116038Y129694729D01*
X374804729Y130006038D01*
X374438669Y130250631D01*
X374031925Y130419110D01*
X373600128Y130505000D01*
X373159872Y130505000D01*
X372728075Y130419110D01*
X372321331Y130250631D01*
X371955271Y130006038D01*
X371643962Y129694729D01*
X371399369Y129328669D01*
X371230890Y128921925D01*
X371145000Y128490128D01*
X368743563Y128490128D01*
X368933623Y128591716D01*
X369106449Y128733551D01*
X369248284Y128906377D01*
X369353676Y129103553D01*
X369418577Y129317501D01*
X369440491Y129540000D01*
X369418577Y129762499D01*
X369353676Y129976447D01*
X369248284Y130173623D01*
X369106449Y130346449D01*
X368933623Y130488284D01*
X368736447Y130593676D01*
X368522499Y130658577D01*
X368355752Y130675000D01*
X365704248Y130675000D01*
X365537501Y130658577D01*
X365323553Y130593676D01*
X365126377Y130488284D01*
X364953551Y130346449D01*
X364811716Y130173623D01*
X364706324Y129976447D01*
X364641423Y129762499D01*
X364619509Y129540000D01*
X360895000Y129540000D01*
X360895000Y129686260D01*
X360837932Y129973158D01*
X360725990Y130243411D01*
X360563475Y130486632D01*
X360356632Y130693475D01*
X360113411Y130855990D01*
X359843158Y130967932D01*
X359556260Y131025000D01*
X359263740Y131025000D01*
X358976842Y130967932D01*
X358706589Y130855990D01*
X358463368Y130693475D01*
X358256525Y130486632D01*
X358094010Y130243411D01*
X357982068Y129973158D01*
X357925000Y129686260D01*
X357925000Y129393740D01*
X357982068Y129106842D01*
X358094010Y128836589D01*
X358256525Y128593368D01*
X358463368Y128386525D01*
X358637760Y128270000D01*
X358463368Y128153475D01*
X358256525Y127946632D01*
X358094010Y127703411D01*
X357982068Y127433158D01*
X357925000Y127146260D01*
X357925000Y126853740D01*
X357982068Y126566842D01*
X358094010Y126296589D01*
X358256525Y126053368D01*
X358463368Y125846525D01*
X358637760Y125730000D01*
X358463368Y125613475D01*
X358256525Y125406632D01*
X358094010Y125163411D01*
X357982068Y124893158D01*
X357925000Y124606260D01*
X357925000Y124313740D01*
X357982068Y124026842D01*
X358094010Y123756589D01*
X358256525Y123513368D01*
X358463368Y123306525D01*
X358637760Y123190000D01*
X358463368Y123073475D01*
X358256525Y122866632D01*
X358094010Y122623411D01*
X357982068Y122353158D01*
X357925000Y122066260D01*
X357925000Y121773740D01*
X357982068Y121486842D01*
X358094010Y121216589D01*
X358256525Y120973368D01*
X358463368Y120766525D01*
X358637760Y120650000D01*
X358463368Y120533475D01*
X358256525Y120326632D01*
X358094010Y120083411D01*
X357982068Y119813158D01*
X357925000Y119526260D01*
X357925000Y119233740D01*
X357982068Y118946842D01*
X358094010Y118676589D01*
X358256525Y118433368D01*
X358463368Y118226525D01*
X358637760Y118110000D01*
X358463368Y117993475D01*
X358256525Y117786632D01*
X358094010Y117543411D01*
X357982068Y117273158D01*
X357925000Y116986260D01*
X357925000Y116693740D01*
X357982068Y116406842D01*
X358094010Y116136589D01*
X358256525Y115893368D01*
X358463368Y115686525D01*
X358637760Y115570000D01*
X358463368Y115453475D01*
X358256525Y115246632D01*
X358094010Y115003411D01*
X357982068Y114733158D01*
X357925000Y114446260D01*
X357925000Y114153740D01*
X357982068Y113866842D01*
X358094010Y113596589D01*
X358256525Y113353368D01*
X358463368Y113146525D01*
X358637760Y113030000D01*
X358463368Y112913475D01*
X358256525Y112706632D01*
X358094010Y112463411D01*
X357982068Y112193158D01*
X357925000Y111906260D01*
X357925000Y111613740D01*
X357982068Y111326842D01*
X358094010Y111056589D01*
X358256525Y110813368D01*
X358463368Y110606525D01*
X358637760Y110490000D01*
X358463368Y110373475D01*
X358256525Y110166632D01*
X358094010Y109923411D01*
X357982068Y109653158D01*
X357925000Y109366260D01*
X357925000Y109073740D01*
X357982068Y108786842D01*
X358094010Y108516589D01*
X358256525Y108273368D01*
X358463368Y108066525D01*
X358637760Y107950000D01*
X358463368Y107833475D01*
X358256525Y107626632D01*
X358094010Y107383411D01*
X357982068Y107113158D01*
X357925000Y106826260D01*
X357925000Y106533740D01*
X357982068Y106246842D01*
X358094010Y105976589D01*
X358256525Y105733368D01*
X358463368Y105526525D01*
X358637760Y105410000D01*
X358463368Y105293475D01*
X358256525Y105086632D01*
X358094010Y104843411D01*
X357982068Y104573158D01*
X357925000Y104286260D01*
X357925000Y103993740D01*
X357982068Y103706842D01*
X358094010Y103436589D01*
X358256525Y103193368D01*
X358463368Y102986525D01*
X358637760Y102870000D01*
X358463368Y102753475D01*
X358256525Y102546632D01*
X358094010Y102303411D01*
X357982068Y102033158D01*
X357925000Y101746260D01*
X357925000Y101453740D01*
X357982068Y101166842D01*
X358094010Y100896589D01*
X358256525Y100653368D01*
X358463368Y100446525D01*
X358637760Y100330000D01*
X358463368Y100213475D01*
X358256525Y100006632D01*
X358094010Y99763411D01*
X357982068Y99493158D01*
X357925000Y99206260D01*
X357925000Y98913740D01*
X357982068Y98626842D01*
X358094010Y98356589D01*
X358256525Y98113368D01*
X358463368Y97906525D01*
X358706589Y97744010D01*
X358976842Y97632068D01*
X359263740Y97575000D01*
X359556260Y97575000D01*
X359843158Y97632068D01*
X360113411Y97744010D01*
X360356632Y97906525D01*
X360375107Y97925000D01*
X361479869Y97925000D01*
X362085000Y97319868D01*
X362085000Y94180131D01*
X361521996Y94743135D01*
X361486449Y94786449D01*
X361313623Y94928284D01*
X361116447Y95033676D01*
X360902499Y95098577D01*
X360735752Y95115000D01*
X360735751Y95115000D01*
X360680000Y95120491D01*
X360624249Y95115000D01*
X360375107Y95115000D01*
X360356632Y95133475D01*
X360113411Y95295990D01*
X359843158Y95407932D01*
X359556260Y95465000D01*
X359263740Y95465000D01*
X358976842Y95407932D01*
X358706589Y95295990D01*
X358463368Y95133475D01*
X358256525Y94926632D01*
X358094010Y94683411D01*
X357982068Y94413158D01*
X357925000Y94126260D01*
X357925000Y93833740D01*
X357982068Y93546842D01*
X358094010Y93276589D01*
X358256525Y93033368D01*
X358463368Y92826525D01*
X358637760Y92710000D01*
X358463368Y92593475D01*
X358256525Y92386632D01*
X358094010Y92143411D01*
X357982068Y91873158D01*
X357925000Y91586260D01*
X357925000Y91293740D01*
X357982068Y91006842D01*
X358094010Y90736589D01*
X358256525Y90493368D01*
X358463368Y90286525D01*
X358637760Y90170000D01*
X358463368Y90053475D01*
X358256525Y89846632D01*
X358094010Y89603411D01*
X357982068Y89333158D01*
X357925000Y89046260D01*
X357925000Y88753740D01*
X357982068Y88466842D01*
X358094010Y88196589D01*
X358256525Y87953368D01*
X358463368Y87746525D01*
X358637760Y87630000D01*
X358463368Y87513475D01*
X358256525Y87306632D01*
X358094010Y87063411D01*
X357982068Y86793158D01*
X357925000Y86506260D01*
X357925000Y86213740D01*
X357982068Y85926842D01*
X358094010Y85656589D01*
X358256525Y85413368D01*
X358463368Y85206525D01*
X358637760Y85090000D01*
X358463368Y84973475D01*
X358256525Y84766632D01*
X358094010Y84523411D01*
X357982068Y84253158D01*
X357925000Y83966260D01*
X357925000Y83673740D01*
X357982068Y83386842D01*
X358094010Y83116589D01*
X358256525Y82873368D01*
X358463368Y82666525D01*
X358706589Y82504010D01*
X358976842Y82392068D01*
X359263740Y82335000D01*
X359556260Y82335000D01*
X359843158Y82392068D01*
X360113411Y82504010D01*
X360356632Y82666525D01*
X360563475Y82873368D01*
X360725990Y83116589D01*
X360815001Y83331480D01*
X360815001Y80065761D01*
X360809509Y80010000D01*
X360831423Y79787502D01*
X360896324Y79573554D01*
X360896325Y79573553D01*
X361001717Y79376377D01*
X361143552Y79203551D01*
X361186860Y79168009D01*
X361487869Y78867000D01*
X348107000Y78867000D01*
X348107000Y94126260D01*
X350305000Y94126260D01*
X350305000Y93833740D01*
X350362068Y93546842D01*
X350474010Y93276589D01*
X350636525Y93033368D01*
X350843368Y92826525D01*
X351017760Y92710000D01*
X350843368Y92593475D01*
X350636525Y92386632D01*
X350474010Y92143411D01*
X350362068Y91873158D01*
X350305000Y91586260D01*
X350305000Y91293740D01*
X350362068Y91006842D01*
X350474010Y90736589D01*
X350636525Y90493368D01*
X350843368Y90286525D01*
X351017760Y90170000D01*
X350843368Y90053475D01*
X350636525Y89846632D01*
X350474010Y89603411D01*
X350362068Y89333158D01*
X350305000Y89046260D01*
X350305000Y88753740D01*
X350362068Y88466842D01*
X350474010Y88196589D01*
X350636525Y87953368D01*
X350843368Y87746525D01*
X351017760Y87630000D01*
X350843368Y87513475D01*
X350636525Y87306632D01*
X350474010Y87063411D01*
X350362068Y86793158D01*
X350305000Y86506260D01*
X350305000Y86213740D01*
X350362068Y85926842D01*
X350474010Y85656589D01*
X350636525Y85413368D01*
X350843368Y85206525D01*
X351017760Y85090000D01*
X350843368Y84973475D01*
X350636525Y84766632D01*
X350474010Y84523411D01*
X350362068Y84253158D01*
X350305000Y83966260D01*
X350305000Y83673740D01*
X350362068Y83386842D01*
X350474010Y83116589D01*
X350636525Y82873368D01*
X350843368Y82666525D01*
X351086589Y82504010D01*
X351356842Y82392068D01*
X351643740Y82335000D01*
X351936260Y82335000D01*
X352223158Y82392068D01*
X352493411Y82504010D01*
X352736632Y82666525D01*
X352943475Y82873368D01*
X353105990Y83116589D01*
X353217932Y83386842D01*
X353275000Y83673740D01*
X353275000Y83966260D01*
X353217932Y84253158D01*
X353105990Y84523411D01*
X352943475Y84766632D01*
X352736632Y84973475D01*
X352562240Y85090000D01*
X352736632Y85206525D01*
X352943475Y85413368D01*
X353105990Y85656589D01*
X353217932Y85926842D01*
X353275000Y86213740D01*
X353275000Y86506260D01*
X353217932Y86793158D01*
X353105990Y87063411D01*
X352943475Y87306632D01*
X352736632Y87513475D01*
X352562240Y87630000D01*
X352736632Y87746525D01*
X352943475Y87953368D01*
X353105990Y88196589D01*
X353217932Y88466842D01*
X353275000Y88753740D01*
X353275000Y89046260D01*
X353217932Y89333158D01*
X353105990Y89603411D01*
X352943475Y89846632D01*
X352736632Y90053475D01*
X352562240Y90170000D01*
X352736632Y90286525D01*
X352943475Y90493368D01*
X353105990Y90736589D01*
X353217932Y91006842D01*
X353275000Y91293740D01*
X353275000Y91586260D01*
X353217932Y91873158D01*
X353105990Y92143411D01*
X352943475Y92386632D01*
X352736632Y92593475D01*
X352562240Y92710000D01*
X352736632Y92826525D01*
X352943475Y93033368D01*
X353105990Y93276589D01*
X353217932Y93546842D01*
X353275000Y93833740D01*
X353275000Y94126260D01*
X353217932Y94413158D01*
X353105990Y94683411D01*
X352943475Y94926632D01*
X352736632Y95133475D01*
X352493411Y95295990D01*
X352223158Y95407932D01*
X351936260Y95465000D01*
X351643740Y95465000D01*
X351356842Y95407932D01*
X351086589Y95295990D01*
X350843368Y95133475D01*
X350636525Y94926632D01*
X350474010Y94683411D01*
X350362068Y94413158D01*
X350305000Y94126260D01*
X348107000Y94126260D01*
X348107000Y130390000D01*
X350301928Y130390000D01*
X350301928Y128690000D01*
X350314188Y128565518D01*
X350350498Y128445820D01*
X350409463Y128335506D01*
X350488815Y128238815D01*
X350585506Y128159463D01*
X350695820Y128100498D01*
X350768380Y128078487D01*
X350636525Y127946632D01*
X350474010Y127703411D01*
X350362068Y127433158D01*
X350305000Y127146260D01*
X350305000Y126853740D01*
X350362068Y126566842D01*
X350474010Y126296589D01*
X350636525Y126053368D01*
X350843368Y125846525D01*
X351017760Y125730000D01*
X350843368Y125613475D01*
X350636525Y125406632D01*
X350474010Y125163411D01*
X350362068Y124893158D01*
X350305000Y124606260D01*
X350305000Y124313740D01*
X350362068Y124026842D01*
X350474010Y123756589D01*
X350636525Y123513368D01*
X350843368Y123306525D01*
X351017760Y123190000D01*
X350843368Y123073475D01*
X350636525Y122866632D01*
X350474010Y122623411D01*
X350362068Y122353158D01*
X350305000Y122066260D01*
X350305000Y121773740D01*
X350362068Y121486842D01*
X350474010Y121216589D01*
X350636525Y120973368D01*
X350843368Y120766525D01*
X351017760Y120650000D01*
X350843368Y120533475D01*
X350636525Y120326632D01*
X350474010Y120083411D01*
X350362068Y119813158D01*
X350305000Y119526260D01*
X350305000Y119233740D01*
X350362068Y118946842D01*
X350474010Y118676589D01*
X350636525Y118433368D01*
X350843368Y118226525D01*
X351017760Y118110000D01*
X350843368Y117993475D01*
X350636525Y117786632D01*
X350474010Y117543411D01*
X350362068Y117273158D01*
X350305000Y116986260D01*
X350305000Y116693740D01*
X350362068Y116406842D01*
X350474010Y116136589D01*
X350636525Y115893368D01*
X350843368Y115686525D01*
X351017760Y115570000D01*
X350843368Y115453475D01*
X350636525Y115246632D01*
X350474010Y115003411D01*
X350362068Y114733158D01*
X350305000Y114446260D01*
X350305000Y114153740D01*
X350362068Y113866842D01*
X350474010Y113596589D01*
X350636525Y113353368D01*
X350843368Y113146525D01*
X351017760Y113030000D01*
X350843368Y112913475D01*
X350636525Y112706632D01*
X350474010Y112463411D01*
X350362068Y112193158D01*
X350305000Y111906260D01*
X350305000Y111613740D01*
X350362068Y111326842D01*
X350474010Y111056589D01*
X350636525Y110813368D01*
X350843368Y110606525D01*
X351017760Y110490000D01*
X350843368Y110373475D01*
X350636525Y110166632D01*
X350474010Y109923411D01*
X350362068Y109653158D01*
X350305000Y109366260D01*
X350305000Y109073740D01*
X350362068Y108786842D01*
X350474010Y108516589D01*
X350636525Y108273368D01*
X350843368Y108066525D01*
X351017760Y107950000D01*
X350843368Y107833475D01*
X350636525Y107626632D01*
X350474010Y107383411D01*
X350362068Y107113158D01*
X350305000Y106826260D01*
X350305000Y106533740D01*
X350362068Y106246842D01*
X350474010Y105976589D01*
X350636525Y105733368D01*
X350843368Y105526525D01*
X351017760Y105410000D01*
X350843368Y105293475D01*
X350636525Y105086632D01*
X350474010Y104843411D01*
X350362068Y104573158D01*
X350305000Y104286260D01*
X350305000Y103993740D01*
X350362068Y103706842D01*
X350474010Y103436589D01*
X350636525Y103193368D01*
X350843368Y102986525D01*
X351017760Y102870000D01*
X350843368Y102753475D01*
X350636525Y102546632D01*
X350474010Y102303411D01*
X350362068Y102033158D01*
X350305000Y101746260D01*
X350305000Y101453740D01*
X350362068Y101166842D01*
X350474010Y100896589D01*
X350636525Y100653368D01*
X350843368Y100446525D01*
X351017760Y100330000D01*
X350843368Y100213475D01*
X350636525Y100006632D01*
X350474010Y99763411D01*
X350362068Y99493158D01*
X350305000Y99206260D01*
X350305000Y98913740D01*
X350362068Y98626842D01*
X350474010Y98356589D01*
X350636525Y98113368D01*
X350843368Y97906525D01*
X351086589Y97744010D01*
X351356842Y97632068D01*
X351643740Y97575000D01*
X351936260Y97575000D01*
X352223158Y97632068D01*
X352493411Y97744010D01*
X352736632Y97906525D01*
X352943475Y98113368D01*
X353105990Y98356589D01*
X353217932Y98626842D01*
X353275000Y98913740D01*
X353275000Y99206260D01*
X353217932Y99493158D01*
X353105990Y99763411D01*
X352943475Y100006632D01*
X352736632Y100213475D01*
X352562240Y100330000D01*
X352736632Y100446525D01*
X352943475Y100653368D01*
X353105990Y100896589D01*
X353217932Y101166842D01*
X353275000Y101453740D01*
X353275000Y101746260D01*
X353217932Y102033158D01*
X353105990Y102303411D01*
X352943475Y102546632D01*
X352736632Y102753475D01*
X352562240Y102870000D01*
X352736632Y102986525D01*
X352943475Y103193368D01*
X353105990Y103436589D01*
X353217932Y103706842D01*
X353275000Y103993740D01*
X353275000Y104286260D01*
X353217932Y104573158D01*
X353105990Y104843411D01*
X352943475Y105086632D01*
X352736632Y105293475D01*
X352562240Y105410000D01*
X352736632Y105526525D01*
X352943475Y105733368D01*
X353105990Y105976589D01*
X353217932Y106246842D01*
X353275000Y106533740D01*
X353275000Y106826260D01*
X353217932Y107113158D01*
X353105990Y107383411D01*
X352943475Y107626632D01*
X352736632Y107833475D01*
X352562240Y107950000D01*
X352736632Y108066525D01*
X352943475Y108273368D01*
X353105990Y108516589D01*
X353217932Y108786842D01*
X353275000Y109073740D01*
X353275000Y109366260D01*
X353217932Y109653158D01*
X353105990Y109923411D01*
X352943475Y110166632D01*
X352736632Y110373475D01*
X352562240Y110490000D01*
X352736632Y110606525D01*
X352943475Y110813368D01*
X353105990Y111056589D01*
X353217932Y111326842D01*
X353275000Y111613740D01*
X353275000Y111906260D01*
X353217932Y112193158D01*
X353105990Y112463411D01*
X352943475Y112706632D01*
X352736632Y112913475D01*
X352562240Y113030000D01*
X352736632Y113146525D01*
X352943475Y113353368D01*
X353105990Y113596589D01*
X353217932Y113866842D01*
X353275000Y114153740D01*
X353275000Y114446260D01*
X353217932Y114733158D01*
X353105990Y115003411D01*
X352943475Y115246632D01*
X352736632Y115453475D01*
X352562240Y115570000D01*
X352736632Y115686525D01*
X352943475Y115893368D01*
X353105990Y116136589D01*
X353217932Y116406842D01*
X353275000Y116693740D01*
X353275000Y116986260D01*
X353217932Y117273158D01*
X353105990Y117543411D01*
X352943475Y117786632D01*
X352736632Y117993475D01*
X352562240Y118110000D01*
X352736632Y118226525D01*
X352943475Y118433368D01*
X353105990Y118676589D01*
X353217932Y118946842D01*
X353275000Y119233740D01*
X353275000Y119526260D01*
X353217932Y119813158D01*
X353105990Y120083411D01*
X352943475Y120326632D01*
X352736632Y120533475D01*
X352562240Y120650000D01*
X352736632Y120766525D01*
X352943475Y120973368D01*
X353105990Y121216589D01*
X353217932Y121486842D01*
X353275000Y121773740D01*
X353275000Y122066260D01*
X353217932Y122353158D01*
X353105990Y122623411D01*
X352943475Y122866632D01*
X352736632Y123073475D01*
X352562240Y123190000D01*
X352736632Y123306525D01*
X352943475Y123513368D01*
X353105990Y123756589D01*
X353217932Y124026842D01*
X353275000Y124313740D01*
X353275000Y124606260D01*
X353217932Y124893158D01*
X353105990Y125163411D01*
X352943475Y125406632D01*
X352736632Y125613475D01*
X352562240Y125730000D01*
X352736632Y125846525D01*
X352943475Y126053368D01*
X353105990Y126296589D01*
X353217932Y126566842D01*
X353275000Y126853740D01*
X353275000Y127146260D01*
X353217932Y127433158D01*
X353105990Y127703411D01*
X352943475Y127946632D01*
X352811620Y128078487D01*
X352884180Y128100498D01*
X352994494Y128159463D01*
X353091185Y128238815D01*
X353170537Y128335506D01*
X353229502Y128445820D01*
X353265812Y128565518D01*
X353278072Y128690000D01*
X353278072Y130390000D01*
X353265812Y130514482D01*
X353229502Y130634180D01*
X353170537Y130744494D01*
X353091185Y130841185D01*
X352994494Y130920537D01*
X352884180Y130979502D01*
X352764482Y131015812D01*
X352640000Y131028072D01*
X350940000Y131028072D01*
X350815518Y131015812D01*
X350695820Y130979502D01*
X350585506Y130920537D01*
X350488815Y130841185D01*
X350409463Y130744494D01*
X350350498Y130634180D01*
X350314188Y130514482D01*
X350301928Y130390000D01*
X348107000Y130390000D01*
X348107000Y134493000D01*
X406273000Y134493000D01*
X406273000Y124967835D01*
%TA.AperFunction,Conductor*%
D16*
G36*
X406273000Y124967835D02*
G01*
X406242068Y124893158D01*
X406185000Y124606260D01*
X406185000Y124313740D01*
X406242068Y124026842D01*
X406273000Y123952165D01*
X406273000Y122047000D01*
X402590000Y122047000D01*
X402565224Y122044560D01*
X402541399Y122037333D01*
X402519443Y122025597D01*
X402500197Y122009803D01*
X402484403Y121990557D01*
X402472667Y121968601D01*
X402465440Y121944776D01*
X402463000Y121920000D01*
X402463000Y105625000D01*
X402443740Y105625000D01*
X402156842Y105567932D01*
X401886589Y105455990D01*
X401643368Y105293475D01*
X401436525Y105086632D01*
X401274010Y104843411D01*
X401162068Y104573158D01*
X401105000Y104286260D01*
X401105000Y103993740D01*
X401162068Y103706842D01*
X401274010Y103436589D01*
X401436525Y103193368D01*
X401643368Y102986525D01*
X401817760Y102870000D01*
X401643368Y102753475D01*
X401436525Y102546632D01*
X401274010Y102303411D01*
X401162068Y102033158D01*
X401105000Y101746260D01*
X401105000Y101453740D01*
X401162068Y101166842D01*
X401274010Y100896589D01*
X401436525Y100653368D01*
X401643368Y100446525D01*
X401817760Y100330000D01*
X401643368Y100213475D01*
X401436525Y100006632D01*
X401274010Y99763411D01*
X401162068Y99493158D01*
X401105000Y99206260D01*
X401105000Y98913740D01*
X401162068Y98626842D01*
X401274010Y98356589D01*
X401436525Y98113368D01*
X401643368Y97906525D01*
X401817760Y97790000D01*
X401643368Y97673475D01*
X401436525Y97466632D01*
X401274010Y97223411D01*
X401162068Y96953158D01*
X401105000Y96666260D01*
X401105000Y96373740D01*
X401162068Y96086842D01*
X401274010Y95816589D01*
X401436525Y95573368D01*
X401643368Y95366525D01*
X401817760Y95250000D01*
X401643368Y95133475D01*
X401436525Y94926632D01*
X401274010Y94683411D01*
X401162068Y94413158D01*
X401139338Y94298887D01*
X401103676Y94416447D01*
X400998284Y94613623D01*
X400856449Y94786449D01*
X400683623Y94928284D01*
X400486447Y95033676D01*
X400272499Y95098577D01*
X400050000Y95120491D01*
X399915000Y95107195D01*
X399915000Y96575752D01*
X399898577Y96742499D01*
X399833676Y96956447D01*
X399728284Y97153623D01*
X399586449Y97326449D01*
X399413623Y97468284D01*
X399216447Y97573676D01*
X399002499Y97638577D01*
X398780000Y97660491D01*
X398557502Y97638577D01*
X398343554Y97573676D01*
X398146378Y97468284D01*
X397973552Y97326449D01*
X397831717Y97153623D01*
X397726325Y96956447D01*
X397661424Y96742499D01*
X397645001Y96575752D01*
X397645000Y92567195D01*
X397510000Y92580491D01*
X397287502Y92558577D01*
X397073554Y92493676D01*
X396876378Y92388284D01*
X396703552Y92246449D01*
X396561717Y92073623D01*
X396456325Y91876447D01*
X396391424Y91662499D01*
X396375001Y91495752D01*
X396375000Y88844249D01*
X396375001Y88844239D01*
X396375000Y83020132D01*
X396105000Y82750132D01*
X396105000Y86415752D01*
X396088577Y86582499D01*
X396023676Y86796447D01*
X395918284Y86993623D01*
X395776449Y87166449D01*
X395603623Y87308284D01*
X395406447Y87413676D01*
X395192499Y87478577D01*
X394970000Y87500491D01*
X394747502Y87478577D01*
X394533554Y87413676D01*
X394336378Y87308284D01*
X394163552Y87166449D01*
X394021717Y86993623D01*
X393916325Y86796447D01*
X393880663Y86678885D01*
X393857932Y86793158D01*
X393745990Y87063411D01*
X393583475Y87306632D01*
X393376632Y87513475D01*
X393202240Y87630000D01*
X393376632Y87746525D01*
X393583475Y87953368D01*
X393745990Y88196589D01*
X393857932Y88466842D01*
X393915000Y88753740D01*
X393915000Y89046260D01*
X393857932Y89333158D01*
X393745990Y89603411D01*
X393583475Y89846632D01*
X393376632Y90053475D01*
X393202240Y90170000D01*
X393376632Y90286525D01*
X393583475Y90493368D01*
X393745990Y90736589D01*
X393857932Y91006842D01*
X393915000Y91293740D01*
X393915000Y91586260D01*
X393857932Y91873158D01*
X393745990Y92143411D01*
X393583475Y92386632D01*
X393376632Y92593475D01*
X393202240Y92710000D01*
X393376632Y92826525D01*
X393583475Y93033368D01*
X393745990Y93276589D01*
X393857932Y93546842D01*
X393880663Y93661115D01*
X393916325Y93543553D01*
X394021717Y93346377D01*
X394163552Y93173551D01*
X394336378Y93031716D01*
X394533554Y92926324D01*
X394747502Y92861423D01*
X394970000Y92839509D01*
X395192499Y92861423D01*
X395406447Y92926324D01*
X395603623Y93031716D01*
X395776449Y93173551D01*
X395918284Y93346377D01*
X396023676Y93543553D01*
X396088577Y93757501D01*
X396105000Y93924248D01*
X396105000Y97932805D01*
X396240000Y97919509D01*
X396462499Y97941423D01*
X396676447Y98006324D01*
X396873623Y98111716D01*
X396875000Y98112846D01*
X396876377Y98111716D01*
X397073553Y98006324D01*
X397287501Y97941423D01*
X397510000Y97919509D01*
X397732498Y97941423D01*
X397946446Y98006324D01*
X398143623Y98111716D01*
X398316449Y98253551D01*
X398458284Y98426377D01*
X398563676Y98623553D01*
X398628577Y98837501D01*
X398645000Y99004248D01*
X398645000Y106735752D01*
X398628577Y106902499D01*
X398563676Y107116447D01*
X398458284Y107313623D01*
X398316449Y107486449D01*
X398143623Y107628284D01*
X397946447Y107733676D01*
X397732499Y107798577D01*
X397510000Y107820491D01*
X397287502Y107798577D01*
X397073554Y107733676D01*
X396876378Y107628284D01*
X396703552Y107486449D01*
X396561717Y107313623D01*
X396456325Y107116447D01*
X396391424Y106902499D01*
X396375001Y106735752D01*
X396375000Y102727195D01*
X396240000Y102740491D01*
X396105000Y102727195D01*
X396105000Y104195752D01*
X396088577Y104362499D01*
X396023676Y104576447D01*
X395918284Y104773623D01*
X395776449Y104946449D01*
X395603623Y105088284D01*
X395406446Y105193676D01*
X395192498Y105258577D01*
X394970000Y105280491D01*
X394747501Y105258577D01*
X394533553Y105193676D01*
X394336377Y105088284D01*
X394163551Y104946449D01*
X394021716Y104773623D01*
X393916324Y104576446D01*
X393880662Y104458886D01*
X393857932Y104573158D01*
X393745990Y104843411D01*
X393583475Y105086632D01*
X393376632Y105293475D01*
X393202240Y105410000D01*
X393376632Y105526525D01*
X393583475Y105733368D01*
X393745990Y105976589D01*
X393857932Y106246842D01*
X393915000Y106533740D01*
X393915000Y106826260D01*
X393857932Y107113158D01*
X393745990Y107383411D01*
X393583475Y107626632D01*
X393376632Y107833475D01*
X393202240Y107950000D01*
X393376632Y108066525D01*
X393583475Y108273368D01*
X393745990Y108516589D01*
X393857932Y108786842D01*
X393915000Y109073740D01*
X393915000Y109366260D01*
X393857932Y109653158D01*
X393745990Y109923411D01*
X393583475Y110166632D01*
X393376632Y110373475D01*
X393202240Y110490000D01*
X393376632Y110606525D01*
X393583475Y110813368D01*
X393745990Y111056589D01*
X393857932Y111326842D01*
X393915000Y111613740D01*
X393915000Y111906260D01*
X393857932Y112193158D01*
X393745990Y112463411D01*
X393583475Y112706632D01*
X393376632Y112913475D01*
X393133411Y113075990D01*
X392863158Y113187932D01*
X392576260Y113245000D01*
X392283740Y113245000D01*
X391996842Y113187932D01*
X391726589Y113075990D01*
X391483368Y112913475D01*
X391276525Y112706632D01*
X391114010Y112463411D01*
X391002068Y112193158D01*
X390945000Y111906260D01*
X390945000Y111613740D01*
X391002068Y111326842D01*
X391114010Y111056589D01*
X391276525Y110813368D01*
X391483368Y110606525D01*
X391657760Y110490000D01*
X391483368Y110373475D01*
X391276525Y110166632D01*
X391114010Y109923411D01*
X391002068Y109653158D01*
X390945000Y109366260D01*
X390945000Y109073740D01*
X391002068Y108786842D01*
X391114010Y108516589D01*
X391276525Y108273368D01*
X391483368Y108066525D01*
X391657760Y107950000D01*
X391483368Y107833475D01*
X391276525Y107626632D01*
X391114010Y107383411D01*
X391002068Y107113158D01*
X390945000Y106826260D01*
X390945000Y106533740D01*
X391002068Y106246842D01*
X391114010Y105976589D01*
X391276525Y105733368D01*
X391483368Y105526525D01*
X391657760Y105410000D01*
X391483368Y105293475D01*
X391276525Y105086632D01*
X391114010Y104843411D01*
X391002068Y104573158D01*
X390945000Y104286260D01*
X390945000Y103993740D01*
X391002068Y103706842D01*
X391114010Y103436589D01*
X391276525Y103193368D01*
X391483368Y102986525D01*
X391657760Y102870000D01*
X391483368Y102753475D01*
X391276525Y102546632D01*
X391114010Y102303411D01*
X391002068Y102033158D01*
X390945000Y101746260D01*
X390945000Y101453740D01*
X391002068Y101166842D01*
X391114010Y100896589D01*
X391276525Y100653368D01*
X391483368Y100446525D01*
X391657760Y100330000D01*
X391483368Y100213475D01*
X391276525Y100006632D01*
X391114010Y99763411D01*
X391002068Y99493158D01*
X390945000Y99206260D01*
X390945000Y98913740D01*
X391002068Y98626842D01*
X391114010Y98356589D01*
X391276525Y98113368D01*
X391483368Y97906525D01*
X391657760Y97790000D01*
X391483368Y97673475D01*
X391276525Y97466632D01*
X391114010Y97223411D01*
X391002068Y96953158D01*
X390945000Y96666260D01*
X390945000Y96373740D01*
X391002068Y96086842D01*
X391114010Y95816589D01*
X391276525Y95573368D01*
X391483368Y95366525D01*
X391657760Y95250000D01*
X391483368Y95133475D01*
X391276525Y94926632D01*
X391114010Y94683411D01*
X391002068Y94413158D01*
X390945000Y94126260D01*
X390945000Y93833740D01*
X391002068Y93546842D01*
X391114010Y93276589D01*
X391276525Y93033368D01*
X391483368Y92826525D01*
X391657760Y92710000D01*
X391483368Y92593475D01*
X391276525Y92386632D01*
X391114010Y92143411D01*
X391002068Y91873158D01*
X390945000Y91586260D01*
X390945000Y91293740D01*
X391002068Y91006842D01*
X391114010Y90736589D01*
X391276525Y90493368D01*
X391483368Y90286525D01*
X391657760Y90170000D01*
X391483368Y90053475D01*
X391276525Y89846632D01*
X391114010Y89603411D01*
X391002068Y89333158D01*
X390945000Y89046260D01*
X390945000Y88753740D01*
X391002068Y88466842D01*
X391114010Y88196589D01*
X391276525Y87953368D01*
X391483368Y87746525D01*
X391657760Y87630000D01*
X391483368Y87513475D01*
X391276525Y87306632D01*
X391114010Y87063411D01*
X391002068Y86793158D01*
X390945000Y86506260D01*
X390945000Y86213740D01*
X391002068Y85926842D01*
X391114010Y85656589D01*
X391276525Y85413368D01*
X391483368Y85206525D01*
X391657760Y85090000D01*
X391483368Y84973475D01*
X391276525Y84766632D01*
X391114010Y84523411D01*
X391002068Y84253158D01*
X390945000Y83966260D01*
X390945000Y83673740D01*
X391002068Y83386842D01*
X391114010Y83116589D01*
X391276525Y82873368D01*
X391483368Y82666525D01*
X391726589Y82504010D01*
X391941479Y82415000D01*
X385298521Y82415000D01*
X385513411Y82504010D01*
X385756632Y82666525D01*
X385963475Y82873368D01*
X386125990Y83116589D01*
X386237932Y83386842D01*
X386295000Y83673740D01*
X386295000Y83966260D01*
X386237932Y84253158D01*
X386125990Y84523411D01*
X385963475Y84766632D01*
X385756632Y84973475D01*
X385582240Y85090000D01*
X385756632Y85206525D01*
X385963475Y85413368D01*
X386125990Y85656589D01*
X386237932Y85926842D01*
X386295000Y86213740D01*
X386295000Y86506260D01*
X386237932Y86793158D01*
X386125990Y87063411D01*
X385963475Y87306632D01*
X385756632Y87513475D01*
X385582240Y87630000D01*
X385756632Y87746525D01*
X385963475Y87953368D01*
X386125990Y88196589D01*
X386237932Y88466842D01*
X386295000Y88753740D01*
X386295000Y89046260D01*
X386237932Y89333158D01*
X386125990Y89603411D01*
X385963475Y89846632D01*
X385756632Y90053475D01*
X385582240Y90170000D01*
X385756632Y90286525D01*
X385963475Y90493368D01*
X386125990Y90736589D01*
X386237932Y91006842D01*
X386295000Y91293740D01*
X386295000Y91586260D01*
X386237932Y91873158D01*
X386125990Y92143411D01*
X385963475Y92386632D01*
X385756632Y92593475D01*
X385582240Y92710000D01*
X385756632Y92826525D01*
X385963475Y93033368D01*
X386125990Y93276589D01*
X386237932Y93546842D01*
X386295000Y93833740D01*
X386295000Y94126260D01*
X386237932Y94413158D01*
X386125990Y94683411D01*
X385963475Y94926632D01*
X385756632Y95133475D01*
X385582240Y95250000D01*
X385756632Y95366525D01*
X385963475Y95573368D01*
X386125990Y95816589D01*
X386237932Y96086842D01*
X386295000Y96373740D01*
X386295000Y96666260D01*
X386237932Y96953158D01*
X386125990Y97223411D01*
X385963475Y97466632D01*
X385756632Y97673475D01*
X385582240Y97790000D01*
X385756632Y97906525D01*
X385963475Y98113368D01*
X386125990Y98356589D01*
X386237932Y98626842D01*
X386295000Y98913740D01*
X386295000Y99206260D01*
X386237932Y99493158D01*
X386125990Y99763411D01*
X385963475Y100006632D01*
X385756632Y100213475D01*
X385582240Y100330000D01*
X385756632Y100446525D01*
X385963475Y100653368D01*
X386125990Y100896589D01*
X386237932Y101166842D01*
X386295000Y101453740D01*
X386295000Y101746260D01*
X386237932Y102033158D01*
X386125990Y102303411D01*
X385963475Y102546632D01*
X385756632Y102753475D01*
X385582240Y102870000D01*
X385756632Y102986525D01*
X385963475Y103193368D01*
X386125990Y103436589D01*
X386237932Y103706842D01*
X386295000Y103993740D01*
X386295000Y104286260D01*
X386237932Y104573158D01*
X386125990Y104843411D01*
X385963475Y105086632D01*
X385756632Y105293475D01*
X385582240Y105410000D01*
X385756632Y105526525D01*
X385963475Y105733368D01*
X386125990Y105976589D01*
X386237932Y106246842D01*
X386295000Y106533740D01*
X386295000Y106826260D01*
X386237932Y107113158D01*
X386125990Y107383411D01*
X385963475Y107626632D01*
X385756632Y107833475D01*
X385582240Y107950000D01*
X385756632Y108066525D01*
X385963475Y108273368D01*
X386125990Y108516589D01*
X386237932Y108786842D01*
X386295000Y109073740D01*
X386295000Y109366260D01*
X386237932Y109653158D01*
X386125990Y109923411D01*
X385963475Y110166632D01*
X385756632Y110373475D01*
X385582240Y110490000D01*
X385756632Y110606525D01*
X385963475Y110813368D01*
X386125990Y111056589D01*
X386237932Y111326842D01*
X386295000Y111613740D01*
X386295000Y111906260D01*
X386237932Y112193158D01*
X386125990Y112463411D01*
X385963475Y112706632D01*
X385756632Y112913475D01*
X385513411Y113075990D01*
X385243158Y113187932D01*
X384956260Y113245000D01*
X384663740Y113245000D01*
X384376842Y113187932D01*
X384106589Y113075990D01*
X383863368Y112913475D01*
X383656525Y112706632D01*
X383494010Y112463411D01*
X383382068Y112193158D01*
X383325000Y111906260D01*
X383325000Y111613740D01*
X383382068Y111326842D01*
X383494010Y111056589D01*
X383656525Y110813368D01*
X383863368Y110606525D01*
X384037760Y110490000D01*
X383863368Y110373475D01*
X383656525Y110166632D01*
X383494010Y109923411D01*
X383382068Y109653158D01*
X383325000Y109366260D01*
X383325000Y109073740D01*
X383382068Y108786842D01*
X383494010Y108516589D01*
X383656525Y108273368D01*
X383863368Y108066525D01*
X384037760Y107950000D01*
X383863368Y107833475D01*
X383656525Y107626632D01*
X383494010Y107383411D01*
X383382068Y107113158D01*
X383325000Y106826260D01*
X383325000Y106533740D01*
X383382068Y106246842D01*
X383494010Y105976589D01*
X383656525Y105733368D01*
X383863368Y105526525D01*
X384037760Y105410000D01*
X383863368Y105293475D01*
X383656525Y105086632D01*
X383494010Y104843411D01*
X383382068Y104573158D01*
X383325000Y104286260D01*
X383325000Y103993740D01*
X383382068Y103706842D01*
X383494010Y103436589D01*
X383656525Y103193368D01*
X383863368Y102986525D01*
X384037760Y102870000D01*
X383863368Y102753475D01*
X383656525Y102546632D01*
X383494010Y102303411D01*
X383382068Y102033158D01*
X383325000Y101746260D01*
X383325000Y101453740D01*
X383382068Y101166842D01*
X383494010Y100896589D01*
X383656525Y100653368D01*
X383863368Y100446525D01*
X384037760Y100330000D01*
X383863368Y100213475D01*
X383656525Y100006632D01*
X383494010Y99763411D01*
X383382068Y99493158D01*
X383325000Y99206260D01*
X383325000Y98913740D01*
X383382068Y98626842D01*
X383494010Y98356589D01*
X383656525Y98113368D01*
X383863368Y97906525D01*
X384037760Y97790000D01*
X383863368Y97673475D01*
X383656525Y97466632D01*
X383494010Y97223411D01*
X383382068Y96953158D01*
X383325000Y96666260D01*
X383325000Y96373740D01*
X383382068Y96086842D01*
X383494010Y95816589D01*
X383656525Y95573368D01*
X383863368Y95366525D01*
X384037760Y95250000D01*
X383863368Y95133475D01*
X383656525Y94926632D01*
X383494010Y94683411D01*
X383382068Y94413158D01*
X383325000Y94126260D01*
X383325000Y93833740D01*
X383382068Y93546842D01*
X383494010Y93276589D01*
X383656525Y93033368D01*
X383863368Y92826525D01*
X384037760Y92710000D01*
X383863368Y92593475D01*
X383656525Y92386632D01*
X383494010Y92143411D01*
X383382068Y91873158D01*
X383325000Y91586260D01*
X383325000Y91293740D01*
X383382068Y91006842D01*
X383494010Y90736589D01*
X383656525Y90493368D01*
X383863368Y90286525D01*
X384037760Y90170000D01*
X383863368Y90053475D01*
X383656525Y89846632D01*
X383494010Y89603411D01*
X383382068Y89333158D01*
X383325000Y89046260D01*
X383325000Y88753740D01*
X383382068Y88466842D01*
X383494010Y88196589D01*
X383656525Y87953368D01*
X383863368Y87746525D01*
X384037760Y87630000D01*
X383863368Y87513475D01*
X383656525Y87306632D01*
X383494010Y87063411D01*
X383382068Y86793158D01*
X383325000Y86506260D01*
X383325000Y86213740D01*
X383382068Y85926842D01*
X383494010Y85656589D01*
X383656525Y85413368D01*
X383863368Y85206525D01*
X384037760Y85090000D01*
X383863368Y84973475D01*
X383656525Y84766632D01*
X383494010Y84523411D01*
X383382068Y84253158D01*
X383325000Y83966260D01*
X383325000Y83673740D01*
X383382068Y83386842D01*
X383494010Y83116589D01*
X383656525Y82873368D01*
X383863368Y82666525D01*
X384106589Y82504010D01*
X384321479Y82415000D01*
X366230132Y82415000D01*
X365625000Y83020131D01*
X365625000Y86580128D01*
X371145000Y86580128D01*
X371145000Y86139872D01*
X371230890Y85708075D01*
X371399369Y85301331D01*
X371643962Y84935271D01*
X371955271Y84623962D01*
X372321331Y84379369D01*
X372728075Y84210890D01*
X373159872Y84125000D01*
X373600128Y84125000D01*
X374031925Y84210890D01*
X374438669Y84379369D01*
X374804729Y84623962D01*
X375116038Y84935271D01*
X375360631Y85301331D01*
X375529110Y85708075D01*
X375615000Y86139872D01*
X375615000Y86580128D01*
X375529110Y87011925D01*
X375360631Y87418669D01*
X375116038Y87784729D01*
X374804729Y88096038D01*
X374438669Y88340631D01*
X374031925Y88509110D01*
X373600128Y88595000D01*
X373159872Y88595000D01*
X372728075Y88509110D01*
X372321331Y88340631D01*
X371955271Y88096038D01*
X371643962Y87784729D01*
X371399369Y87418669D01*
X371230890Y87011925D01*
X371145000Y86580128D01*
X365625000Y86580128D01*
X365625000Y100274257D01*
X365630490Y100330001D01*
X365625000Y100385745D01*
X365625000Y100385752D01*
X365608577Y100552499D01*
X365543676Y100766447D01*
X365438284Y100963623D01*
X365296449Y101136449D01*
X365253140Y101171992D01*
X364061996Y102363135D01*
X364026449Y102406449D01*
X363853623Y102548284D01*
X363656447Y102653676D01*
X363442499Y102718577D01*
X363275752Y102735000D01*
X363275751Y102735000D01*
X363220000Y102740491D01*
X363164249Y102735000D01*
X360375107Y102735000D01*
X360356632Y102753475D01*
X360182240Y102870000D01*
X360356632Y102986525D01*
X360563475Y103193368D01*
X360725990Y103436589D01*
X360837932Y103706842D01*
X360895000Y103993740D01*
X360895000Y104286260D01*
X360837932Y104573158D01*
X360725990Y104843411D01*
X360563475Y105086632D01*
X360356632Y105293475D01*
X360182240Y105410000D01*
X360356632Y105526525D01*
X360563475Y105733368D01*
X360725990Y105976589D01*
X360837932Y106246842D01*
X360895000Y106533740D01*
X360895000Y106826260D01*
X360837932Y107113158D01*
X360725990Y107383411D01*
X360563475Y107626632D01*
X360356632Y107833475D01*
X360182240Y107950000D01*
X360356632Y108066525D01*
X360563475Y108273368D01*
X360725990Y108516589D01*
X360837932Y108786842D01*
X360895000Y109073740D01*
X360895000Y109366260D01*
X360837932Y109653158D01*
X360725990Y109923411D01*
X360563475Y110166632D01*
X360356632Y110373475D01*
X360182240Y110490000D01*
X360356632Y110606525D01*
X360563475Y110813368D01*
X360725990Y111056589D01*
X360837932Y111326842D01*
X360895000Y111613740D01*
X360895000Y111906260D01*
X360837932Y112193158D01*
X360725990Y112463411D01*
X360563475Y112706632D01*
X360356632Y112913475D01*
X360182240Y113030000D01*
X360356632Y113146525D01*
X360563475Y113353368D01*
X360725990Y113596589D01*
X360837932Y113866842D01*
X360895000Y114153740D01*
X360895000Y114446260D01*
X360837932Y114733158D01*
X360725990Y115003411D01*
X360563475Y115246632D01*
X360356632Y115453475D01*
X360182240Y115570000D01*
X360356632Y115686525D01*
X360563475Y115893368D01*
X360725990Y116136589D01*
X360837932Y116406842D01*
X360895000Y116693740D01*
X360895000Y116986260D01*
X360837932Y117273158D01*
X360725990Y117543411D01*
X360563475Y117786632D01*
X360356632Y117993475D01*
X360182240Y118110000D01*
X360356632Y118226525D01*
X360563475Y118433368D01*
X360725990Y118676589D01*
X360837932Y118946842D01*
X360895000Y119233740D01*
X360895000Y119526260D01*
X360837932Y119813158D01*
X360725990Y120083411D01*
X360563475Y120326632D01*
X360356632Y120533475D01*
X360182240Y120650000D01*
X360356632Y120766525D01*
X360563475Y120973368D01*
X360725990Y121216589D01*
X360837932Y121486842D01*
X360895000Y121773740D01*
X360895000Y122066260D01*
X360837932Y122353158D01*
X360725990Y122623411D01*
X360563475Y122866632D01*
X360356632Y123073475D01*
X360182240Y123190000D01*
X360356632Y123306525D01*
X360563475Y123513368D01*
X360725990Y123756589D01*
X360837932Y124026842D01*
X360895000Y124313740D01*
X360895000Y124606260D01*
X360837932Y124893158D01*
X360725990Y125163411D01*
X360563475Y125406632D01*
X360356632Y125613475D01*
X360182240Y125730000D01*
X360356632Y125846525D01*
X360563475Y126053368D01*
X360725990Y126296589D01*
X360837932Y126566842D01*
X360895000Y126853740D01*
X360895000Y127146260D01*
X360837932Y127433158D01*
X360725990Y127703411D01*
X360563475Y127946632D01*
X360356632Y128153475D01*
X360182240Y128270000D01*
X360356632Y128386525D01*
X360563475Y128593368D01*
X360725990Y128836589D01*
X360837932Y129106842D01*
X360895000Y129393740D01*
X360895000Y129540000D01*
X364619509Y129540000D01*
X364641423Y129317501D01*
X364706324Y129103553D01*
X364811716Y128906377D01*
X364953551Y128733551D01*
X365126377Y128591716D01*
X365323553Y128486324D01*
X365537501Y128421423D01*
X365704248Y128405000D01*
X368355752Y128405000D01*
X368522499Y128421423D01*
X368736447Y128486324D01*
X368743563Y128490128D01*
X371145000Y128490128D01*
X371145000Y128049872D01*
X371230890Y127618075D01*
X371399369Y127211331D01*
X371643962Y126845271D01*
X371955271Y126533962D01*
X372321331Y126289369D01*
X372728075Y126120890D01*
X373159872Y126035000D01*
X373600128Y126035000D01*
X374031925Y126120890D01*
X374438669Y126289369D01*
X374804729Y126533962D01*
X375116038Y126845271D01*
X375317152Y127146260D01*
X383325000Y127146260D01*
X383325000Y126853740D01*
X383382068Y126566842D01*
X383494010Y126296589D01*
X383656525Y126053368D01*
X383863368Y125846525D01*
X384037760Y125730000D01*
X383863368Y125613475D01*
X383656525Y125406632D01*
X383494010Y125163411D01*
X383382068Y124893158D01*
X383325000Y124606260D01*
X383325000Y124313740D01*
X383382068Y124026842D01*
X383494010Y123756589D01*
X383656525Y123513368D01*
X383863368Y123306525D01*
X384037760Y123190000D01*
X383863368Y123073475D01*
X383656525Y122866632D01*
X383494010Y122623411D01*
X383382068Y122353158D01*
X383325000Y122066260D01*
X383325000Y121773740D01*
X383382068Y121486842D01*
X383494010Y121216589D01*
X383656525Y120973368D01*
X383863368Y120766525D01*
X384037760Y120650000D01*
X383863368Y120533475D01*
X383656525Y120326632D01*
X383494010Y120083411D01*
X383382068Y119813158D01*
X383325000Y119526260D01*
X383325000Y119233740D01*
X383382068Y118946842D01*
X383494010Y118676589D01*
X383656525Y118433368D01*
X383863368Y118226525D01*
X384037760Y118110000D01*
X383863368Y117993475D01*
X383656525Y117786632D01*
X383494010Y117543411D01*
X383382068Y117273158D01*
X383325000Y116986260D01*
X383325000Y116693740D01*
X383382068Y116406842D01*
X383494010Y116136589D01*
X383656525Y115893368D01*
X383863368Y115686525D01*
X384106589Y115524010D01*
X384376842Y115412068D01*
X384663740Y115355000D01*
X384956260Y115355000D01*
X385243158Y115412068D01*
X385513411Y115524010D01*
X385756632Y115686525D01*
X385963475Y115893368D01*
X386125990Y116136589D01*
X386237932Y116406842D01*
X386295000Y116693740D01*
X386295000Y116986260D01*
X386237932Y117273158D01*
X386125990Y117543411D01*
X385963475Y117786632D01*
X385756632Y117993475D01*
X385582240Y118110000D01*
X385756632Y118226525D01*
X385963475Y118433368D01*
X386125990Y118676589D01*
X386237932Y118946842D01*
X386295000Y119233740D01*
X386295000Y119526260D01*
X386237932Y119813158D01*
X386125990Y120083411D01*
X385963475Y120326632D01*
X385756632Y120533475D01*
X385582240Y120650000D01*
X385756632Y120766525D01*
X385963475Y120973368D01*
X386125990Y121216589D01*
X386237932Y121486842D01*
X386295000Y121773740D01*
X386295000Y122066260D01*
X386237932Y122353158D01*
X386125990Y122623411D01*
X385963475Y122866632D01*
X385756632Y123073475D01*
X385582240Y123190000D01*
X385756632Y123306525D01*
X385963475Y123513368D01*
X386125990Y123756589D01*
X386237932Y124026842D01*
X386295000Y124313740D01*
X386295000Y124606260D01*
X386237932Y124893158D01*
X386125990Y125163411D01*
X385963475Y125406632D01*
X385756632Y125613475D01*
X385582240Y125730000D01*
X385756632Y125846525D01*
X385963475Y126053368D01*
X386125990Y126296589D01*
X386237932Y126566842D01*
X386295000Y126853740D01*
X386295000Y127146260D01*
X390945000Y127146260D01*
X390945000Y126853740D01*
X391002068Y126566842D01*
X391114010Y126296589D01*
X391276525Y126053368D01*
X391483368Y125846525D01*
X391657760Y125730000D01*
X391483368Y125613475D01*
X391276525Y125406632D01*
X391114010Y125163411D01*
X391002068Y124893158D01*
X390945000Y124606260D01*
X390945000Y124313740D01*
X391002068Y124026842D01*
X391114010Y123756589D01*
X391276525Y123513368D01*
X391483368Y123306525D01*
X391657760Y123190000D01*
X391483368Y123073475D01*
X391276525Y122866632D01*
X391114010Y122623411D01*
X391002068Y122353158D01*
X390945000Y122066260D01*
X390945000Y121773740D01*
X391002068Y121486842D01*
X391114010Y121216589D01*
X391276525Y120973368D01*
X391483368Y120766525D01*
X391657760Y120650000D01*
X391483368Y120533475D01*
X391276525Y120326632D01*
X391114010Y120083411D01*
X391002068Y119813158D01*
X390945000Y119526260D01*
X390945000Y119233740D01*
X391002068Y118946842D01*
X391114010Y118676589D01*
X391276525Y118433368D01*
X391483368Y118226525D01*
X391657760Y118110000D01*
X391483368Y117993475D01*
X391276525Y117786632D01*
X391114010Y117543411D01*
X391002068Y117273158D01*
X390945000Y116986260D01*
X390945000Y116693740D01*
X391002068Y116406842D01*
X391114010Y116136589D01*
X391276525Y115893368D01*
X391483368Y115686525D01*
X391726589Y115524010D01*
X391996842Y115412068D01*
X392283740Y115355000D01*
X392576260Y115355000D01*
X392863158Y115412068D01*
X393133411Y115524010D01*
X393376632Y115686525D01*
X393480235Y115790128D01*
X396545000Y115790128D01*
X396545000Y115349872D01*
X396630890Y114918075D01*
X396799369Y114511331D01*
X397043962Y114145271D01*
X397355271Y113833962D01*
X397721331Y113589369D01*
X398128075Y113420890D01*
X398559872Y113335000D01*
X399000128Y113335000D01*
X399431925Y113420890D01*
X399838669Y113589369D01*
X400204729Y113833962D01*
X400516038Y114145271D01*
X400760631Y114511331D01*
X400929110Y114918075D01*
X401015000Y115349872D01*
X401015000Y115790128D01*
X400929110Y116221925D01*
X400760631Y116628669D01*
X400516038Y116994729D01*
X400204729Y117306038D01*
X399838669Y117550631D01*
X399431925Y117719110D01*
X399000128Y117805000D01*
X398559872Y117805000D01*
X398128075Y117719110D01*
X397721331Y117550631D01*
X397355271Y117306038D01*
X397043962Y116994729D01*
X396799369Y116628669D01*
X396630890Y116221925D01*
X396545000Y115790128D01*
X393480235Y115790128D01*
X393583475Y115893368D01*
X393745990Y116136589D01*
X393857932Y116406842D01*
X393915000Y116693740D01*
X393915000Y116986260D01*
X393857932Y117273158D01*
X393745990Y117543411D01*
X393583475Y117786632D01*
X393376632Y117993475D01*
X393202240Y118110000D01*
X393376632Y118226525D01*
X393583475Y118433368D01*
X393745990Y118676589D01*
X393857932Y118946842D01*
X393915000Y119233740D01*
X393915000Y119526260D01*
X393857932Y119813158D01*
X393745990Y120083411D01*
X393583475Y120326632D01*
X393376632Y120533475D01*
X393202240Y120650000D01*
X393376632Y120766525D01*
X393583475Y120973368D01*
X393745990Y121216589D01*
X393857932Y121486842D01*
X393915000Y121773740D01*
X393915000Y122066260D01*
X393857932Y122353158D01*
X393745990Y122623411D01*
X393583475Y122866632D01*
X393376632Y123073475D01*
X393202240Y123190000D01*
X393376632Y123306525D01*
X393583475Y123513368D01*
X393745990Y123756589D01*
X393857932Y124026842D01*
X393915000Y124313740D01*
X393915000Y124606260D01*
X401105000Y124606260D01*
X401105000Y124313740D01*
X401162068Y124026842D01*
X401274010Y123756589D01*
X401436525Y123513368D01*
X401643368Y123306525D01*
X401886589Y123144010D01*
X402156842Y123032068D01*
X402443740Y122975000D01*
X402736260Y122975000D01*
X403023158Y123032068D01*
X403293411Y123144010D01*
X403536632Y123306525D01*
X403743475Y123513368D01*
X403905990Y123756589D01*
X404017932Y124026842D01*
X404075000Y124313740D01*
X404075000Y124606260D01*
X404017932Y124893158D01*
X403905990Y125163411D01*
X403743475Y125406632D01*
X403536632Y125613475D01*
X403293411Y125775990D01*
X403023158Y125887932D01*
X402736260Y125945000D01*
X402443740Y125945000D01*
X402156842Y125887932D01*
X401886589Y125775990D01*
X401643368Y125613475D01*
X401436525Y125406632D01*
X401274010Y125163411D01*
X401162068Y124893158D01*
X401105000Y124606260D01*
X393915000Y124606260D01*
X393857932Y124893158D01*
X393745990Y125163411D01*
X393583475Y125406632D01*
X393376632Y125613475D01*
X393202240Y125730000D01*
X393376632Y125846525D01*
X393583475Y126053368D01*
X393745990Y126296589D01*
X393857932Y126566842D01*
X393915000Y126853740D01*
X393915000Y127146260D01*
X393857932Y127433158D01*
X393745990Y127703411D01*
X393583475Y127946632D01*
X393376632Y128153475D01*
X393133411Y128315990D01*
X392863158Y128427932D01*
X392576260Y128485000D01*
X392283740Y128485000D01*
X391996842Y128427932D01*
X391726589Y128315990D01*
X391483368Y128153475D01*
X391276525Y127946632D01*
X391114010Y127703411D01*
X391002068Y127433158D01*
X390945000Y127146260D01*
X386295000Y127146260D01*
X386237932Y127433158D01*
X386125990Y127703411D01*
X385963475Y127946632D01*
X385756632Y128153475D01*
X385513411Y128315990D01*
X385243158Y128427932D01*
X384956260Y128485000D01*
X384663740Y128485000D01*
X384376842Y128427932D01*
X384106589Y128315990D01*
X383863368Y128153475D01*
X383656525Y127946632D01*
X383494010Y127703411D01*
X383382068Y127433158D01*
X383325000Y127146260D01*
X375317152Y127146260D01*
X375360631Y127211331D01*
X375529110Y127618075D01*
X375615000Y128049872D01*
X375615000Y128490128D01*
X375529110Y128921925D01*
X375360631Y129328669D01*
X375116038Y129694729D01*
X374804729Y130006038D01*
X374438669Y130250631D01*
X374031925Y130419110D01*
X373600128Y130505000D01*
X373159872Y130505000D01*
X372728075Y130419110D01*
X372321331Y130250631D01*
X371955271Y130006038D01*
X371643962Y129694729D01*
X371399369Y129328669D01*
X371230890Y128921925D01*
X371145000Y128490128D01*
X368743563Y128490128D01*
X368933623Y128591716D01*
X369106449Y128733551D01*
X369248284Y128906377D01*
X369353676Y129103553D01*
X369418577Y129317501D01*
X369440491Y129540000D01*
X369418577Y129762499D01*
X369353676Y129976447D01*
X369248284Y130173623D01*
X369106449Y130346449D01*
X368933623Y130488284D01*
X368736447Y130593676D01*
X368522499Y130658577D01*
X368355752Y130675000D01*
X365704248Y130675000D01*
X365537501Y130658577D01*
X365323553Y130593676D01*
X365126377Y130488284D01*
X364953551Y130346449D01*
X364811716Y130173623D01*
X364706324Y129976447D01*
X364641423Y129762499D01*
X364619509Y129540000D01*
X360895000Y129540000D01*
X360895000Y129686260D01*
X360837932Y129973158D01*
X360725990Y130243411D01*
X360563475Y130486632D01*
X360356632Y130693475D01*
X360113411Y130855990D01*
X359843158Y130967932D01*
X359556260Y131025000D01*
X359263740Y131025000D01*
X358976842Y130967932D01*
X358706589Y130855990D01*
X358463368Y130693475D01*
X358256525Y130486632D01*
X358094010Y130243411D01*
X357982068Y129973158D01*
X357925000Y129686260D01*
X357925000Y129393740D01*
X357982068Y129106842D01*
X358094010Y128836589D01*
X358256525Y128593368D01*
X358463368Y128386525D01*
X358637760Y128270000D01*
X358463368Y128153475D01*
X358256525Y127946632D01*
X358094010Y127703411D01*
X357982068Y127433158D01*
X357925000Y127146260D01*
X357925000Y126853740D01*
X357982068Y126566842D01*
X358094010Y126296589D01*
X358256525Y126053368D01*
X358463368Y125846525D01*
X358637760Y125730000D01*
X358463368Y125613475D01*
X358256525Y125406632D01*
X358094010Y125163411D01*
X357982068Y124893158D01*
X357925000Y124606260D01*
X357925000Y124313740D01*
X357982068Y124026842D01*
X358094010Y123756589D01*
X358256525Y123513368D01*
X358463368Y123306525D01*
X358637760Y123190000D01*
X358463368Y123073475D01*
X358256525Y122866632D01*
X358094010Y122623411D01*
X357982068Y122353158D01*
X357925000Y122066260D01*
X357925000Y121773740D01*
X357982068Y121486842D01*
X358094010Y121216589D01*
X358256525Y120973368D01*
X358463368Y120766525D01*
X358637760Y120650000D01*
X358463368Y120533475D01*
X358256525Y120326632D01*
X358094010Y120083411D01*
X357982068Y119813158D01*
X357925000Y119526260D01*
X357925000Y119233740D01*
X357982068Y118946842D01*
X358094010Y118676589D01*
X358256525Y118433368D01*
X358463368Y118226525D01*
X358637760Y118110000D01*
X358463368Y117993475D01*
X358256525Y117786632D01*
X358094010Y117543411D01*
X357982068Y117273158D01*
X357925000Y116986260D01*
X357925000Y116693740D01*
X357982068Y116406842D01*
X358094010Y116136589D01*
X358256525Y115893368D01*
X358463368Y115686525D01*
X358637760Y115570000D01*
X358463368Y115453475D01*
X358256525Y115246632D01*
X358094010Y115003411D01*
X357982068Y114733158D01*
X357925000Y114446260D01*
X357925000Y114153740D01*
X357982068Y113866842D01*
X358094010Y113596589D01*
X358256525Y113353368D01*
X358463368Y113146525D01*
X358637760Y113030000D01*
X358463368Y112913475D01*
X358256525Y112706632D01*
X358094010Y112463411D01*
X357982068Y112193158D01*
X357925000Y111906260D01*
X357925000Y111613740D01*
X357982068Y111326842D01*
X358094010Y111056589D01*
X358256525Y110813368D01*
X358463368Y110606525D01*
X358637760Y110490000D01*
X358463368Y110373475D01*
X358256525Y110166632D01*
X358094010Y109923411D01*
X357982068Y109653158D01*
X357925000Y109366260D01*
X357925000Y109073740D01*
X357982068Y108786842D01*
X358094010Y108516589D01*
X358256525Y108273368D01*
X358463368Y108066525D01*
X358637760Y107950000D01*
X358463368Y107833475D01*
X358256525Y107626632D01*
X358094010Y107383411D01*
X357982068Y107113158D01*
X357925000Y106826260D01*
X357925000Y106533740D01*
X357982068Y106246842D01*
X358094010Y105976589D01*
X358256525Y105733368D01*
X358463368Y105526525D01*
X358637760Y105410000D01*
X358463368Y105293475D01*
X358256525Y105086632D01*
X358094010Y104843411D01*
X357982068Y104573158D01*
X357925000Y104286260D01*
X357925000Y103993740D01*
X357982068Y103706842D01*
X358094010Y103436589D01*
X358256525Y103193368D01*
X358463368Y102986525D01*
X358637760Y102870000D01*
X358463368Y102753475D01*
X358256525Y102546632D01*
X358094010Y102303411D01*
X357982068Y102033158D01*
X357925000Y101746260D01*
X357925000Y101453740D01*
X357982068Y101166842D01*
X358094010Y100896589D01*
X358256525Y100653368D01*
X358463368Y100446525D01*
X358637760Y100330000D01*
X358463368Y100213475D01*
X358256525Y100006632D01*
X358094010Y99763411D01*
X357982068Y99493158D01*
X357925000Y99206260D01*
X357925000Y98913740D01*
X357982068Y98626842D01*
X358094010Y98356589D01*
X358256525Y98113368D01*
X358463368Y97906525D01*
X358706589Y97744010D01*
X358976842Y97632068D01*
X359263740Y97575000D01*
X359556260Y97575000D01*
X359843158Y97632068D01*
X360113411Y97744010D01*
X360356632Y97906525D01*
X360375107Y97925000D01*
X361479869Y97925000D01*
X362085000Y97319868D01*
X362085000Y94180131D01*
X361521996Y94743135D01*
X361486449Y94786449D01*
X361313623Y94928284D01*
X361116447Y95033676D01*
X360902499Y95098577D01*
X360735752Y95115000D01*
X360735751Y95115000D01*
X360680000Y95120491D01*
X360624249Y95115000D01*
X360375107Y95115000D01*
X360356632Y95133475D01*
X360113411Y95295990D01*
X359843158Y95407932D01*
X359556260Y95465000D01*
X359263740Y95465000D01*
X358976842Y95407932D01*
X358706589Y95295990D01*
X358463368Y95133475D01*
X358256525Y94926632D01*
X358094010Y94683411D01*
X357982068Y94413158D01*
X357925000Y94126260D01*
X357925000Y93833740D01*
X357982068Y93546842D01*
X358094010Y93276589D01*
X358256525Y93033368D01*
X358463368Y92826525D01*
X358637760Y92710000D01*
X358463368Y92593475D01*
X358256525Y92386632D01*
X358094010Y92143411D01*
X357982068Y91873158D01*
X357925000Y91586260D01*
X357925000Y91293740D01*
X357982068Y91006842D01*
X358094010Y90736589D01*
X358256525Y90493368D01*
X358463368Y90286525D01*
X358637760Y90170000D01*
X358463368Y90053475D01*
X358256525Y89846632D01*
X358094010Y89603411D01*
X357982068Y89333158D01*
X357925000Y89046260D01*
X357925000Y88753740D01*
X357982068Y88466842D01*
X358094010Y88196589D01*
X358256525Y87953368D01*
X358463368Y87746525D01*
X358637760Y87630000D01*
X358463368Y87513475D01*
X358256525Y87306632D01*
X358094010Y87063411D01*
X357982068Y86793158D01*
X357925000Y86506260D01*
X357925000Y86213740D01*
X357982068Y85926842D01*
X358094010Y85656589D01*
X358256525Y85413368D01*
X358463368Y85206525D01*
X358637760Y85090000D01*
X358463368Y84973475D01*
X358256525Y84766632D01*
X358094010Y84523411D01*
X357982068Y84253158D01*
X357925000Y83966260D01*
X357925000Y83673740D01*
X357982068Y83386842D01*
X358094010Y83116589D01*
X358256525Y82873368D01*
X358463368Y82666525D01*
X358706589Y82504010D01*
X358976842Y82392068D01*
X359263740Y82335000D01*
X359556260Y82335000D01*
X359843158Y82392068D01*
X360113411Y82504010D01*
X360356632Y82666525D01*
X360563475Y82873368D01*
X360725990Y83116589D01*
X360815001Y83331480D01*
X360815001Y80065761D01*
X360809509Y80010000D01*
X360831423Y79787502D01*
X360896324Y79573554D01*
X360896325Y79573553D01*
X361001717Y79376377D01*
X361143552Y79203551D01*
X361186860Y79168009D01*
X361487869Y78867000D01*
X348107000Y78867000D01*
X348107000Y94126260D01*
X350305000Y94126260D01*
X350305000Y93833740D01*
X350362068Y93546842D01*
X350474010Y93276589D01*
X350636525Y93033368D01*
X350843368Y92826525D01*
X351017760Y92710000D01*
X350843368Y92593475D01*
X350636525Y92386632D01*
X350474010Y92143411D01*
X350362068Y91873158D01*
X350305000Y91586260D01*
X350305000Y91293740D01*
X350362068Y91006842D01*
X350474010Y90736589D01*
X350636525Y90493368D01*
X350843368Y90286525D01*
X351017760Y90170000D01*
X350843368Y90053475D01*
X350636525Y89846632D01*
X350474010Y89603411D01*
X350362068Y89333158D01*
X350305000Y89046260D01*
X350305000Y88753740D01*
X350362068Y88466842D01*
X350474010Y88196589D01*
X350636525Y87953368D01*
X350843368Y87746525D01*
X351017760Y87630000D01*
X350843368Y87513475D01*
X350636525Y87306632D01*
X350474010Y87063411D01*
X350362068Y86793158D01*
X350305000Y86506260D01*
X350305000Y86213740D01*
X350362068Y85926842D01*
X350474010Y85656589D01*
X350636525Y85413368D01*
X350843368Y85206525D01*
X351017760Y85090000D01*
X350843368Y84973475D01*
X350636525Y84766632D01*
X350474010Y84523411D01*
X350362068Y84253158D01*
X350305000Y83966260D01*
X350305000Y83673740D01*
X350362068Y83386842D01*
X350474010Y83116589D01*
X350636525Y82873368D01*
X350843368Y82666525D01*
X351086589Y82504010D01*
X351356842Y82392068D01*
X351643740Y82335000D01*
X351936260Y82335000D01*
X352223158Y82392068D01*
X352493411Y82504010D01*
X352736632Y82666525D01*
X352943475Y82873368D01*
X353105990Y83116589D01*
X353217932Y83386842D01*
X353275000Y83673740D01*
X353275000Y83966260D01*
X353217932Y84253158D01*
X353105990Y84523411D01*
X352943475Y84766632D01*
X352736632Y84973475D01*
X352562240Y85090000D01*
X352736632Y85206525D01*
X352943475Y85413368D01*
X353105990Y85656589D01*
X353217932Y85926842D01*
X353275000Y86213740D01*
X353275000Y86506260D01*
X353217932Y86793158D01*
X353105990Y87063411D01*
X352943475Y87306632D01*
X352736632Y87513475D01*
X352562240Y87630000D01*
X352736632Y87746525D01*
X352943475Y87953368D01*
X353105990Y88196589D01*
X353217932Y88466842D01*
X353275000Y88753740D01*
X353275000Y89046260D01*
X353217932Y89333158D01*
X353105990Y89603411D01*
X352943475Y89846632D01*
X352736632Y90053475D01*
X352562240Y90170000D01*
X352736632Y90286525D01*
X352943475Y90493368D01*
X353105990Y90736589D01*
X353217932Y91006842D01*
X353275000Y91293740D01*
X353275000Y91586260D01*
X353217932Y91873158D01*
X353105990Y92143411D01*
X352943475Y92386632D01*
X352736632Y92593475D01*
X352562240Y92710000D01*
X352736632Y92826525D01*
X352943475Y93033368D01*
X353105990Y93276589D01*
X353217932Y93546842D01*
X353275000Y93833740D01*
X353275000Y94126260D01*
X353217932Y94413158D01*
X353105990Y94683411D01*
X352943475Y94926632D01*
X352736632Y95133475D01*
X352493411Y95295990D01*
X352223158Y95407932D01*
X351936260Y95465000D01*
X351643740Y95465000D01*
X351356842Y95407932D01*
X351086589Y95295990D01*
X350843368Y95133475D01*
X350636525Y94926632D01*
X350474010Y94683411D01*
X350362068Y94413158D01*
X350305000Y94126260D01*
X348107000Y94126260D01*
X348107000Y130390000D01*
X350301928Y130390000D01*
X350301928Y128690000D01*
X350314188Y128565518D01*
X350350498Y128445820D01*
X350409463Y128335506D01*
X350488815Y128238815D01*
X350585506Y128159463D01*
X350695820Y128100498D01*
X350768380Y128078487D01*
X350636525Y127946632D01*
X350474010Y127703411D01*
X350362068Y127433158D01*
X350305000Y127146260D01*
X350305000Y126853740D01*
X350362068Y126566842D01*
X350474010Y126296589D01*
X350636525Y126053368D01*
X350843368Y125846525D01*
X351017760Y125730000D01*
X350843368Y125613475D01*
X350636525Y125406632D01*
X350474010Y125163411D01*
X350362068Y124893158D01*
X350305000Y124606260D01*
X350305000Y124313740D01*
X350362068Y124026842D01*
X350474010Y123756589D01*
X350636525Y123513368D01*
X350843368Y123306525D01*
X351017760Y123190000D01*
X350843368Y123073475D01*
X350636525Y122866632D01*
X350474010Y122623411D01*
X350362068Y122353158D01*
X350305000Y122066260D01*
X350305000Y121773740D01*
X350362068Y121486842D01*
X350474010Y121216589D01*
X350636525Y120973368D01*
X350843368Y120766525D01*
X351017760Y120650000D01*
X350843368Y120533475D01*
X350636525Y120326632D01*
X350474010Y120083411D01*
X350362068Y119813158D01*
X350305000Y119526260D01*
X350305000Y119233740D01*
X350362068Y118946842D01*
X350474010Y118676589D01*
X350636525Y118433368D01*
X350843368Y118226525D01*
X351017760Y118110000D01*
X350843368Y117993475D01*
X350636525Y117786632D01*
X350474010Y117543411D01*
X350362068Y117273158D01*
X350305000Y116986260D01*
X350305000Y116693740D01*
X350362068Y116406842D01*
X350474010Y116136589D01*
X350636525Y115893368D01*
X350843368Y115686525D01*
X351017760Y115570000D01*
X350843368Y115453475D01*
X350636525Y115246632D01*
X350474010Y115003411D01*
X350362068Y114733158D01*
X350305000Y114446260D01*
X350305000Y114153740D01*
X350362068Y113866842D01*
X350474010Y113596589D01*
X350636525Y113353368D01*
X350843368Y113146525D01*
X351017760Y113030000D01*
X350843368Y112913475D01*
X350636525Y112706632D01*
X350474010Y112463411D01*
X350362068Y112193158D01*
X350305000Y111906260D01*
X350305000Y111613740D01*
X350362068Y111326842D01*
X350474010Y111056589D01*
X350636525Y110813368D01*
X350843368Y110606525D01*
X351017760Y110490000D01*
X350843368Y110373475D01*
X350636525Y110166632D01*
X350474010Y109923411D01*
X350362068Y109653158D01*
X350305000Y109366260D01*
X350305000Y109073740D01*
X350362068Y108786842D01*
X350474010Y108516589D01*
X350636525Y108273368D01*
X350843368Y108066525D01*
X351017760Y107950000D01*
X350843368Y107833475D01*
X350636525Y107626632D01*
X350474010Y107383411D01*
X350362068Y107113158D01*
X350305000Y106826260D01*
X350305000Y106533740D01*
X350362068Y106246842D01*
X350474010Y105976589D01*
X350636525Y105733368D01*
X350843368Y105526525D01*
X351017760Y105410000D01*
X350843368Y105293475D01*
X350636525Y105086632D01*
X350474010Y104843411D01*
X350362068Y104573158D01*
X350305000Y104286260D01*
X350305000Y103993740D01*
X350362068Y103706842D01*
X350474010Y103436589D01*
X350636525Y103193368D01*
X350843368Y102986525D01*
X351017760Y102870000D01*
X350843368Y102753475D01*
X350636525Y102546632D01*
X350474010Y102303411D01*
X350362068Y102033158D01*
X350305000Y101746260D01*
X350305000Y101453740D01*
X350362068Y101166842D01*
X350474010Y100896589D01*
X350636525Y100653368D01*
X350843368Y100446525D01*
X351017760Y100330000D01*
X350843368Y100213475D01*
X350636525Y100006632D01*
X350474010Y99763411D01*
X350362068Y99493158D01*
X350305000Y99206260D01*
X350305000Y98913740D01*
X350362068Y98626842D01*
X350474010Y98356589D01*
X350636525Y98113368D01*
X350843368Y97906525D01*
X351086589Y97744010D01*
X351356842Y97632068D01*
X351643740Y97575000D01*
X351936260Y97575000D01*
X352223158Y97632068D01*
X352493411Y97744010D01*
X352736632Y97906525D01*
X352943475Y98113368D01*
X353105990Y98356589D01*
X353217932Y98626842D01*
X353275000Y98913740D01*
X353275000Y99206260D01*
X353217932Y99493158D01*
X353105990Y99763411D01*
X352943475Y100006632D01*
X352736632Y100213475D01*
X352562240Y100330000D01*
X352736632Y100446525D01*
X352943475Y100653368D01*
X353105990Y100896589D01*
X353217932Y101166842D01*
X353275000Y101453740D01*
X353275000Y101746260D01*
X353217932Y102033158D01*
X353105990Y102303411D01*
X352943475Y102546632D01*
X352736632Y102753475D01*
X352562240Y102870000D01*
X352736632Y102986525D01*
X352943475Y103193368D01*
X353105990Y103436589D01*
X353217932Y103706842D01*
X353275000Y103993740D01*
X353275000Y104286260D01*
X353217932Y104573158D01*
X353105990Y104843411D01*
X352943475Y105086632D01*
X352736632Y105293475D01*
X352562240Y105410000D01*
X352736632Y105526525D01*
X352943475Y105733368D01*
X353105990Y105976589D01*
X353217932Y106246842D01*
X353275000Y106533740D01*
X353275000Y106826260D01*
X353217932Y107113158D01*
X353105990Y107383411D01*
X352943475Y107626632D01*
X352736632Y107833475D01*
X352562240Y107950000D01*
X352736632Y108066525D01*
X352943475Y108273368D01*
X353105990Y108516589D01*
X353217932Y108786842D01*
X353275000Y109073740D01*
X353275000Y109366260D01*
X353217932Y109653158D01*
X353105990Y109923411D01*
X352943475Y110166632D01*
X352736632Y110373475D01*
X352562240Y110490000D01*
X352736632Y110606525D01*
X352943475Y110813368D01*
X353105990Y111056589D01*
X353217932Y111326842D01*
X353275000Y111613740D01*
X353275000Y111906260D01*
X353217932Y112193158D01*
X353105990Y112463411D01*
X352943475Y112706632D01*
X352736632Y112913475D01*
X352562240Y113030000D01*
X352736632Y113146525D01*
X352943475Y113353368D01*
X353105990Y113596589D01*
X353217932Y113866842D01*
X353275000Y114153740D01*
X353275000Y114446260D01*
X353217932Y114733158D01*
X353105990Y115003411D01*
X352943475Y115246632D01*
X352736632Y115453475D01*
X352562240Y115570000D01*
X352736632Y115686525D01*
X352943475Y115893368D01*
X353105990Y116136589D01*
X353217932Y116406842D01*
X353275000Y116693740D01*
X353275000Y116986260D01*
X353217932Y117273158D01*
X353105990Y117543411D01*
X352943475Y117786632D01*
X352736632Y117993475D01*
X352562240Y118110000D01*
X352736632Y118226525D01*
X352943475Y118433368D01*
X353105990Y118676589D01*
X353217932Y118946842D01*
X353275000Y119233740D01*
X353275000Y119526260D01*
X353217932Y119813158D01*
X353105990Y120083411D01*
X352943475Y120326632D01*
X352736632Y120533475D01*
X352562240Y120650000D01*
X352736632Y120766525D01*
X352943475Y120973368D01*
X353105990Y121216589D01*
X353217932Y121486842D01*
X353275000Y121773740D01*
X353275000Y122066260D01*
X353217932Y122353158D01*
X353105990Y122623411D01*
X352943475Y122866632D01*
X352736632Y123073475D01*
X352562240Y123190000D01*
X352736632Y123306525D01*
X352943475Y123513368D01*
X353105990Y123756589D01*
X353217932Y124026842D01*
X353275000Y124313740D01*
X353275000Y124606260D01*
X353217932Y124893158D01*
X353105990Y125163411D01*
X352943475Y125406632D01*
X352736632Y125613475D01*
X352562240Y125730000D01*
X352736632Y125846525D01*
X352943475Y126053368D01*
X353105990Y126296589D01*
X353217932Y126566842D01*
X353275000Y126853740D01*
X353275000Y127146260D01*
X353217932Y127433158D01*
X353105990Y127703411D01*
X352943475Y127946632D01*
X352811620Y128078487D01*
X352884180Y128100498D01*
X352994494Y128159463D01*
X353091185Y128238815D01*
X353170537Y128335506D01*
X353229502Y128445820D01*
X353265812Y128565518D01*
X353278072Y128690000D01*
X353278072Y130390000D01*
X353265812Y130514482D01*
X353229502Y130634180D01*
X353170537Y130744494D01*
X353091185Y130841185D01*
X352994494Y130920537D01*
X352884180Y130979502D01*
X352764482Y131015812D01*
X352640000Y131028072D01*
X350940000Y131028072D01*
X350815518Y131015812D01*
X350695820Y130979502D01*
X350585506Y130920537D01*
X350488815Y130841185D01*
X350409463Y130744494D01*
X350350498Y130634180D01*
X350314188Y130514482D01*
X350301928Y130390000D01*
X348107000Y130390000D01*
X348107000Y134493000D01*
X406273000Y134493000D01*
X406273000Y124967835D01*
G37*
%TD.AperFunction*%
D15*
X401274010Y90736589D02*
X401436525Y90493368D01*
X401643368Y90286525D01*
X401886589Y90124010D01*
X402156842Y90012068D01*
X402443740Y89955000D01*
X402463000Y89955000D01*
X402463000Y87630000D01*
X402465440Y87605224D01*
X402472667Y87581399D01*
X402484403Y87559443D01*
X402500197Y87540197D01*
X402519443Y87524403D01*
X402541399Y87512667D01*
X402565224Y87505440D01*
X402590000Y87503000D01*
X412623000Y87503000D01*
X412623000Y78867000D01*
X400512132Y78867000D01*
X400813140Y79168008D01*
X400856449Y79203551D01*
X400998284Y79376377D01*
X401103676Y79573553D01*
X401168577Y79787501D01*
X401185000Y79954248D01*
X401185000Y79954255D01*
X401190490Y80009999D01*
X401185000Y80065743D01*
X401185000Y90951479D01*
X401274010Y90736589D01*
%TA.AperFunction,Conductor*%
D16*
G36*
X401274010Y90736589D02*
G01*
X401436525Y90493368D01*
X401643368Y90286525D01*
X401886589Y90124010D01*
X402156842Y90012068D01*
X402443740Y89955000D01*
X402463000Y89955000D01*
X402463000Y87630000D01*
X402465440Y87605224D01*
X402472667Y87581399D01*
X402484403Y87559443D01*
X402500197Y87540197D01*
X402519443Y87524403D01*
X402541399Y87512667D01*
X402565224Y87505440D01*
X402590000Y87503000D01*
X412623000Y87503000D01*
X412623000Y78867000D01*
X400512132Y78867000D01*
X400813140Y79168008D01*
X400856449Y79203551D01*
X400998284Y79376377D01*
X401103676Y79573553D01*
X401168577Y79787501D01*
X401185000Y79954248D01*
X401185000Y79954255D01*
X401190490Y80009999D01*
X401185000Y80065743D01*
X401185000Y90951479D01*
X401274010Y90736589D01*
G37*
%TD.AperFunction*%
%TD*%
D15*
%TO.N,SERVO_GND*%
X412623000Y89027000D02*
X403987000Y89027000D01*
X403987000Y90482893D01*
X404183368Y90286525D01*
X404426589Y90124010D01*
X404696842Y90012068D01*
X404983740Y89955000D01*
X405276260Y89955000D01*
X405563158Y90012068D01*
X405833411Y90124010D01*
X406076632Y90286525D01*
X406283475Y90493368D01*
X406445990Y90736589D01*
X406557932Y91006842D01*
X406615000Y91293740D01*
X406615000Y91586260D01*
X406557932Y91873158D01*
X406445990Y92143411D01*
X406283475Y92386632D01*
X406076632Y92593475D01*
X405902240Y92710000D01*
X406076632Y92826525D01*
X406283475Y93033368D01*
X406445990Y93276589D01*
X406557932Y93546842D01*
X406615000Y93833740D01*
X406615000Y94126260D01*
X406557932Y94413158D01*
X406445990Y94683411D01*
X406283475Y94926632D01*
X406076632Y95133475D01*
X405902240Y95250000D01*
X406076632Y95366525D01*
X406283475Y95573368D01*
X406445990Y95816589D01*
X406557932Y96086842D01*
X406615000Y96373740D01*
X406615000Y96666260D01*
X406557932Y96953158D01*
X406445990Y97223411D01*
X406283475Y97466632D01*
X406076632Y97673475D01*
X405902240Y97790000D01*
X406076632Y97906525D01*
X406283475Y98113368D01*
X406445990Y98356589D01*
X406557932Y98626842D01*
X406615000Y98913740D01*
X406615000Y99206260D01*
X406557932Y99493158D01*
X406445990Y99763411D01*
X406283475Y100006632D01*
X406076632Y100213475D01*
X405902240Y100330000D01*
X406076632Y100446525D01*
X406283475Y100653368D01*
X406445990Y100896589D01*
X406557932Y101166842D01*
X406615000Y101453740D01*
X406615000Y101746260D01*
X406557932Y102033158D01*
X406445990Y102303411D01*
X406283475Y102546632D01*
X406076632Y102753475D01*
X405902240Y102870000D01*
X406076632Y102986525D01*
X406283475Y103193368D01*
X406445990Y103436589D01*
X406557932Y103706842D01*
X406615000Y103993740D01*
X406615000Y104286260D01*
X406557932Y104573158D01*
X406445990Y104843411D01*
X406283475Y105086632D01*
X406076632Y105293475D01*
X405833411Y105455990D01*
X405563158Y105567932D01*
X405276260Y105625000D01*
X404983740Y105625000D01*
X404696842Y105567932D01*
X404426589Y105455990D01*
X404183368Y105293475D01*
X403987000Y105097107D01*
X403987000Y120523000D01*
X407670000Y120523000D01*
X407694776Y120525440D01*
X407718601Y120532667D01*
X407740557Y120544403D01*
X407759803Y120560197D01*
X407775597Y120579443D01*
X407787333Y120601399D01*
X407794560Y120625224D01*
X407797000Y120650000D01*
X407797000Y122975000D01*
X407816260Y122975000D01*
X408103158Y123032068D01*
X408373411Y123144010D01*
X408616632Y123306525D01*
X408823475Y123513368D01*
X408985990Y123756589D01*
X409097932Y124026842D01*
X409155000Y124313740D01*
X409155000Y124606260D01*
X409097932Y124893158D01*
X408985990Y125163411D01*
X408823475Y125406632D01*
X408616632Y125613475D01*
X408373411Y125775990D01*
X408103158Y125887932D01*
X407816260Y125945000D01*
X407797000Y125945000D01*
X407797000Y134493000D01*
X412623000Y134493000D01*
X412623000Y89027000D01*
%TA.AperFunction,Conductor*%
D16*
G36*
X412623000Y89027000D02*
G01*
X403987000Y89027000D01*
X403987000Y90482893D01*
X404183368Y90286525D01*
X404426589Y90124010D01*
X404696842Y90012068D01*
X404983740Y89955000D01*
X405276260Y89955000D01*
X405563158Y90012068D01*
X405833411Y90124010D01*
X406076632Y90286525D01*
X406283475Y90493368D01*
X406445990Y90736589D01*
X406557932Y91006842D01*
X406615000Y91293740D01*
X406615000Y91586260D01*
X406557932Y91873158D01*
X406445990Y92143411D01*
X406283475Y92386632D01*
X406076632Y92593475D01*
X405902240Y92710000D01*
X406076632Y92826525D01*
X406283475Y93033368D01*
X406445990Y93276589D01*
X406557932Y93546842D01*
X406615000Y93833740D01*
X406615000Y94126260D01*
X406557932Y94413158D01*
X406445990Y94683411D01*
X406283475Y94926632D01*
X406076632Y95133475D01*
X405902240Y95250000D01*
X406076632Y95366525D01*
X406283475Y95573368D01*
X406445990Y95816589D01*
X406557932Y96086842D01*
X406615000Y96373740D01*
X406615000Y96666260D01*
X406557932Y96953158D01*
X406445990Y97223411D01*
X406283475Y97466632D01*
X406076632Y97673475D01*
X405902240Y97790000D01*
X406076632Y97906525D01*
X406283475Y98113368D01*
X406445990Y98356589D01*
X406557932Y98626842D01*
X406615000Y98913740D01*
X406615000Y99206260D01*
X406557932Y99493158D01*
X406445990Y99763411D01*
X406283475Y100006632D01*
X406076632Y100213475D01*
X405902240Y100330000D01*
X406076632Y100446525D01*
X406283475Y100653368D01*
X406445990Y100896589D01*
X406557932Y101166842D01*
X406615000Y101453740D01*
X406615000Y101746260D01*
X406557932Y102033158D01*
X406445990Y102303411D01*
X406283475Y102546632D01*
X406076632Y102753475D01*
X405902240Y102870000D01*
X406076632Y102986525D01*
X406283475Y103193368D01*
X406445990Y103436589D01*
X406557932Y103706842D01*
X406615000Y103993740D01*
X406615000Y104286260D01*
X406557932Y104573158D01*
X406445990Y104843411D01*
X406283475Y105086632D01*
X406076632Y105293475D01*
X405833411Y105455990D01*
X405563158Y105567932D01*
X405276260Y105625000D01*
X404983740Y105625000D01*
X404696842Y105567932D01*
X404426589Y105455990D01*
X404183368Y105293475D01*
X403987000Y105097107D01*
X403987000Y120523000D01*
X407670000Y120523000D01*
X407694776Y120525440D01*
X407718601Y120532667D01*
X407740557Y120544403D01*
X407759803Y120560197D01*
X407775597Y120579443D01*
X407787333Y120601399D01*
X407794560Y120625224D01*
X407797000Y120650000D01*
X407797000Y122975000D01*
X407816260Y122975000D01*
X408103158Y123032068D01*
X408373411Y123144010D01*
X408616632Y123306525D01*
X408823475Y123513368D01*
X408985990Y123756589D01*
X409097932Y124026842D01*
X409155000Y124313740D01*
X409155000Y124606260D01*
X409097932Y124893158D01*
X408985990Y125163411D01*
X408823475Y125406632D01*
X408616632Y125613475D01*
X408373411Y125775990D01*
X408103158Y125887932D01*
X407816260Y125945000D01*
X407797000Y125945000D01*
X407797000Y134493000D01*
X412623000Y134493000D01*
X412623000Y89027000D01*
G37*
%TD.AperFunction*%
%TD*%
M02*
