%TF.GenerationSoftware,KiCad,Pcbnew,5.1.10-88a1d61d58~90~ubuntu20.04.1*%
%TF.CreationDate,2021-09-12T18:51:28+00:00*%
%TF.ProjectId,WifiServoBridge,57696669-5365-4727-966f-427269646765,rev?*%
%TF.SameCoordinates,Original*%
%TF.FileFunction,Legend,Top*%
%TF.FilePolarity,Positive*%
%FSLAX46Y46*%
G04 Gerber Fmt 4.6, Leading zero omitted, Abs format (unit mm)*
G04 Created by KiCad (PCBNEW 5.1.10-88a1d61d58~90~ubuntu20.04.1) date 2021-09-12 18:51:28*
%MOMM*%
%LPD*%
G01*
G04 APERTURE LIST*
%ADD10C,0.150000*%
%ADD11C,0.120000*%
%ADD12C,0.010000*%
G04 APERTURE END LIST*
D10*
X372978690Y96881904D02*
X373016785Y96920000D01*
X373092976Y96958095D01*
X373283452Y96958095D01*
X373359642Y96920000D01*
X373397738Y96881904D01*
X373435833Y96805714D01*
X373435833Y96729523D01*
X373397738Y96615238D01*
X372940595Y96158095D01*
X373435833Y96158095D01*
X373931071Y96958095D02*
X374007261Y96958095D01*
X374083452Y96920000D01*
X374121547Y96881904D01*
X374159642Y96805714D01*
X374197738Y96653333D01*
X374197738Y96462857D01*
X374159642Y96310476D01*
X374121547Y96234285D01*
X374083452Y96196190D01*
X374007261Y96158095D01*
X373931071Y96158095D01*
X373854880Y96196190D01*
X373816785Y96234285D01*
X373778690Y96310476D01*
X373740595Y96462857D01*
X373740595Y96653333D01*
X373778690Y96805714D01*
X373816785Y96881904D01*
X373854880Y96920000D01*
X373931071Y96958095D01*
X374502500Y96881904D02*
X374540595Y96920000D01*
X374616785Y96958095D01*
X374807261Y96958095D01*
X374883452Y96920000D01*
X374921547Y96881904D01*
X374959642Y96805714D01*
X374959642Y96729523D01*
X374921547Y96615238D01*
X374464404Y96158095D01*
X374959642Y96158095D01*
X375721547Y96158095D02*
X375264404Y96158095D01*
X375492976Y96158095D02*
X375492976Y96958095D01*
X375416785Y96843809D01*
X375340595Y96767619D01*
X375264404Y96729523D01*
X376064404Y96462857D02*
X376673928Y96462857D01*
X377207261Y96958095D02*
X377283452Y96958095D01*
X377359642Y96920000D01*
X377397738Y96881904D01*
X377435833Y96805714D01*
X377473928Y96653333D01*
X377473928Y96462857D01*
X377435833Y96310476D01*
X377397738Y96234285D01*
X377359642Y96196190D01*
X377283452Y96158095D01*
X377207261Y96158095D01*
X377131071Y96196190D01*
X377092976Y96234285D01*
X377054880Y96310476D01*
X377016785Y96462857D01*
X377016785Y96653333D01*
X377054880Y96805714D01*
X377092976Y96881904D01*
X377131071Y96920000D01*
X377207261Y96958095D01*
X377854880Y96158095D02*
X378007261Y96158095D01*
X378083452Y96196190D01*
X378121547Y96234285D01*
X378197738Y96348571D01*
X378235833Y96500952D01*
X378235833Y96805714D01*
X378197738Y96881904D01*
X378159642Y96920000D01*
X378083452Y96958095D01*
X377931071Y96958095D01*
X377854880Y96920000D01*
X377816785Y96881904D01*
X377778690Y96805714D01*
X377778690Y96615238D01*
X377816785Y96539047D01*
X377854880Y96500952D01*
X377931071Y96462857D01*
X378083452Y96462857D01*
X378159642Y96500952D01*
X378197738Y96539047D01*
X378235833Y96615238D01*
X378578690Y96462857D02*
X379188214Y96462857D01*
X379988214Y96158095D02*
X379531071Y96158095D01*
X379759642Y96158095D02*
X379759642Y96958095D01*
X379683452Y96843809D01*
X379607261Y96767619D01*
X379531071Y96729523D01*
X380483452Y96958095D02*
X380559642Y96958095D01*
X380635833Y96920000D01*
X380673928Y96881904D01*
X380712023Y96805714D01*
X380750119Y96653333D01*
X380750119Y96462857D01*
X380712023Y96310476D01*
X380673928Y96234285D01*
X380635833Y96196190D01*
X380559642Y96158095D01*
X380483452Y96158095D01*
X380407261Y96196190D01*
X380369166Y96234285D01*
X380331071Y96310476D01*
X380292976Y96462857D01*
X380292976Y96653333D01*
X380331071Y96805714D01*
X380369166Y96881904D01*
X380407261Y96920000D01*
X380483452Y96958095D01*
X373092976Y95688095D02*
X373092976Y95116666D01*
X373054880Y95002380D01*
X372978690Y94926190D01*
X372864404Y94888095D01*
X372788214Y94888095D01*
X373854880Y94888095D02*
X373473928Y94888095D01*
X373473928Y95688095D01*
X374578690Y94964285D02*
X374540595Y94926190D01*
X374426309Y94888095D01*
X374350119Y94888095D01*
X374235833Y94926190D01*
X374159642Y95002380D01*
X374121547Y95078571D01*
X374083452Y95230952D01*
X374083452Y95345238D01*
X374121547Y95497619D01*
X374159642Y95573809D01*
X374235833Y95650000D01*
X374350119Y95688095D01*
X374426309Y95688095D01*
X374540595Y95650000D01*
X374578690Y95611904D01*
X375150119Y95688095D02*
X375150119Y95116666D01*
X375112023Y95002380D01*
X375035833Y94926190D01*
X374921547Y94888095D01*
X374845357Y94888095D01*
X375912023Y94888095D02*
X375531071Y94888095D01*
X375531071Y95688095D01*
X376635833Y94964285D02*
X376597738Y94926190D01*
X376483452Y94888095D01*
X376407261Y94888095D01*
X376292976Y94926190D01*
X376216785Y95002380D01*
X376178690Y95078571D01*
X376140595Y95230952D01*
X376140595Y95345238D01*
X376178690Y95497619D01*
X376216785Y95573809D01*
X376292976Y95650000D01*
X376407261Y95688095D01*
X376483452Y95688095D01*
X376597738Y95650000D01*
X376635833Y95611904D01*
X377207261Y95688095D02*
X377207261Y95116666D01*
X377169166Y95002380D01*
X377092976Y94926190D01*
X376978690Y94888095D01*
X376902500Y94888095D01*
X377969166Y94888095D02*
X377588214Y94888095D01*
X377588214Y95688095D01*
X378692976Y94964285D02*
X378654880Y94926190D01*
X378540595Y94888095D01*
X378464404Y94888095D01*
X378350119Y94926190D01*
X378273928Y95002380D01*
X378235833Y95078571D01*
X378197738Y95230952D01*
X378197738Y95345238D01*
X378235833Y95497619D01*
X378273928Y95573809D01*
X378350119Y95650000D01*
X378464404Y95688095D01*
X378540595Y95688095D01*
X378654880Y95650000D01*
X378692976Y95611904D01*
X379264404Y95688095D02*
X379264404Y95116666D01*
X379226309Y95002380D01*
X379150119Y94926190D01*
X379035833Y94888095D01*
X378959642Y94888095D01*
X380026309Y94888095D02*
X379645357Y94888095D01*
X379645357Y95688095D01*
X380750119Y94964285D02*
X380712023Y94926190D01*
X380597738Y94888095D01*
X380521547Y94888095D01*
X380407261Y94926190D01*
X380331071Y95002380D01*
X380292976Y95078571D01*
X380254880Y95230952D01*
X380254880Y95345238D01*
X380292976Y95497619D01*
X380331071Y95573809D01*
X380407261Y95650000D01*
X380521547Y95688095D01*
X380597738Y95688095D01*
X380712023Y95650000D01*
X380750119Y95611904D01*
X388002023Y83458095D02*
X388002023Y84258095D01*
X388535357Y84258095D02*
X388687738Y84258095D01*
X388763928Y84220000D01*
X388840119Y84143809D01*
X388878214Y83991428D01*
X388878214Y83724761D01*
X388840119Y83572380D01*
X388763928Y83496190D01*
X388687738Y83458095D01*
X388535357Y83458095D01*
X388459166Y83496190D01*
X388382976Y83572380D01*
X388344880Y83724761D01*
X388344880Y83991428D01*
X388382976Y84143809D01*
X388459166Y84220000D01*
X388535357Y84258095D01*
X389563928Y84258095D02*
X389411547Y84258095D01*
X389335357Y84220000D01*
X389297261Y84181904D01*
X389221071Y84067619D01*
X389182976Y83915238D01*
X389182976Y83610476D01*
X389221071Y83534285D01*
X389259166Y83496190D01*
X389335357Y83458095D01*
X389487738Y83458095D01*
X389563928Y83496190D01*
X389602023Y83534285D01*
X389640119Y83610476D01*
X389640119Y83800952D01*
X389602023Y83877142D01*
X389563928Y83915238D01*
X389487738Y83953333D01*
X389335357Y83953333D01*
X389259166Y83915238D01*
X389221071Y83877142D01*
X389182976Y83800952D01*
X388002023Y85998095D02*
X388002023Y86798095D01*
X388535357Y86798095D02*
X388687738Y86798095D01*
X388763928Y86760000D01*
X388840119Y86683809D01*
X388878214Y86531428D01*
X388878214Y86264761D01*
X388840119Y86112380D01*
X388763928Y86036190D01*
X388687738Y85998095D01*
X388535357Y85998095D01*
X388459166Y86036190D01*
X388382976Y86112380D01*
X388344880Y86264761D01*
X388344880Y86531428D01*
X388382976Y86683809D01*
X388459166Y86760000D01*
X388535357Y86798095D01*
X389144880Y86798095D02*
X389678214Y86798095D01*
X389335357Y85998095D01*
X388002023Y88538095D02*
X388002023Y89338095D01*
X388535357Y89338095D02*
X388687738Y89338095D01*
X388763928Y89300000D01*
X388840119Y89223809D01*
X388878214Y89071428D01*
X388878214Y88804761D01*
X388840119Y88652380D01*
X388763928Y88576190D01*
X388687738Y88538095D01*
X388535357Y88538095D01*
X388459166Y88576190D01*
X388382976Y88652380D01*
X388344880Y88804761D01*
X388344880Y89071428D01*
X388382976Y89223809D01*
X388459166Y89300000D01*
X388535357Y89338095D01*
X389335357Y88995238D02*
X389259166Y89033333D01*
X389221071Y89071428D01*
X389182976Y89147619D01*
X389182976Y89185714D01*
X389221071Y89261904D01*
X389259166Y89300000D01*
X389335357Y89338095D01*
X389487738Y89338095D01*
X389563928Y89300000D01*
X389602023Y89261904D01*
X389640119Y89185714D01*
X389640119Y89147619D01*
X389602023Y89071428D01*
X389563928Y89033333D01*
X389487738Y88995238D01*
X389335357Y88995238D01*
X389259166Y88957142D01*
X389221071Y88919047D01*
X389182976Y88842857D01*
X389182976Y88690476D01*
X389221071Y88614285D01*
X389259166Y88576190D01*
X389335357Y88538095D01*
X389487738Y88538095D01*
X389563928Y88576190D01*
X389602023Y88614285D01*
X389640119Y88690476D01*
X389640119Y88842857D01*
X389602023Y88919047D01*
X389563928Y88957142D01*
X389487738Y88995238D01*
X387240119Y91078095D02*
X387240119Y91878095D01*
X387773452Y91878095D02*
X387925833Y91878095D01*
X388002023Y91840000D01*
X388078214Y91763809D01*
X388116309Y91611428D01*
X388116309Y91344761D01*
X388078214Y91192380D01*
X388002023Y91116190D01*
X387925833Y91078095D01*
X387773452Y91078095D01*
X387697261Y91116190D01*
X387621071Y91192380D01*
X387582976Y91344761D01*
X387582976Y91611428D01*
X387621071Y91763809D01*
X387697261Y91840000D01*
X387773452Y91878095D01*
X388878214Y91078095D02*
X388421071Y91078095D01*
X388649642Y91078095D02*
X388649642Y91878095D01*
X388573452Y91763809D01*
X388497261Y91687619D01*
X388421071Y91649523D01*
X389602023Y91878095D02*
X389221071Y91878095D01*
X389182976Y91497142D01*
X389221071Y91535238D01*
X389297261Y91573333D01*
X389487738Y91573333D01*
X389563928Y91535238D01*
X389602023Y91497142D01*
X389640119Y91420952D01*
X389640119Y91230476D01*
X389602023Y91154285D01*
X389563928Y91116190D01*
X389487738Y91078095D01*
X389297261Y91078095D01*
X389221071Y91116190D01*
X389182976Y91154285D01*
X388002023Y93618095D02*
X388002023Y94418095D01*
X388535357Y94418095D02*
X388687738Y94418095D01*
X388763928Y94380000D01*
X388840119Y94303809D01*
X388878214Y94151428D01*
X388878214Y93884761D01*
X388840119Y93732380D01*
X388763928Y93656190D01*
X388687738Y93618095D01*
X388535357Y93618095D01*
X388459166Y93656190D01*
X388382976Y93732380D01*
X388344880Y93884761D01*
X388344880Y94151428D01*
X388382976Y94303809D01*
X388459166Y94380000D01*
X388535357Y94418095D01*
X389182976Y94341904D02*
X389221071Y94380000D01*
X389297261Y94418095D01*
X389487738Y94418095D01*
X389563928Y94380000D01*
X389602023Y94341904D01*
X389640119Y94265714D01*
X389640119Y94189523D01*
X389602023Y94075238D01*
X389144880Y93618095D01*
X389640119Y93618095D01*
X388002023Y96158095D02*
X388002023Y96958095D01*
X388535357Y96958095D02*
X388687738Y96958095D01*
X388763928Y96920000D01*
X388840119Y96843809D01*
X388878214Y96691428D01*
X388878214Y96424761D01*
X388840119Y96272380D01*
X388763928Y96196190D01*
X388687738Y96158095D01*
X388535357Y96158095D01*
X388459166Y96196190D01*
X388382976Y96272380D01*
X388344880Y96424761D01*
X388344880Y96691428D01*
X388382976Y96843809D01*
X388459166Y96920000D01*
X388535357Y96958095D01*
X389373452Y96958095D02*
X389449642Y96958095D01*
X389525833Y96920000D01*
X389563928Y96881904D01*
X389602023Y96805714D01*
X389640119Y96653333D01*
X389640119Y96462857D01*
X389602023Y96310476D01*
X389563928Y96234285D01*
X389525833Y96196190D01*
X389449642Y96158095D01*
X389373452Y96158095D01*
X389297261Y96196190D01*
X389259166Y96234285D01*
X389221071Y96310476D01*
X389182976Y96462857D01*
X389182976Y96653333D01*
X389221071Y96805714D01*
X389259166Y96881904D01*
X389297261Y96920000D01*
X389373452Y96958095D01*
X388002023Y98698095D02*
X388002023Y99498095D01*
X388535357Y99498095D02*
X388687738Y99498095D01*
X388763928Y99460000D01*
X388840119Y99383809D01*
X388878214Y99231428D01*
X388878214Y98964761D01*
X388840119Y98812380D01*
X388763928Y98736190D01*
X388687738Y98698095D01*
X388535357Y98698095D01*
X388459166Y98736190D01*
X388382976Y98812380D01*
X388344880Y98964761D01*
X388344880Y99231428D01*
X388382976Y99383809D01*
X388459166Y99460000D01*
X388535357Y99498095D01*
X389563928Y99231428D02*
X389563928Y98698095D01*
X389373452Y99536190D02*
X389182976Y98964761D01*
X389678214Y98964761D01*
X387240119Y101238095D02*
X387240119Y102038095D01*
X387773452Y102038095D02*
X387925833Y102038095D01*
X388002023Y102000000D01*
X388078214Y101923809D01*
X388116309Y101771428D01*
X388116309Y101504761D01*
X388078214Y101352380D01*
X388002023Y101276190D01*
X387925833Y101238095D01*
X387773452Y101238095D01*
X387697261Y101276190D01*
X387621071Y101352380D01*
X387582976Y101504761D01*
X387582976Y101771428D01*
X387621071Y101923809D01*
X387697261Y102000000D01*
X387773452Y102038095D01*
X388878214Y101238095D02*
X388421071Y101238095D01*
X388649642Y101238095D02*
X388649642Y102038095D01*
X388573452Y101923809D01*
X388497261Y101847619D01*
X388421071Y101809523D01*
X389563928Y102038095D02*
X389411547Y102038095D01*
X389335357Y102000000D01*
X389297261Y101961904D01*
X389221071Y101847619D01*
X389182976Y101695238D01*
X389182976Y101390476D01*
X389221071Y101314285D01*
X389259166Y101276190D01*
X389335357Y101238095D01*
X389487738Y101238095D01*
X389563928Y101276190D01*
X389602023Y101314285D01*
X389640119Y101390476D01*
X389640119Y101580952D01*
X389602023Y101657142D01*
X389563928Y101695238D01*
X389487738Y101733333D01*
X389335357Y101733333D01*
X389259166Y101695238D01*
X389221071Y101657142D01*
X389182976Y101580952D01*
X387240119Y103778095D02*
X387240119Y104578095D01*
X387773452Y104578095D02*
X387925833Y104578095D01*
X388002023Y104540000D01*
X388078214Y104463809D01*
X388116309Y104311428D01*
X388116309Y104044761D01*
X388078214Y103892380D01*
X388002023Y103816190D01*
X387925833Y103778095D01*
X387773452Y103778095D01*
X387697261Y103816190D01*
X387621071Y103892380D01*
X387582976Y104044761D01*
X387582976Y104311428D01*
X387621071Y104463809D01*
X387697261Y104540000D01*
X387773452Y104578095D01*
X388878214Y103778095D02*
X388421071Y103778095D01*
X388649642Y103778095D02*
X388649642Y104578095D01*
X388573452Y104463809D01*
X388497261Y104387619D01*
X388421071Y104349523D01*
X389144880Y104578095D02*
X389678214Y104578095D01*
X389335357Y103778095D01*
X388002023Y106318095D02*
X388002023Y107118095D01*
X388535357Y107118095D02*
X388687738Y107118095D01*
X388763928Y107080000D01*
X388840119Y107003809D01*
X388878214Y106851428D01*
X388878214Y106584761D01*
X388840119Y106432380D01*
X388763928Y106356190D01*
X388687738Y106318095D01*
X388535357Y106318095D01*
X388459166Y106356190D01*
X388382976Y106432380D01*
X388344880Y106584761D01*
X388344880Y106851428D01*
X388382976Y107003809D01*
X388459166Y107080000D01*
X388535357Y107118095D01*
X389602023Y107118095D02*
X389221071Y107118095D01*
X389182976Y106737142D01*
X389221071Y106775238D01*
X389297261Y106813333D01*
X389487738Y106813333D01*
X389563928Y106775238D01*
X389602023Y106737142D01*
X389640119Y106660952D01*
X389640119Y106470476D01*
X389602023Y106394285D01*
X389563928Y106356190D01*
X389487738Y106318095D01*
X389297261Y106318095D01*
X389221071Y106356190D01*
X389182976Y106394285D01*
X387240119Y108858095D02*
X387240119Y109658095D01*
X387773452Y109658095D02*
X387925833Y109658095D01*
X388002023Y109620000D01*
X388078214Y109543809D01*
X388116309Y109391428D01*
X388116309Y109124761D01*
X388078214Y108972380D01*
X388002023Y108896190D01*
X387925833Y108858095D01*
X387773452Y108858095D01*
X387697261Y108896190D01*
X387621071Y108972380D01*
X387582976Y109124761D01*
X387582976Y109391428D01*
X387621071Y109543809D01*
X387697261Y109620000D01*
X387773452Y109658095D01*
X388878214Y108858095D02*
X388421071Y108858095D01*
X388649642Y108858095D02*
X388649642Y109658095D01*
X388573452Y109543809D01*
X388497261Y109467619D01*
X388421071Y109429523D01*
X389335357Y109315238D02*
X389259166Y109353333D01*
X389221071Y109391428D01*
X389182976Y109467619D01*
X389182976Y109505714D01*
X389221071Y109581904D01*
X389259166Y109620000D01*
X389335357Y109658095D01*
X389487738Y109658095D01*
X389563928Y109620000D01*
X389602023Y109581904D01*
X389640119Y109505714D01*
X389640119Y109467619D01*
X389602023Y109391428D01*
X389563928Y109353333D01*
X389487738Y109315238D01*
X389335357Y109315238D01*
X389259166Y109277142D01*
X389221071Y109239047D01*
X389182976Y109162857D01*
X389182976Y109010476D01*
X389221071Y108934285D01*
X389259166Y108896190D01*
X389335357Y108858095D01*
X389487738Y108858095D01*
X389563928Y108896190D01*
X389602023Y108934285D01*
X389640119Y109010476D01*
X389640119Y109162857D01*
X389602023Y109239047D01*
X389563928Y109277142D01*
X389487738Y109315238D01*
X387240119Y111398095D02*
X387240119Y112198095D01*
X387773452Y112198095D02*
X387925833Y112198095D01*
X388002023Y112160000D01*
X388078214Y112083809D01*
X388116309Y111931428D01*
X388116309Y111664761D01*
X388078214Y111512380D01*
X388002023Y111436190D01*
X387925833Y111398095D01*
X387773452Y111398095D01*
X387697261Y111436190D01*
X387621071Y111512380D01*
X387582976Y111664761D01*
X387582976Y111931428D01*
X387621071Y112083809D01*
X387697261Y112160000D01*
X387773452Y112198095D01*
X388878214Y111398095D02*
X388421071Y111398095D01*
X388649642Y111398095D02*
X388649642Y112198095D01*
X388573452Y112083809D01*
X388497261Y112007619D01*
X388421071Y111969523D01*
X389259166Y111398095D02*
X389411547Y111398095D01*
X389487738Y111436190D01*
X389525833Y111474285D01*
X389602023Y111588571D01*
X389640119Y111740952D01*
X389640119Y112045714D01*
X389602023Y112121904D01*
X389563928Y112160000D01*
X389487738Y112198095D01*
X389335357Y112198095D01*
X389259166Y112160000D01*
X389221071Y112121904D01*
X389182976Y112045714D01*
X389182976Y111855238D01*
X389221071Y111779047D01*
X389259166Y111740952D01*
X389335357Y111702857D01*
X389487738Y111702857D01*
X389563928Y111740952D01*
X389602023Y111779047D01*
X389640119Y111855238D01*
X387963928Y114700000D02*
X387887738Y114738095D01*
X387773452Y114738095D01*
X387659166Y114700000D01*
X387582976Y114623809D01*
X387544880Y114547619D01*
X387506785Y114395238D01*
X387506785Y114280952D01*
X387544880Y114128571D01*
X387582976Y114052380D01*
X387659166Y113976190D01*
X387773452Y113938095D01*
X387849642Y113938095D01*
X387963928Y113976190D01*
X388002023Y114014285D01*
X388002023Y114280952D01*
X387849642Y114280952D01*
X388344880Y113938095D02*
X388344880Y114738095D01*
X388802023Y113938095D01*
X388802023Y114738095D01*
X389182976Y113938095D02*
X389182976Y114738095D01*
X389373452Y114738095D01*
X389487738Y114700000D01*
X389563928Y114623809D01*
X389602023Y114547619D01*
X389640119Y114395238D01*
X389640119Y114280952D01*
X389602023Y114128571D01*
X389563928Y114052380D01*
X389487738Y113976190D01*
X389373452Y113938095D01*
X389182976Y113938095D01*
X387240119Y116478095D02*
X387240119Y117278095D01*
X387773452Y117278095D02*
X387925833Y117278095D01*
X388002023Y117240000D01*
X388078214Y117163809D01*
X388116309Y117011428D01*
X388116309Y116744761D01*
X388078214Y116592380D01*
X388002023Y116516190D01*
X387925833Y116478095D01*
X387773452Y116478095D01*
X387697261Y116516190D01*
X387621071Y116592380D01*
X387582976Y116744761D01*
X387582976Y117011428D01*
X387621071Y117163809D01*
X387697261Y117240000D01*
X387773452Y117278095D01*
X388421071Y117201904D02*
X388459166Y117240000D01*
X388535357Y117278095D01*
X388725833Y117278095D01*
X388802023Y117240000D01*
X388840119Y117201904D01*
X388878214Y117125714D01*
X388878214Y117049523D01*
X388840119Y116935238D01*
X388382976Y116478095D01*
X388878214Y116478095D01*
X389640119Y116478095D02*
X389182976Y116478095D01*
X389411547Y116478095D02*
X389411547Y117278095D01*
X389335357Y117163809D01*
X389259166Y117087619D01*
X389182976Y117049523D01*
X388002023Y119018095D02*
X388002023Y119818095D01*
X388535357Y119818095D02*
X388687738Y119818095D01*
X388763928Y119780000D01*
X388840119Y119703809D01*
X388878214Y119551428D01*
X388878214Y119284761D01*
X388840119Y119132380D01*
X388763928Y119056190D01*
X388687738Y119018095D01*
X388535357Y119018095D01*
X388459166Y119056190D01*
X388382976Y119132380D01*
X388344880Y119284761D01*
X388344880Y119551428D01*
X388382976Y119703809D01*
X388459166Y119780000D01*
X388535357Y119818095D01*
X389144880Y119818095D02*
X389640119Y119818095D01*
X389373452Y119513333D01*
X389487738Y119513333D01*
X389563928Y119475238D01*
X389602023Y119437142D01*
X389640119Y119360952D01*
X389640119Y119170476D01*
X389602023Y119094285D01*
X389563928Y119056190D01*
X389487738Y119018095D01*
X389259166Y119018095D01*
X389182976Y119056190D01*
X389144880Y119094285D01*
X388002023Y121558095D02*
X388002023Y122358095D01*
X388535357Y122358095D02*
X388687738Y122358095D01*
X388763928Y122320000D01*
X388840119Y122243809D01*
X388878214Y122091428D01*
X388878214Y121824761D01*
X388840119Y121672380D01*
X388763928Y121596190D01*
X388687738Y121558095D01*
X388535357Y121558095D01*
X388459166Y121596190D01*
X388382976Y121672380D01*
X388344880Y121824761D01*
X388344880Y122091428D01*
X388382976Y122243809D01*
X388459166Y122320000D01*
X388535357Y122358095D01*
X389640119Y121558095D02*
X389182976Y121558095D01*
X389411547Y121558095D02*
X389411547Y122358095D01*
X389335357Y122243809D01*
X389259166Y122167619D01*
X389182976Y122129523D01*
X387240119Y124098095D02*
X387240119Y124898095D01*
X387773452Y124898095D02*
X387925833Y124898095D01*
X388002023Y124860000D01*
X388078214Y124783809D01*
X388116309Y124631428D01*
X388116309Y124364761D01*
X388078214Y124212380D01*
X388002023Y124136190D01*
X387925833Y124098095D01*
X387773452Y124098095D01*
X387697261Y124136190D01*
X387621071Y124212380D01*
X387582976Y124364761D01*
X387582976Y124631428D01*
X387621071Y124783809D01*
X387697261Y124860000D01*
X387773452Y124898095D01*
X388421071Y124821904D02*
X388459166Y124860000D01*
X388535357Y124898095D01*
X388725833Y124898095D01*
X388802023Y124860000D01*
X388840119Y124821904D01*
X388878214Y124745714D01*
X388878214Y124669523D01*
X388840119Y124555238D01*
X388382976Y124098095D01*
X388878214Y124098095D01*
X389182976Y124821904D02*
X389221071Y124860000D01*
X389297261Y124898095D01*
X389487738Y124898095D01*
X389563928Y124860000D01*
X389602023Y124821904D01*
X389640119Y124745714D01*
X389640119Y124669523D01*
X389602023Y124555238D01*
X389144880Y124098095D01*
X389640119Y124098095D01*
X387240119Y126638095D02*
X387240119Y127438095D01*
X387773452Y127438095D02*
X387925833Y127438095D01*
X388002023Y127400000D01*
X388078214Y127323809D01*
X388116309Y127171428D01*
X388116309Y126904761D01*
X388078214Y126752380D01*
X388002023Y126676190D01*
X387925833Y126638095D01*
X387773452Y126638095D01*
X387697261Y126676190D01*
X387621071Y126752380D01*
X387582976Y126904761D01*
X387582976Y127171428D01*
X387621071Y127323809D01*
X387697261Y127400000D01*
X387773452Y127438095D01*
X388421071Y127361904D02*
X388459166Y127400000D01*
X388535357Y127438095D01*
X388725833Y127438095D01*
X388802023Y127400000D01*
X388840119Y127361904D01*
X388878214Y127285714D01*
X388878214Y127209523D01*
X388840119Y127095238D01*
X388382976Y126638095D01*
X388878214Y126638095D01*
X389144880Y127438095D02*
X389640119Y127438095D01*
X389373452Y127133333D01*
X389487738Y127133333D01*
X389563928Y127095238D01*
X389602023Y127057142D01*
X389640119Y126980952D01*
X389640119Y126790476D01*
X389602023Y126714285D01*
X389563928Y126676190D01*
X389487738Y126638095D01*
X389259166Y126638095D01*
X389182976Y126676190D01*
X389144880Y126714285D01*
X387963928Y129940000D02*
X387887738Y129978095D01*
X387773452Y129978095D01*
X387659166Y129940000D01*
X387582976Y129863809D01*
X387544880Y129787619D01*
X387506785Y129635238D01*
X387506785Y129520952D01*
X387544880Y129368571D01*
X387582976Y129292380D01*
X387659166Y129216190D01*
X387773452Y129178095D01*
X387849642Y129178095D01*
X387963928Y129216190D01*
X388002023Y129254285D01*
X388002023Y129520952D01*
X387849642Y129520952D01*
X388344880Y129178095D02*
X388344880Y129978095D01*
X388802023Y129178095D01*
X388802023Y129978095D01*
X389182976Y129178095D02*
X389182976Y129978095D01*
X389373452Y129978095D01*
X389487738Y129940000D01*
X389563928Y129863809D01*
X389602023Y129787619D01*
X389640119Y129635238D01*
X389640119Y129520952D01*
X389602023Y129368571D01*
X389563928Y129292380D01*
X389487738Y129216190D01*
X389373452Y129178095D01*
X389182976Y129178095D01*
X353982976Y83762857D02*
X354592500Y83762857D01*
X354287738Y83458095D02*
X354287738Y84067619D01*
X355354404Y84258095D02*
X354973452Y84258095D01*
X354935357Y83877142D01*
X354973452Y83915238D01*
X355049642Y83953333D01*
X355240119Y83953333D01*
X355316309Y83915238D01*
X355354404Y83877142D01*
X355392500Y83800952D01*
X355392500Y83610476D01*
X355354404Y83534285D01*
X355316309Y83496190D01*
X355240119Y83458095D01*
X355049642Y83458095D01*
X354973452Y83496190D01*
X354935357Y83534285D01*
X355621071Y84258095D02*
X355887738Y83458095D01*
X356154404Y84258095D01*
X354440119Y86074285D02*
X354402023Y86036190D01*
X354287738Y85998095D01*
X354211547Y85998095D01*
X354097261Y86036190D01*
X354021071Y86112380D01*
X353982976Y86188571D01*
X353944880Y86340952D01*
X353944880Y86455238D01*
X353982976Y86607619D01*
X354021071Y86683809D01*
X354097261Y86760000D01*
X354211547Y86798095D01*
X354287738Y86798095D01*
X354402023Y86760000D01*
X354440119Y86721904D01*
X354782976Y85998095D02*
X354782976Y86798095D01*
X355049642Y86226666D01*
X355316309Y86798095D01*
X355316309Y85998095D01*
X355697261Y85998095D02*
X355697261Y86798095D01*
X355887738Y86798095D01*
X356002023Y86760000D01*
X356078214Y86683809D01*
X356116309Y86607619D01*
X356154404Y86455238D01*
X356154404Y86340952D01*
X356116309Y86188571D01*
X356078214Y86112380D01*
X356002023Y86036190D01*
X355887738Y85998095D01*
X355697261Y85998095D01*
X353982976Y88538095D02*
X353982976Y89338095D01*
X354516309Y89338095D02*
X354668690Y89338095D01*
X354744880Y89300000D01*
X354821071Y89223809D01*
X354859166Y89071428D01*
X354859166Y88804761D01*
X354821071Y88652380D01*
X354744880Y88576190D01*
X354668690Y88538095D01*
X354516309Y88538095D01*
X354440119Y88576190D01*
X354363928Y88652380D01*
X354325833Y88804761D01*
X354325833Y89071428D01*
X354363928Y89223809D01*
X354440119Y89300000D01*
X354516309Y89338095D01*
X355621071Y88538095D02*
X355163928Y88538095D01*
X355392500Y88538095D02*
X355392500Y89338095D01*
X355316309Y89223809D01*
X355240119Y89147619D01*
X355163928Y89109523D01*
X356116309Y89338095D02*
X356192500Y89338095D01*
X356268690Y89300000D01*
X356306785Y89261904D01*
X356344880Y89185714D01*
X356382976Y89033333D01*
X356382976Y88842857D01*
X356344880Y88690476D01*
X356306785Y88614285D01*
X356268690Y88576190D01*
X356192500Y88538095D01*
X356116309Y88538095D01*
X356040119Y88576190D01*
X356002023Y88614285D01*
X355963928Y88690476D01*
X355925833Y88842857D01*
X355925833Y89033333D01*
X355963928Y89185714D01*
X356002023Y89261904D01*
X356040119Y89300000D01*
X356116309Y89338095D01*
X353982976Y91078095D02*
X353982976Y91878095D01*
X354516309Y91878095D02*
X354668690Y91878095D01*
X354744880Y91840000D01*
X354821071Y91763809D01*
X354859166Y91611428D01*
X354859166Y91344761D01*
X354821071Y91192380D01*
X354744880Y91116190D01*
X354668690Y91078095D01*
X354516309Y91078095D01*
X354440119Y91116190D01*
X354363928Y91192380D01*
X354325833Y91344761D01*
X354325833Y91611428D01*
X354363928Y91763809D01*
X354440119Y91840000D01*
X354516309Y91878095D01*
X355240119Y91078095D02*
X355392500Y91078095D01*
X355468690Y91116190D01*
X355506785Y91154285D01*
X355582976Y91268571D01*
X355621071Y91420952D01*
X355621071Y91725714D01*
X355582976Y91801904D01*
X355544880Y91840000D01*
X355468690Y91878095D01*
X355316309Y91878095D01*
X355240119Y91840000D01*
X355202023Y91801904D01*
X355163928Y91725714D01*
X355163928Y91535238D01*
X355202023Y91459047D01*
X355240119Y91420952D01*
X355316309Y91382857D01*
X355468690Y91382857D01*
X355544880Y91420952D01*
X355582976Y91459047D01*
X355621071Y91535238D01*
X353982976Y93618095D02*
X353982976Y94418095D01*
X354516309Y94418095D02*
X354668690Y94418095D01*
X354744880Y94380000D01*
X354821071Y94303809D01*
X354859166Y94151428D01*
X354859166Y93884761D01*
X354821071Y93732380D01*
X354744880Y93656190D01*
X354668690Y93618095D01*
X354516309Y93618095D01*
X354440119Y93656190D01*
X354363928Y93732380D01*
X354325833Y93884761D01*
X354325833Y94151428D01*
X354363928Y94303809D01*
X354440119Y94380000D01*
X354516309Y94418095D01*
X355621071Y93618095D02*
X355163928Y93618095D01*
X355392500Y93618095D02*
X355392500Y94418095D01*
X355316309Y94303809D01*
X355240119Y94227619D01*
X355163928Y94189523D01*
X355887738Y94418095D02*
X356382976Y94418095D01*
X356116309Y94113333D01*
X356230595Y94113333D01*
X356306785Y94075238D01*
X356344880Y94037142D01*
X356382976Y93960952D01*
X356382976Y93770476D01*
X356344880Y93694285D01*
X356306785Y93656190D01*
X356230595Y93618095D01*
X356002023Y93618095D01*
X355925833Y93656190D01*
X355887738Y93694285D01*
X354402023Y96920000D02*
X354325833Y96958095D01*
X354211547Y96958095D01*
X354097261Y96920000D01*
X354021071Y96843809D01*
X353982976Y96767619D01*
X353944880Y96615238D01*
X353944880Y96500952D01*
X353982976Y96348571D01*
X354021071Y96272380D01*
X354097261Y96196190D01*
X354211547Y96158095D01*
X354287738Y96158095D01*
X354402023Y96196190D01*
X354440119Y96234285D01*
X354440119Y96500952D01*
X354287738Y96500952D01*
X354782976Y96158095D02*
X354782976Y96958095D01*
X355240119Y96158095D01*
X355240119Y96958095D01*
X355621071Y96158095D02*
X355621071Y96958095D01*
X355811547Y96958095D01*
X355925833Y96920000D01*
X356002023Y96843809D01*
X356040119Y96767619D01*
X356078214Y96615238D01*
X356078214Y96500952D01*
X356040119Y96348571D01*
X356002023Y96272380D01*
X355925833Y96196190D01*
X355811547Y96158095D01*
X355621071Y96158095D01*
X353982976Y98698095D02*
X353982976Y99498095D01*
X354516309Y99498095D02*
X354668690Y99498095D01*
X354744880Y99460000D01*
X354821071Y99383809D01*
X354859166Y99231428D01*
X354859166Y98964761D01*
X354821071Y98812380D01*
X354744880Y98736190D01*
X354668690Y98698095D01*
X354516309Y98698095D01*
X354440119Y98736190D01*
X354363928Y98812380D01*
X354325833Y98964761D01*
X354325833Y99231428D01*
X354363928Y99383809D01*
X354440119Y99460000D01*
X354516309Y99498095D01*
X355621071Y98698095D02*
X355163928Y98698095D01*
X355392500Y98698095D02*
X355392500Y99498095D01*
X355316309Y99383809D01*
X355240119Y99307619D01*
X355163928Y99269523D01*
X355925833Y99421904D02*
X355963928Y99460000D01*
X356040119Y99498095D01*
X356230595Y99498095D01*
X356306785Y99460000D01*
X356344880Y99421904D01*
X356382976Y99345714D01*
X356382976Y99269523D01*
X356344880Y99155238D01*
X355887738Y98698095D01*
X356382976Y98698095D01*
X353982976Y101238095D02*
X353982976Y102038095D01*
X354516309Y102038095D02*
X354668690Y102038095D01*
X354744880Y102000000D01*
X354821071Y101923809D01*
X354859166Y101771428D01*
X354859166Y101504761D01*
X354821071Y101352380D01*
X354744880Y101276190D01*
X354668690Y101238095D01*
X354516309Y101238095D01*
X354440119Y101276190D01*
X354363928Y101352380D01*
X354325833Y101504761D01*
X354325833Y101771428D01*
X354363928Y101923809D01*
X354440119Y102000000D01*
X354516309Y102038095D01*
X355621071Y101238095D02*
X355163928Y101238095D01*
X355392500Y101238095D02*
X355392500Y102038095D01*
X355316309Y101923809D01*
X355240119Y101847619D01*
X355163928Y101809523D01*
X356306785Y101771428D02*
X356306785Y101238095D01*
X356116309Y102076190D02*
X355925833Y101504761D01*
X356421071Y101504761D01*
X353982976Y103778095D02*
X353982976Y104578095D01*
X354516309Y104578095D02*
X354668690Y104578095D01*
X354744880Y104540000D01*
X354821071Y104463809D01*
X354859166Y104311428D01*
X354859166Y104044761D01*
X354821071Y103892380D01*
X354744880Y103816190D01*
X354668690Y103778095D01*
X354516309Y103778095D01*
X354440119Y103816190D01*
X354363928Y103892380D01*
X354325833Y104044761D01*
X354325833Y104311428D01*
X354363928Y104463809D01*
X354440119Y104540000D01*
X354516309Y104578095D01*
X355163928Y104501904D02*
X355202023Y104540000D01*
X355278214Y104578095D01*
X355468690Y104578095D01*
X355544880Y104540000D01*
X355582976Y104501904D01*
X355621071Y104425714D01*
X355621071Y104349523D01*
X355582976Y104235238D01*
X355125833Y103778095D01*
X355621071Y103778095D01*
X355887738Y104578095D02*
X356421071Y104578095D01*
X356078214Y103778095D01*
X353982976Y106318095D02*
X353982976Y107118095D01*
X354516309Y107118095D02*
X354668690Y107118095D01*
X354744880Y107080000D01*
X354821071Y107003809D01*
X354859166Y106851428D01*
X354859166Y106584761D01*
X354821071Y106432380D01*
X354744880Y106356190D01*
X354668690Y106318095D01*
X354516309Y106318095D01*
X354440119Y106356190D01*
X354363928Y106432380D01*
X354325833Y106584761D01*
X354325833Y106851428D01*
X354363928Y107003809D01*
X354440119Y107080000D01*
X354516309Y107118095D01*
X355163928Y107041904D02*
X355202023Y107080000D01*
X355278214Y107118095D01*
X355468690Y107118095D01*
X355544880Y107080000D01*
X355582976Y107041904D01*
X355621071Y106965714D01*
X355621071Y106889523D01*
X355582976Y106775238D01*
X355125833Y106318095D01*
X355621071Y106318095D01*
X356306785Y107118095D02*
X356154404Y107118095D01*
X356078214Y107080000D01*
X356040119Y107041904D01*
X355963928Y106927619D01*
X355925833Y106775238D01*
X355925833Y106470476D01*
X355963928Y106394285D01*
X356002023Y106356190D01*
X356078214Y106318095D01*
X356230595Y106318095D01*
X356306785Y106356190D01*
X356344880Y106394285D01*
X356382976Y106470476D01*
X356382976Y106660952D01*
X356344880Y106737142D01*
X356306785Y106775238D01*
X356230595Y106813333D01*
X356078214Y106813333D01*
X356002023Y106775238D01*
X355963928Y106737142D01*
X355925833Y106660952D01*
X353982976Y108858095D02*
X353982976Y109658095D01*
X354516309Y109658095D02*
X354668690Y109658095D01*
X354744880Y109620000D01*
X354821071Y109543809D01*
X354859166Y109391428D01*
X354859166Y109124761D01*
X354821071Y108972380D01*
X354744880Y108896190D01*
X354668690Y108858095D01*
X354516309Y108858095D01*
X354440119Y108896190D01*
X354363928Y108972380D01*
X354325833Y109124761D01*
X354325833Y109391428D01*
X354363928Y109543809D01*
X354440119Y109620000D01*
X354516309Y109658095D01*
X355163928Y109581904D02*
X355202023Y109620000D01*
X355278214Y109658095D01*
X355468690Y109658095D01*
X355544880Y109620000D01*
X355582976Y109581904D01*
X355621071Y109505714D01*
X355621071Y109429523D01*
X355582976Y109315238D01*
X355125833Y108858095D01*
X355621071Y108858095D01*
X356344880Y109658095D02*
X355963928Y109658095D01*
X355925833Y109277142D01*
X355963928Y109315238D01*
X356040119Y109353333D01*
X356230595Y109353333D01*
X356306785Y109315238D01*
X356344880Y109277142D01*
X356382976Y109200952D01*
X356382976Y109010476D01*
X356344880Y108934285D01*
X356306785Y108896190D01*
X356230595Y108858095D01*
X356040119Y108858095D01*
X355963928Y108896190D01*
X355925833Y108934285D01*
X353982976Y111398095D02*
X353982976Y112198095D01*
X354516309Y112198095D02*
X354668690Y112198095D01*
X354744880Y112160000D01*
X354821071Y112083809D01*
X354859166Y111931428D01*
X354859166Y111664761D01*
X354821071Y111512380D01*
X354744880Y111436190D01*
X354668690Y111398095D01*
X354516309Y111398095D01*
X354440119Y111436190D01*
X354363928Y111512380D01*
X354325833Y111664761D01*
X354325833Y111931428D01*
X354363928Y112083809D01*
X354440119Y112160000D01*
X354516309Y112198095D01*
X355125833Y112198095D02*
X355621071Y112198095D01*
X355354404Y111893333D01*
X355468690Y111893333D01*
X355544880Y111855238D01*
X355582976Y111817142D01*
X355621071Y111740952D01*
X355621071Y111550476D01*
X355582976Y111474285D01*
X355544880Y111436190D01*
X355468690Y111398095D01*
X355240119Y111398095D01*
X355163928Y111436190D01*
X355125833Y111474285D01*
X355887738Y112198095D02*
X356382976Y112198095D01*
X356116309Y111893333D01*
X356230595Y111893333D01*
X356306785Y111855238D01*
X356344880Y111817142D01*
X356382976Y111740952D01*
X356382976Y111550476D01*
X356344880Y111474285D01*
X356306785Y111436190D01*
X356230595Y111398095D01*
X356002023Y111398095D01*
X355925833Y111436190D01*
X355887738Y111474285D01*
X353982976Y113938095D02*
X353982976Y114738095D01*
X354516309Y114738095D02*
X354668690Y114738095D01*
X354744880Y114700000D01*
X354821071Y114623809D01*
X354859166Y114471428D01*
X354859166Y114204761D01*
X354821071Y114052380D01*
X354744880Y113976190D01*
X354668690Y113938095D01*
X354516309Y113938095D01*
X354440119Y113976190D01*
X354363928Y114052380D01*
X354325833Y114204761D01*
X354325833Y114471428D01*
X354363928Y114623809D01*
X354440119Y114700000D01*
X354516309Y114738095D01*
X355125833Y114738095D02*
X355621071Y114738095D01*
X355354404Y114433333D01*
X355468690Y114433333D01*
X355544880Y114395238D01*
X355582976Y114357142D01*
X355621071Y114280952D01*
X355621071Y114090476D01*
X355582976Y114014285D01*
X355544880Y113976190D01*
X355468690Y113938095D01*
X355240119Y113938095D01*
X355163928Y113976190D01*
X355125833Y114014285D01*
X355925833Y114661904D02*
X355963928Y114700000D01*
X356040119Y114738095D01*
X356230595Y114738095D01*
X356306785Y114700000D01*
X356344880Y114661904D01*
X356382976Y114585714D01*
X356382976Y114509523D01*
X356344880Y114395238D01*
X355887738Y113938095D01*
X356382976Y113938095D01*
X353982976Y116478095D02*
X353982976Y117278095D01*
X354516309Y117278095D02*
X354668690Y117278095D01*
X354744880Y117240000D01*
X354821071Y117163809D01*
X354859166Y117011428D01*
X354859166Y116744761D01*
X354821071Y116592380D01*
X354744880Y116516190D01*
X354668690Y116478095D01*
X354516309Y116478095D01*
X354440119Y116516190D01*
X354363928Y116592380D01*
X354325833Y116744761D01*
X354325833Y117011428D01*
X354363928Y117163809D01*
X354440119Y117240000D01*
X354516309Y117278095D01*
X355125833Y117278095D02*
X355621071Y117278095D01*
X355354404Y116973333D01*
X355468690Y116973333D01*
X355544880Y116935238D01*
X355582976Y116897142D01*
X355621071Y116820952D01*
X355621071Y116630476D01*
X355582976Y116554285D01*
X355544880Y116516190D01*
X355468690Y116478095D01*
X355240119Y116478095D01*
X355163928Y116516190D01*
X355125833Y116554285D01*
X356344880Y117278095D02*
X355963928Y117278095D01*
X355925833Y116897142D01*
X355963928Y116935238D01*
X356040119Y116973333D01*
X356230595Y116973333D01*
X356306785Y116935238D01*
X356344880Y116897142D01*
X356382976Y116820952D01*
X356382976Y116630476D01*
X356344880Y116554285D01*
X356306785Y116516190D01*
X356230595Y116478095D01*
X356040119Y116478095D01*
X355963928Y116516190D01*
X355925833Y116554285D01*
X353982976Y119018095D02*
X353982976Y119818095D01*
X354516309Y119818095D02*
X354668690Y119818095D01*
X354744880Y119780000D01*
X354821071Y119703809D01*
X354859166Y119551428D01*
X354859166Y119284761D01*
X354821071Y119132380D01*
X354744880Y119056190D01*
X354668690Y119018095D01*
X354516309Y119018095D01*
X354440119Y119056190D01*
X354363928Y119132380D01*
X354325833Y119284761D01*
X354325833Y119551428D01*
X354363928Y119703809D01*
X354440119Y119780000D01*
X354516309Y119818095D01*
X355125833Y119818095D02*
X355621071Y119818095D01*
X355354404Y119513333D01*
X355468690Y119513333D01*
X355544880Y119475238D01*
X355582976Y119437142D01*
X355621071Y119360952D01*
X355621071Y119170476D01*
X355582976Y119094285D01*
X355544880Y119056190D01*
X355468690Y119018095D01*
X355240119Y119018095D01*
X355163928Y119056190D01*
X355125833Y119094285D01*
X356306785Y119551428D02*
X356306785Y119018095D01*
X356116309Y119856190D02*
X355925833Y119284761D01*
X356421071Y119284761D01*
X353944880Y121596190D02*
X354059166Y121558095D01*
X354249642Y121558095D01*
X354325833Y121596190D01*
X354363928Y121634285D01*
X354402023Y121710476D01*
X354402023Y121786666D01*
X354363928Y121862857D01*
X354325833Y121900952D01*
X354249642Y121939047D01*
X354097261Y121977142D01*
X354021071Y122015238D01*
X353982976Y122053333D01*
X353944880Y122129523D01*
X353944880Y122205714D01*
X353982976Y122281904D01*
X354021071Y122320000D01*
X354097261Y122358095D01*
X354287738Y122358095D01*
X354402023Y122320000D01*
X354744880Y121558095D02*
X354744880Y122358095D01*
X355202023Y121558095D01*
X355202023Y122358095D01*
X353944880Y124136190D02*
X354059166Y124098095D01*
X354249642Y124098095D01*
X354325833Y124136190D01*
X354363928Y124174285D01*
X354402023Y124250476D01*
X354402023Y124326666D01*
X354363928Y124402857D01*
X354325833Y124440952D01*
X354249642Y124479047D01*
X354097261Y124517142D01*
X354021071Y124555238D01*
X353982976Y124593333D01*
X353944880Y124669523D01*
X353944880Y124745714D01*
X353982976Y124821904D01*
X354021071Y124860000D01*
X354097261Y124898095D01*
X354287738Y124898095D01*
X354402023Y124860000D01*
X354744880Y124098095D02*
X354744880Y124898095D01*
X355049642Y124898095D01*
X355125833Y124860000D01*
X355163928Y124821904D01*
X355202023Y124745714D01*
X355202023Y124631428D01*
X355163928Y124555238D01*
X355125833Y124517142D01*
X355049642Y124479047D01*
X354744880Y124479047D01*
X353982976Y127057142D02*
X354249642Y127057142D01*
X354363928Y126638095D02*
X353982976Y126638095D01*
X353982976Y127438095D01*
X354363928Y127438095D01*
X354706785Y126638095D02*
X354706785Y127438095D01*
X355163928Y126638095D01*
X355163928Y127438095D01*
X353982976Y129482857D02*
X354592500Y129482857D01*
X354287738Y129178095D02*
X354287738Y129787619D01*
X354897261Y129978095D02*
X355392500Y129978095D01*
X355125833Y129673333D01*
X355240119Y129673333D01*
X355316309Y129635238D01*
X355354404Y129597142D01*
X355392500Y129520952D01*
X355392500Y129330476D01*
X355354404Y129254285D01*
X355316309Y129216190D01*
X355240119Y129178095D01*
X355011547Y129178095D01*
X354935357Y129216190D01*
X354897261Y129254285D01*
X355621071Y129978095D02*
X355887738Y129178095D01*
X356154404Y129978095D01*
X356344880Y129978095D02*
X356840119Y129978095D01*
X356573452Y129673333D01*
X356687738Y129673333D01*
X356763928Y129635238D01*
X356802023Y129597142D01*
X356840119Y129520952D01*
X356840119Y129330476D01*
X356802023Y129254285D01*
X356763928Y129216190D01*
X356687738Y129178095D01*
X356459166Y129178095D01*
X356382976Y129216190D01*
X356344880Y129254285D01*
X409547142Y128653214D02*
X409618571Y128867500D01*
X409618571Y129224642D01*
X409547142Y129367500D01*
X409475714Y129438928D01*
X409332857Y129510357D01*
X409190000Y129510357D01*
X409047142Y129438928D01*
X408975714Y129367500D01*
X408904285Y129224642D01*
X408832857Y128938928D01*
X408761428Y128796071D01*
X408690000Y128724642D01*
X408547142Y128653214D01*
X408404285Y128653214D01*
X408261428Y128724642D01*
X408190000Y128796071D01*
X408118571Y128938928D01*
X408118571Y129296071D01*
X408190000Y129510357D01*
X408832857Y130153214D02*
X408832857Y130653214D01*
X409618571Y130867500D02*
X409618571Y130153214D01*
X408118571Y130153214D01*
X408118571Y130867500D01*
X409618571Y132367500D02*
X408904285Y131867500D01*
X409618571Y131510357D02*
X408118571Y131510357D01*
X408118571Y132081785D01*
X408190000Y132224642D01*
X408261428Y132296071D01*
X408404285Y132367500D01*
X408618571Y132367500D01*
X408761428Y132296071D01*
X408832857Y132224642D01*
X408904285Y132081785D01*
X408904285Y131510357D01*
X408118571Y132796071D02*
X409618571Y133296071D01*
X408118571Y133796071D01*
X408118571Y134581785D02*
X408118571Y134867500D01*
X408190000Y135010357D01*
X408332857Y135153214D01*
X408618571Y135224642D01*
X409118571Y135224642D01*
X409404285Y135153214D01*
X409547142Y135010357D01*
X409618571Y134867500D01*
X409618571Y134581785D01*
X409547142Y134438928D01*
X409404285Y134296071D01*
X409118571Y134224642D01*
X408618571Y134224642D01*
X408332857Y134296071D01*
X408190000Y134438928D01*
X408118571Y134581785D01*
X404538571Y128724642D02*
X403038571Y128724642D01*
X404110000Y129224642D01*
X403038571Y129724642D01*
X404538571Y129724642D01*
X404395714Y131296071D02*
X404467142Y131224642D01*
X404538571Y131010357D01*
X404538571Y130867500D01*
X404467142Y130653214D01*
X404324285Y130510357D01*
X404181428Y130438928D01*
X403895714Y130367500D01*
X403681428Y130367500D01*
X403395714Y130438928D01*
X403252857Y130510357D01*
X403110000Y130653214D01*
X403038571Y130867500D01*
X403038571Y131010357D01*
X403110000Y131224642D01*
X403181428Y131296071D01*
X403038571Y131938928D02*
X404252857Y131938928D01*
X404395714Y132010357D01*
X404467142Y132081785D01*
X404538571Y132224642D01*
X404538571Y132510357D01*
X404467142Y132653214D01*
X404395714Y132724642D01*
X404252857Y132796071D01*
X403038571Y132796071D01*
D11*
X407670000Y127000000D02*
X410210000Y127000000D01*
X402590000Y127000000D02*
X405130000Y127000000D01*
X410210000Y121920000D02*
X410210000Y123190000D01*
X405130000Y121920000D02*
X410210000Y121920000D01*
X405130000Y123190000D02*
X405130000Y121920000D01*
D10*
X402697142Y116338214D02*
X402697142Y117481071D01*
X403268571Y116909642D02*
X402125714Y116909642D01*
X401768571Y118909642D02*
X401768571Y118195357D01*
X402482857Y118123928D01*
X402411428Y118195357D01*
X402340000Y118338214D01*
X402340000Y118695357D01*
X402411428Y118838214D01*
X402482857Y118909642D01*
X402625714Y118981071D01*
X402982857Y118981071D01*
X403125714Y118909642D01*
X403197142Y118838214D01*
X403268571Y118695357D01*
X403268571Y118338214D01*
X403197142Y118195357D01*
X403125714Y118123928D01*
X401768571Y119409642D02*
X403268571Y119909642D01*
X401768571Y120409642D01*
X404380000Y117123928D02*
X404308571Y116981071D01*
X404308571Y116766785D01*
X404380000Y116552500D01*
X404522857Y116409642D01*
X404665714Y116338214D01*
X404951428Y116266785D01*
X405165714Y116266785D01*
X405451428Y116338214D01*
X405594285Y116409642D01*
X405737142Y116552500D01*
X405808571Y116766785D01*
X405808571Y116909642D01*
X405737142Y117123928D01*
X405665714Y117195357D01*
X405165714Y117195357D01*
X405165714Y116909642D01*
X405808571Y117838214D02*
X404308571Y117838214D01*
X405808571Y118695357D01*
X404308571Y118695357D01*
X405808571Y119409642D02*
X404308571Y119409642D01*
X404308571Y119766785D01*
X404380000Y119981071D01*
X404522857Y120123928D01*
X404665714Y120195357D01*
X404951428Y120266785D01*
X405165714Y120266785D01*
X405451428Y120195357D01*
X405594285Y120123928D01*
X405737142Y119981071D01*
X405808571Y119766785D01*
X405808571Y119409642D01*
X406848571Y116409642D02*
X408348571Y116909642D01*
X406848571Y117409642D01*
X408205714Y118766785D02*
X408277142Y118695357D01*
X408348571Y118481071D01*
X408348571Y118338214D01*
X408277142Y118123928D01*
X408134285Y117981071D01*
X407991428Y117909642D01*
X407705714Y117838214D01*
X407491428Y117838214D01*
X407205714Y117909642D01*
X407062857Y117981071D01*
X406920000Y118123928D01*
X406848571Y118338214D01*
X406848571Y118481071D01*
X406920000Y118695357D01*
X406991428Y118766785D01*
X408205714Y120266785D02*
X408277142Y120195357D01*
X408348571Y119981071D01*
X408348571Y119838214D01*
X408277142Y119623928D01*
X408134285Y119481071D01*
X407991428Y119409642D01*
X407705714Y119338214D01*
X407491428Y119338214D01*
X407205714Y119409642D01*
X407062857Y119481071D01*
X406920000Y119623928D01*
X406848571Y119838214D01*
X406848571Y119981071D01*
X406920000Y120195357D01*
X406991428Y120266785D01*
X409460000Y117123928D02*
X409388571Y116981071D01*
X409388571Y116766785D01*
X409460000Y116552500D01*
X409602857Y116409642D01*
X409745714Y116338214D01*
X410031428Y116266785D01*
X410245714Y116266785D01*
X410531428Y116338214D01*
X410674285Y116409642D01*
X410817142Y116552500D01*
X410888571Y116766785D01*
X410888571Y116909642D01*
X410817142Y117123928D01*
X410745714Y117195357D01*
X410245714Y117195357D01*
X410245714Y116909642D01*
X410888571Y117838214D02*
X409388571Y117838214D01*
X410888571Y118695357D01*
X409388571Y118695357D01*
X410888571Y119409642D02*
X409388571Y119409642D01*
X409388571Y119766785D01*
X409460000Y119981071D01*
X409602857Y120123928D01*
X409745714Y120195357D01*
X410031428Y120266785D01*
X410245714Y120266785D01*
X410531428Y120195357D01*
X410674285Y120123928D01*
X410817142Y119981071D01*
X410888571Y119766785D01*
X410888571Y119409642D01*
X411452142Y107063214D02*
X411523571Y107277500D01*
X411523571Y107634642D01*
X411452142Y107777500D01*
X411380714Y107848928D01*
X411237857Y107920357D01*
X411095000Y107920357D01*
X410952142Y107848928D01*
X410880714Y107777500D01*
X410809285Y107634642D01*
X410737857Y107348928D01*
X410666428Y107206071D01*
X410595000Y107134642D01*
X410452142Y107063214D01*
X410309285Y107063214D01*
X410166428Y107134642D01*
X410095000Y107206071D01*
X410023571Y107348928D01*
X410023571Y107706071D01*
X410095000Y107920357D01*
X410737857Y108563214D02*
X410737857Y109063214D01*
X411523571Y109277500D02*
X411523571Y108563214D01*
X410023571Y108563214D01*
X410023571Y109277500D01*
X411523571Y110777500D02*
X410809285Y110277500D01*
X411523571Y109920357D02*
X410023571Y109920357D01*
X410023571Y110491785D01*
X410095000Y110634642D01*
X410166428Y110706071D01*
X410309285Y110777500D01*
X410523571Y110777500D01*
X410666428Y110706071D01*
X410737857Y110634642D01*
X410809285Y110491785D01*
X410809285Y109920357D01*
X410023571Y111206071D02*
X411523571Y111706071D01*
X410023571Y112206071D01*
X410023571Y112991785D02*
X410023571Y113277500D01*
X410095000Y113420357D01*
X410237857Y113563214D01*
X410523571Y113634642D01*
X411023571Y113634642D01*
X411309285Y113563214D01*
X411452142Y113420357D01*
X411523571Y113277500D01*
X411523571Y112991785D01*
X411452142Y112848928D01*
X411309285Y112706071D01*
X411023571Y112634642D01*
X410523571Y112634642D01*
X410237857Y112706071D01*
X410095000Y112848928D01*
X410023571Y112991785D01*
X406920000Y107920357D02*
X406848571Y107777500D01*
X406848571Y107563214D01*
X406920000Y107348928D01*
X407062857Y107206071D01*
X407205714Y107134642D01*
X407491428Y107063214D01*
X407705714Y107063214D01*
X407991428Y107134642D01*
X408134285Y107206071D01*
X408277142Y107348928D01*
X408348571Y107563214D01*
X408348571Y107706071D01*
X408277142Y107920357D01*
X408205714Y107991785D01*
X407705714Y107991785D01*
X407705714Y107706071D01*
X408348571Y108634642D02*
X406848571Y108634642D01*
X408348571Y109491785D01*
X406848571Y109491785D01*
X408348571Y110206071D02*
X406848571Y110206071D01*
X406848571Y110563214D01*
X406920000Y110777500D01*
X407062857Y110920357D01*
X407205714Y110991785D01*
X407491428Y111063214D01*
X407705714Y111063214D01*
X407991428Y110991785D01*
X408134285Y110920357D01*
X408277142Y110777500D01*
X408348571Y110563214D01*
X408348571Y110206071D01*
X404308571Y106920357D02*
X405808571Y107420357D01*
X404308571Y107920357D01*
X405665714Y109277500D02*
X405737142Y109206071D01*
X405808571Y108991785D01*
X405808571Y108848928D01*
X405737142Y108634642D01*
X405594285Y108491785D01*
X405451428Y108420357D01*
X405165714Y108348928D01*
X404951428Y108348928D01*
X404665714Y108420357D01*
X404522857Y108491785D01*
X404380000Y108634642D01*
X404308571Y108848928D01*
X404308571Y108991785D01*
X404380000Y109206071D01*
X404451428Y109277500D01*
X405665714Y110777500D02*
X405737142Y110706071D01*
X405808571Y110491785D01*
X405808571Y110348928D01*
X405737142Y110134642D01*
X405594285Y109991785D01*
X405451428Y109920357D01*
X405165714Y109848928D01*
X404951428Y109848928D01*
X404665714Y109920357D01*
X404522857Y109991785D01*
X404380000Y110134642D01*
X404308571Y110348928D01*
X404308571Y110491785D01*
X404380000Y110706071D01*
X404451428Y110777500D01*
X403125714Y107991785D02*
X403197142Y107920357D01*
X403268571Y107706071D01*
X403268571Y107563214D01*
X403197142Y107348928D01*
X403054285Y107206071D01*
X402911428Y107134642D01*
X402625714Y107063214D01*
X402411428Y107063214D01*
X402125714Y107134642D01*
X401982857Y107206071D01*
X401840000Y107348928D01*
X401768571Y107563214D01*
X401768571Y107706071D01*
X401840000Y107920357D01*
X401911428Y107991785D01*
X401768571Y108420357D02*
X401768571Y109277500D01*
X403268571Y108848928D02*
X401768571Y108848928D01*
X403268571Y110634642D02*
X402554285Y110134642D01*
X403268571Y109777500D02*
X401768571Y109777500D01*
X401768571Y110348928D01*
X401840000Y110491785D01*
X401911428Y110563214D01*
X402054285Y110634642D01*
X402268571Y110634642D01*
X402411428Y110563214D01*
X402482857Y110491785D01*
X402554285Y110348928D01*
X402554285Y109777500D01*
X403268571Y111991785D02*
X403268571Y111277500D01*
X401768571Y111277500D01*
X411164642Y91547142D02*
X410664642Y91547142D01*
X410664642Y90761428D02*
X410664642Y92261428D01*
X411378928Y92261428D01*
X410664642Y94087142D02*
X411164642Y94087142D01*
X411378928Y93301428D02*
X410664642Y93301428D01*
X410664642Y94801428D01*
X411378928Y94801428D01*
X410664642Y95841428D02*
X410664642Y97341428D01*
X411021785Y97341428D01*
X411236071Y97270000D01*
X411378928Y97127142D01*
X411450357Y96984285D01*
X411521785Y96698571D01*
X411521785Y96484285D01*
X411450357Y96198571D01*
X411378928Y96055714D01*
X411236071Y95912857D01*
X411021785Y95841428D01*
X410664642Y95841428D01*
X411521785Y98524285D02*
X411450357Y98452857D01*
X411236071Y98381428D01*
X411093214Y98381428D01*
X410878928Y98452857D01*
X410736071Y98595714D01*
X410664642Y98738571D01*
X410593214Y99024285D01*
X410593214Y99238571D01*
X410664642Y99524285D01*
X410736071Y99667142D01*
X410878928Y99810000D01*
X411093214Y99881428D01*
X411236071Y99881428D01*
X411450357Y99810000D01*
X411521785Y99738571D01*
X411164642Y101707142D02*
X411378928Y101635714D01*
X411450357Y101564285D01*
X411521785Y101421428D01*
X411521785Y101207142D01*
X411450357Y101064285D01*
X411378928Y100992857D01*
X411236071Y100921428D01*
X410664642Y100921428D01*
X410664642Y102421428D01*
X411164642Y102421428D01*
X411307500Y102350000D01*
X411378928Y102278571D01*
X411450357Y102135714D01*
X411450357Y101992857D01*
X411378928Y101850000D01*
X411307500Y101778571D01*
X411164642Y101707142D01*
X410664642Y101707142D01*
X410593214Y103890000D02*
X411307500Y103890000D01*
X410450357Y103461428D02*
X410950357Y104961428D01*
X411450357Y103461428D01*
D12*
%TO.C,G\u002A\u002A\u002A*%
G36*
X369189000Y110609119D02*
G01*
X369409810Y110602966D01*
X369630451Y110587617D01*
X369848635Y110563457D01*
X370062077Y110530872D01*
X370268490Y110490248D01*
X370465587Y110441972D01*
X370651081Y110386429D01*
X370780733Y110340418D01*
X370989322Y110251811D01*
X371192224Y110147531D01*
X371388852Y110028055D01*
X371578614Y109893858D01*
X371760922Y109745417D01*
X371935184Y109583206D01*
X372100812Y109407703D01*
X372257216Y109219382D01*
X372384942Y109046037D01*
X372499391Y108872811D01*
X372602773Y108697158D01*
X372695531Y108517732D01*
X372778106Y108333185D01*
X372850938Y108142172D01*
X372914469Y107943346D01*
X372969141Y107735360D01*
X373015395Y107516869D01*
X373053672Y107286526D01*
X373084414Y107042985D01*
X373102206Y106857800D01*
X373105157Y106812299D01*
X373107662Y106752501D01*
X373109720Y106680803D01*
X373111329Y106599600D01*
X373112489Y106511290D01*
X373113200Y106418269D01*
X373113460Y106322933D01*
X373113270Y106227678D01*
X373112627Y106134902D01*
X373111532Y106047000D01*
X373109985Y105966369D01*
X373107983Y105895405D01*
X373105526Y105836505D01*
X373102615Y105792065D01*
X373102522Y105791000D01*
X373077345Y105547723D01*
X373045651Y105318824D01*
X373007105Y105102918D01*
X372961371Y104898619D01*
X372908115Y104704540D01*
X372847001Y104519295D01*
X372777694Y104341500D01*
X372721396Y104214894D01*
X372654445Y104082517D01*
X372576501Y103946524D01*
X372490918Y103812295D01*
X372401050Y103685211D01*
X372350205Y103619300D01*
X372311166Y103572864D01*
X372262006Y103518235D01*
X372205467Y103458154D01*
X372144293Y103395365D01*
X372081226Y103332610D01*
X372019010Y103272632D01*
X371960389Y103218174D01*
X371908105Y103171978D01*
X371877167Y103146361D01*
X371712631Y103023845D01*
X371546725Y102917710D01*
X371378366Y102827408D01*
X371206469Y102752388D01*
X371029951Y102692102D01*
X370924667Y102663582D01*
X370732898Y102624956D01*
X370537121Y102602094D01*
X370339399Y102594989D01*
X370141795Y102603637D01*
X369946370Y102628030D01*
X369758915Y102667215D01*
X369583341Y102719992D01*
X369415795Y102787489D01*
X369256189Y102869773D01*
X369104439Y102966912D01*
X368960458Y103078972D01*
X368824160Y103206021D01*
X368695460Y103348126D01*
X368574272Y103505354D01*
X368460510Y103677773D01*
X368452306Y103691266D01*
X368409219Y103765850D01*
X368363326Y103851102D01*
X368317322Y103941680D01*
X368273904Y104032236D01*
X368235766Y104117427D01*
X368227112Y104137883D01*
X368212982Y104170741D01*
X368201002Y104196731D01*
X368192743Y104212549D01*
X368190069Y104215810D01*
X368185244Y104208435D01*
X368174170Y104188003D01*
X368157973Y104156704D01*
X368137779Y104116724D01*
X368114712Y104070253D01*
X368104080Y104048593D01*
X368017703Y103881169D01*
X367929079Y103728109D01*
X367836434Y103586851D01*
X367737993Y103454832D01*
X367631983Y103329489D01*
X367535346Y103227040D01*
X367394903Y103095743D01*
X367248553Y102980234D01*
X367095795Y102880251D01*
X366936130Y102795534D01*
X366769057Y102725824D01*
X366594075Y102670859D01*
X366410683Y102630379D01*
X366376896Y102624636D01*
X366339658Y102619397D01*
X366292133Y102613919D01*
X366237805Y102608481D01*
X366180157Y102603361D01*
X366122672Y102598837D01*
X366068834Y102595187D01*
X366022126Y102592688D01*
X365986030Y102591620D01*
X365967434Y102591961D01*
X365952615Y102592923D01*
X365924902Y102594706D01*
X365888298Y102597052D01*
X365848039Y102599626D01*
X365662171Y102619967D01*
X365478269Y102657107D01*
X365296404Y102711018D01*
X365116650Y102781672D01*
X364939078Y102869041D01*
X364763762Y102973097D01*
X364612069Y103077959D01*
X364566267Y103112731D01*
X364514844Y103153319D01*
X364464736Y103194178D01*
X364430036Y103223524D01*
X364379712Y103268737D01*
X364322484Y103322939D01*
X364261185Y103383214D01*
X364198655Y103446644D01*
X364137728Y103510314D01*
X364081241Y103571306D01*
X364032030Y103626706D01*
X363995723Y103670100D01*
X363906935Y103787782D01*
X363819950Y103916311D01*
X363738207Y104050165D01*
X363665145Y104183821D01*
X363625708Y104264182D01*
X363536567Y104472257D01*
X363459194Y104689959D01*
X363393505Y104917716D01*
X363339419Y105155955D01*
X363296854Y105405102D01*
X363265729Y105665585D01*
X363245962Y105937831D01*
X363237470Y106222268D01*
X363237100Y106294766D01*
X363242716Y106598897D01*
X363259811Y106890695D01*
X363288417Y107170307D01*
X363328567Y107437882D01*
X363380294Y107693565D01*
X363443630Y107937504D01*
X363518608Y108169846D01*
X363605261Y108390738D01*
X363703621Y108600326D01*
X363782602Y108745867D01*
X363916353Y108963365D01*
X364059810Y109168297D01*
X364212577Y109360332D01*
X364374253Y109539137D01*
X364544442Y109704379D01*
X364722743Y109855726D01*
X364908761Y109992847D01*
X365102094Y110115408D01*
X365302347Y110223078D01*
X365509119Y110315523D01*
X365722013Y110392413D01*
X365776934Y110409401D01*
X366024577Y110475475D01*
X366281660Y110528617D01*
X366546400Y110568569D01*
X366817009Y110595077D01*
X367091702Y110607885D01*
X367169700Y110608985D01*
X367322100Y110610045D01*
X367324408Y110456889D01*
X367326715Y110303733D01*
X367256674Y110303726D01*
X367141503Y110299561D01*
X367016720Y110287541D01*
X366887340Y110268346D01*
X366758377Y110242657D01*
X366695567Y110227576D01*
X366516810Y110173469D01*
X366345491Y110104230D01*
X366181787Y110020030D01*
X366025876Y109921034D01*
X365877936Y109807412D01*
X365738143Y109679330D01*
X365606677Y109536957D01*
X365483714Y109380461D01*
X365369432Y109210009D01*
X365264009Y109025769D01*
X365167623Y108827909D01*
X365135574Y108754333D01*
X365061201Y108563945D01*
X364994917Y108363480D01*
X364936544Y108152108D01*
X364885902Y107928998D01*
X364842810Y107693318D01*
X364807090Y107444239D01*
X364778561Y107180928D01*
X364767626Y107052533D01*
X364765071Y107009594D01*
X364762852Y106951763D01*
X364760968Y106881079D01*
X364759419Y106799581D01*
X364758206Y106709308D01*
X364757327Y106612298D01*
X364756782Y106510590D01*
X364756572Y106406223D01*
X364756696Y106301235D01*
X364757153Y106197665D01*
X364757945Y106097552D01*
X364759069Y106002934D01*
X364760527Y105915850D01*
X364762317Y105838338D01*
X364764441Y105772438D01*
X364766896Y105720187D01*
X364767777Y105706333D01*
X364785425Y105479195D01*
X364805941Y105267935D01*
X364829527Y105071711D01*
X364856384Y104889680D01*
X364886716Y104720998D01*
X364920724Y104564822D01*
X364958611Y104420308D01*
X365000579Y104286614D01*
X365046831Y104162896D01*
X365097569Y104048310D01*
X365152995Y103942014D01*
X365213312Y103843164D01*
X365215777Y103839433D01*
X365314617Y103701056D01*
X365416913Y103579185D01*
X365522789Y103473725D01*
X365632366Y103384581D01*
X365745766Y103311658D01*
X365863111Y103254859D01*
X365984523Y103214091D01*
X366030934Y103202958D01*
X366088390Y103194035D01*
X366157468Y103188699D01*
X366233252Y103186904D01*
X366310826Y103188603D01*
X366385271Y103193748D01*
X366451673Y103202294D01*
X366477542Y103207219D01*
X366620021Y103246100D01*
X366761905Y103300747D01*
X366901259Y103370045D01*
X367036153Y103452879D01*
X367164651Y103548136D01*
X367284822Y103654700D01*
X367327071Y103697065D01*
X367365160Y103738089D01*
X367400584Y103779797D01*
X367434099Y103823616D01*
X367466461Y103870969D01*
X367498427Y103923282D01*
X367530754Y103981979D01*
X367564198Y104048485D01*
X367599515Y104124224D01*
X367637463Y104210622D01*
X367678798Y104309103D01*
X367724275Y104421092D01*
X367762333Y104516766D01*
X367807738Y104632358D01*
X367846622Y104732760D01*
X367879122Y104818354D01*
X367905375Y104889521D01*
X367925516Y104946641D01*
X367939684Y104990095D01*
X367948015Y105020265D01*
X367950646Y105037529D01*
X367950383Y105040091D01*
X367945373Y105054532D01*
X367934715Y105080802D01*
X367919894Y105115368D01*
X367902395Y105154701D01*
X367899411Y105161277D01*
X367789391Y105423251D01*
X367693973Y105693167D01*
X367613343Y105970086D01*
X367547686Y106253068D01*
X367497189Y106541171D01*
X367462037Y106833457D01*
X367442415Y107128985D01*
X367438509Y107426815D01*
X367439698Y107489395D01*
X367447479Y107699868D01*
X367460150Y107894568D01*
X367477815Y108073965D01*
X367500582Y108238529D01*
X367528556Y108388731D01*
X367561842Y108525040D01*
X367600547Y108647927D01*
X367644775Y108757862D01*
X367694634Y108855315D01*
X367750228Y108940757D01*
X367772763Y108970028D01*
X367839558Y109040437D01*
X367914470Y109096852D01*
X367996116Y109138652D01*
X368083113Y109165216D01*
X368174078Y109175925D01*
X368228785Y109174575D01*
X368323363Y109159880D01*
X368410999Y109130797D01*
X368491750Y109087215D01*
X368565672Y109029022D01*
X368632822Y108956108D01*
X368693259Y108868360D01*
X368747039Y108765668D01*
X368794220Y108647921D01*
X368834858Y108515006D01*
X368869011Y108366814D01*
X368896737Y108203232D01*
X368918092Y108024149D01*
X368933133Y107829455D01*
X368934690Y107801833D01*
X368942671Y107505030D01*
X368934518Y107207758D01*
X368910168Y106909668D01*
X368869557Y106610411D01*
X368812621Y106309637D01*
X368739295Y106006999D01*
X368649516Y105702146D01*
X368543219Y105394729D01*
X368449033Y105153508D01*
X368432249Y105111735D01*
X368418075Y105074917D01*
X368407662Y105046169D01*
X368402166Y105028607D01*
X368401600Y105025314D01*
X368404475Y105012489D01*
X368412535Y104986225D01*
X368424935Y104948905D01*
X368440830Y104902914D01*
X368459374Y104850633D01*
X368479722Y104794448D01*
X368501029Y104736741D01*
X368522449Y104679897D01*
X368542928Y104626833D01*
X368566341Y104570105D01*
X368595934Y104503208D01*
X368630154Y104429280D01*
X368667446Y104351455D01*
X368706258Y104272868D01*
X368745035Y104196656D01*
X368782225Y104125954D01*
X368816273Y104063897D01*
X368845627Y104013621D01*
X368851249Y104004533D01*
X368954963Y103850313D01*
X369062521Y103712459D01*
X369174148Y103590796D01*
X369290066Y103485150D01*
X369410499Y103395344D01*
X369535667Y103321205D01*
X369665796Y103262557D01*
X369801107Y103219225D01*
X369871634Y103203076D01*
X369924254Y103195307D01*
X369988108Y103190144D01*
X370058560Y103187583D01*
X370130975Y103187617D01*
X370200717Y103190242D01*
X370263149Y103195453D01*
X370313636Y103203246D01*
X370315067Y103203551D01*
X370449094Y103241143D01*
X370577944Y103294847D01*
X370701578Y103364642D01*
X370819960Y103450507D01*
X370933053Y103552420D01*
X370960110Y103580000D01*
X371065452Y103698351D01*
X371156627Y103819489D01*
X371235412Y103946383D01*
X371303586Y104081997D01*
X371362930Y104229299D01*
X371381313Y104282278D01*
X371428416Y104438846D01*
X371470339Y104610974D01*
X371507024Y104798082D01*
X371538414Y104999589D01*
X371564453Y105214914D01*
X371585083Y105443478D01*
X371600247Y105684701D01*
X371609887Y105938002D01*
X371613948Y106202801D01*
X371612370Y106478518D01*
X371609908Y106601785D01*
X371601220Y106862808D01*
X371588044Y107108408D01*
X371570201Y107339539D01*
X371547512Y107557154D01*
X371519798Y107762207D01*
X371486879Y107955652D01*
X371448577Y108138442D01*
X371404712Y108311530D01*
X371355106Y108475869D01*
X371299580Y108632415D01*
X371237954Y108782118D01*
X371175429Y108915200D01*
X371071815Y109106121D01*
X370958310Y109283413D01*
X370835083Y109446963D01*
X370702302Y109596655D01*
X370560136Y109732376D01*
X370408753Y109854013D01*
X370248323Y109961450D01*
X370079013Y110054574D01*
X369900992Y110133271D01*
X369714429Y110197427D01*
X369519493Y110246927D01*
X369316352Y110281659D01*
X369127430Y110300144D01*
X369036227Y110306069D01*
X369038530Y110458074D01*
X369040834Y110610079D01*
X369189000Y110609119D01*
G37*
X369189000Y110609119D02*
X369409810Y110602966D01*
X369630451Y110587617D01*
X369848635Y110563457D01*
X370062077Y110530872D01*
X370268490Y110490248D01*
X370465587Y110441972D01*
X370651081Y110386429D01*
X370780733Y110340418D01*
X370989322Y110251811D01*
X371192224Y110147531D01*
X371388852Y110028055D01*
X371578614Y109893858D01*
X371760922Y109745417D01*
X371935184Y109583206D01*
X372100812Y109407703D01*
X372257216Y109219382D01*
X372384942Y109046037D01*
X372499391Y108872811D01*
X372602773Y108697158D01*
X372695531Y108517732D01*
X372778106Y108333185D01*
X372850938Y108142172D01*
X372914469Y107943346D01*
X372969141Y107735360D01*
X373015395Y107516869D01*
X373053672Y107286526D01*
X373084414Y107042985D01*
X373102206Y106857800D01*
X373105157Y106812299D01*
X373107662Y106752501D01*
X373109720Y106680803D01*
X373111329Y106599600D01*
X373112489Y106511290D01*
X373113200Y106418269D01*
X373113460Y106322933D01*
X373113270Y106227678D01*
X373112627Y106134902D01*
X373111532Y106047000D01*
X373109985Y105966369D01*
X373107983Y105895405D01*
X373105526Y105836505D01*
X373102615Y105792065D01*
X373102522Y105791000D01*
X373077345Y105547723D01*
X373045651Y105318824D01*
X373007105Y105102918D01*
X372961371Y104898619D01*
X372908115Y104704540D01*
X372847001Y104519295D01*
X372777694Y104341500D01*
X372721396Y104214894D01*
X372654445Y104082517D01*
X372576501Y103946524D01*
X372490918Y103812295D01*
X372401050Y103685211D01*
X372350205Y103619300D01*
X372311166Y103572864D01*
X372262006Y103518235D01*
X372205467Y103458154D01*
X372144293Y103395365D01*
X372081226Y103332610D01*
X372019010Y103272632D01*
X371960389Y103218174D01*
X371908105Y103171978D01*
X371877167Y103146361D01*
X371712631Y103023845D01*
X371546725Y102917710D01*
X371378366Y102827408D01*
X371206469Y102752388D01*
X371029951Y102692102D01*
X370924667Y102663582D01*
X370732898Y102624956D01*
X370537121Y102602094D01*
X370339399Y102594989D01*
X370141795Y102603637D01*
X369946370Y102628030D01*
X369758915Y102667215D01*
X369583341Y102719992D01*
X369415795Y102787489D01*
X369256189Y102869773D01*
X369104439Y102966912D01*
X368960458Y103078972D01*
X368824160Y103206021D01*
X368695460Y103348126D01*
X368574272Y103505354D01*
X368460510Y103677773D01*
X368452306Y103691266D01*
X368409219Y103765850D01*
X368363326Y103851102D01*
X368317322Y103941680D01*
X368273904Y104032236D01*
X368235766Y104117427D01*
X368227112Y104137883D01*
X368212982Y104170741D01*
X368201002Y104196731D01*
X368192743Y104212549D01*
X368190069Y104215810D01*
X368185244Y104208435D01*
X368174170Y104188003D01*
X368157973Y104156704D01*
X368137779Y104116724D01*
X368114712Y104070253D01*
X368104080Y104048593D01*
X368017703Y103881169D01*
X367929079Y103728109D01*
X367836434Y103586851D01*
X367737993Y103454832D01*
X367631983Y103329489D01*
X367535346Y103227040D01*
X367394903Y103095743D01*
X367248553Y102980234D01*
X367095795Y102880251D01*
X366936130Y102795534D01*
X366769057Y102725824D01*
X366594075Y102670859D01*
X366410683Y102630379D01*
X366376896Y102624636D01*
X366339658Y102619397D01*
X366292133Y102613919D01*
X366237805Y102608481D01*
X366180157Y102603361D01*
X366122672Y102598837D01*
X366068834Y102595187D01*
X366022126Y102592688D01*
X365986030Y102591620D01*
X365967434Y102591961D01*
X365952615Y102592923D01*
X365924902Y102594706D01*
X365888298Y102597052D01*
X365848039Y102599626D01*
X365662171Y102619967D01*
X365478269Y102657107D01*
X365296404Y102711018D01*
X365116650Y102781672D01*
X364939078Y102869041D01*
X364763762Y102973097D01*
X364612069Y103077959D01*
X364566267Y103112731D01*
X364514844Y103153319D01*
X364464736Y103194178D01*
X364430036Y103223524D01*
X364379712Y103268737D01*
X364322484Y103322939D01*
X364261185Y103383214D01*
X364198655Y103446644D01*
X364137728Y103510314D01*
X364081241Y103571306D01*
X364032030Y103626706D01*
X363995723Y103670100D01*
X363906935Y103787782D01*
X363819950Y103916311D01*
X363738207Y104050165D01*
X363665145Y104183821D01*
X363625708Y104264182D01*
X363536567Y104472257D01*
X363459194Y104689959D01*
X363393505Y104917716D01*
X363339419Y105155955D01*
X363296854Y105405102D01*
X363265729Y105665585D01*
X363245962Y105937831D01*
X363237470Y106222268D01*
X363237100Y106294766D01*
X363242716Y106598897D01*
X363259811Y106890695D01*
X363288417Y107170307D01*
X363328567Y107437882D01*
X363380294Y107693565D01*
X363443630Y107937504D01*
X363518608Y108169846D01*
X363605261Y108390738D01*
X363703621Y108600326D01*
X363782602Y108745867D01*
X363916353Y108963365D01*
X364059810Y109168297D01*
X364212577Y109360332D01*
X364374253Y109539137D01*
X364544442Y109704379D01*
X364722743Y109855726D01*
X364908761Y109992847D01*
X365102094Y110115408D01*
X365302347Y110223078D01*
X365509119Y110315523D01*
X365722013Y110392413D01*
X365776934Y110409401D01*
X366024577Y110475475D01*
X366281660Y110528617D01*
X366546400Y110568569D01*
X366817009Y110595077D01*
X367091702Y110607885D01*
X367169700Y110608985D01*
X367322100Y110610045D01*
X367324408Y110456889D01*
X367326715Y110303733D01*
X367256674Y110303726D01*
X367141503Y110299561D01*
X367016720Y110287541D01*
X366887340Y110268346D01*
X366758377Y110242657D01*
X366695567Y110227576D01*
X366516810Y110173469D01*
X366345491Y110104230D01*
X366181787Y110020030D01*
X366025876Y109921034D01*
X365877936Y109807412D01*
X365738143Y109679330D01*
X365606677Y109536957D01*
X365483714Y109380461D01*
X365369432Y109210009D01*
X365264009Y109025769D01*
X365167623Y108827909D01*
X365135574Y108754333D01*
X365061201Y108563945D01*
X364994917Y108363480D01*
X364936544Y108152108D01*
X364885902Y107928998D01*
X364842810Y107693318D01*
X364807090Y107444239D01*
X364778561Y107180928D01*
X364767626Y107052533D01*
X364765071Y107009594D01*
X364762852Y106951763D01*
X364760968Y106881079D01*
X364759419Y106799581D01*
X364758206Y106709308D01*
X364757327Y106612298D01*
X364756782Y106510590D01*
X364756572Y106406223D01*
X364756696Y106301235D01*
X364757153Y106197665D01*
X364757945Y106097552D01*
X364759069Y106002934D01*
X364760527Y105915850D01*
X364762317Y105838338D01*
X364764441Y105772438D01*
X364766896Y105720187D01*
X364767777Y105706333D01*
X364785425Y105479195D01*
X364805941Y105267935D01*
X364829527Y105071711D01*
X364856384Y104889680D01*
X364886716Y104720998D01*
X364920724Y104564822D01*
X364958611Y104420308D01*
X365000579Y104286614D01*
X365046831Y104162896D01*
X365097569Y104048310D01*
X365152995Y103942014D01*
X365213312Y103843164D01*
X365215777Y103839433D01*
X365314617Y103701056D01*
X365416913Y103579185D01*
X365522789Y103473725D01*
X365632366Y103384581D01*
X365745766Y103311658D01*
X365863111Y103254859D01*
X365984523Y103214091D01*
X366030934Y103202958D01*
X366088390Y103194035D01*
X366157468Y103188699D01*
X366233252Y103186904D01*
X366310826Y103188603D01*
X366385271Y103193748D01*
X366451673Y103202294D01*
X366477542Y103207219D01*
X366620021Y103246100D01*
X366761905Y103300747D01*
X366901259Y103370045D01*
X367036153Y103452879D01*
X367164651Y103548136D01*
X367284822Y103654700D01*
X367327071Y103697065D01*
X367365160Y103738089D01*
X367400584Y103779797D01*
X367434099Y103823616D01*
X367466461Y103870969D01*
X367498427Y103923282D01*
X367530754Y103981979D01*
X367564198Y104048485D01*
X367599515Y104124224D01*
X367637463Y104210622D01*
X367678798Y104309103D01*
X367724275Y104421092D01*
X367762333Y104516766D01*
X367807738Y104632358D01*
X367846622Y104732760D01*
X367879122Y104818354D01*
X367905375Y104889521D01*
X367925516Y104946641D01*
X367939684Y104990095D01*
X367948015Y105020265D01*
X367950646Y105037529D01*
X367950383Y105040091D01*
X367945373Y105054532D01*
X367934715Y105080802D01*
X367919894Y105115368D01*
X367902395Y105154701D01*
X367899411Y105161277D01*
X367789391Y105423251D01*
X367693973Y105693167D01*
X367613343Y105970086D01*
X367547686Y106253068D01*
X367497189Y106541171D01*
X367462037Y106833457D01*
X367442415Y107128985D01*
X367438509Y107426815D01*
X367439698Y107489395D01*
X367447479Y107699868D01*
X367460150Y107894568D01*
X367477815Y108073965D01*
X367500582Y108238529D01*
X367528556Y108388731D01*
X367561842Y108525040D01*
X367600547Y108647927D01*
X367644775Y108757862D01*
X367694634Y108855315D01*
X367750228Y108940757D01*
X367772763Y108970028D01*
X367839558Y109040437D01*
X367914470Y109096852D01*
X367996116Y109138652D01*
X368083113Y109165216D01*
X368174078Y109175925D01*
X368228785Y109174575D01*
X368323363Y109159880D01*
X368410999Y109130797D01*
X368491750Y109087215D01*
X368565672Y109029022D01*
X368632822Y108956108D01*
X368693259Y108868360D01*
X368747039Y108765668D01*
X368794220Y108647921D01*
X368834858Y108515006D01*
X368869011Y108366814D01*
X368896737Y108203232D01*
X368918092Y108024149D01*
X368933133Y107829455D01*
X368934690Y107801833D01*
X368942671Y107505030D01*
X368934518Y107207758D01*
X368910168Y106909668D01*
X368869557Y106610411D01*
X368812621Y106309637D01*
X368739295Y106006999D01*
X368649516Y105702146D01*
X368543219Y105394729D01*
X368449033Y105153508D01*
X368432249Y105111735D01*
X368418075Y105074917D01*
X368407662Y105046169D01*
X368402166Y105028607D01*
X368401600Y105025314D01*
X368404475Y105012489D01*
X368412535Y104986225D01*
X368424935Y104948905D01*
X368440830Y104902914D01*
X368459374Y104850633D01*
X368479722Y104794448D01*
X368501029Y104736741D01*
X368522449Y104679897D01*
X368542928Y104626833D01*
X368566341Y104570105D01*
X368595934Y104503208D01*
X368630154Y104429280D01*
X368667446Y104351455D01*
X368706258Y104272868D01*
X368745035Y104196656D01*
X368782225Y104125954D01*
X368816273Y104063897D01*
X368845627Y104013621D01*
X368851249Y104004533D01*
X368954963Y103850313D01*
X369062521Y103712459D01*
X369174148Y103590796D01*
X369290066Y103485150D01*
X369410499Y103395344D01*
X369535667Y103321205D01*
X369665796Y103262557D01*
X369801107Y103219225D01*
X369871634Y103203076D01*
X369924254Y103195307D01*
X369988108Y103190144D01*
X370058560Y103187583D01*
X370130975Y103187617D01*
X370200717Y103190242D01*
X370263149Y103195453D01*
X370313636Y103203246D01*
X370315067Y103203551D01*
X370449094Y103241143D01*
X370577944Y103294847D01*
X370701578Y103364642D01*
X370819960Y103450507D01*
X370933053Y103552420D01*
X370960110Y103580000D01*
X371065452Y103698351D01*
X371156627Y103819489D01*
X371235412Y103946383D01*
X371303586Y104081997D01*
X371362930Y104229299D01*
X371381313Y104282278D01*
X371428416Y104438846D01*
X371470339Y104610974D01*
X371507024Y104798082D01*
X371538414Y104999589D01*
X371564453Y105214914D01*
X371585083Y105443478D01*
X371600247Y105684701D01*
X371609887Y105938002D01*
X371613948Y106202801D01*
X371612370Y106478518D01*
X371609908Y106601785D01*
X371601220Y106862808D01*
X371588044Y107108408D01*
X371570201Y107339539D01*
X371547512Y107557154D01*
X371519798Y107762207D01*
X371486879Y107955652D01*
X371448577Y108138442D01*
X371404712Y108311530D01*
X371355106Y108475869D01*
X371299580Y108632415D01*
X371237954Y108782118D01*
X371175429Y108915200D01*
X371071815Y109106121D01*
X370958310Y109283413D01*
X370835083Y109446963D01*
X370702302Y109596655D01*
X370560136Y109732376D01*
X370408753Y109854013D01*
X370248323Y109961450D01*
X370079013Y110054574D01*
X369900992Y110133271D01*
X369714429Y110197427D01*
X369519493Y110246927D01*
X369316352Y110281659D01*
X369127430Y110300144D01*
X369036227Y110306069D01*
X369038530Y110458074D01*
X369040834Y110610079D01*
X369189000Y110609119D01*
G36*
X376597333Y114097837D02*
G01*
X376557117Y114092155D01*
X376454086Y114073236D01*
X376350970Y114046139D01*
X376251863Y114012283D01*
X376160858Y113973085D01*
X376082048Y113929964D01*
X376073758Y113924692D01*
X375991505Y113862677D01*
X375923755Y113792161D01*
X375870008Y113712408D01*
X375829762Y113622685D01*
X375804045Y113529821D01*
X375797771Y113483844D01*
X375794870Y113426893D01*
X375795172Y113364426D01*
X375798508Y113301897D01*
X375804709Y113244765D01*
X375813605Y113198484D01*
X375814430Y113195405D01*
X375848996Y113098282D01*
X375897191Y113008918D01*
X375959295Y112927096D01*
X376035591Y112852601D01*
X376126359Y112785216D01*
X376231879Y112724726D01*
X376352434Y112670912D01*
X376488304Y112623561D01*
X376597333Y112592947D01*
X376711633Y112563693D01*
X376779367Y112634114D01*
X376971562Y112823470D01*
X377177824Y113006964D01*
X377395780Y113182792D01*
X377623056Y113349151D01*
X377857280Y113504237D01*
X378096078Y113646247D01*
X378151589Y113676974D01*
X378284517Y113745418D01*
X378418501Y113806529D01*
X378552125Y113859986D01*
X378683973Y113905465D01*
X378812628Y113942643D01*
X378936674Y113971199D01*
X379054696Y113990809D01*
X379165276Y114001151D01*
X379266998Y114001902D01*
X379358446Y113992740D01*
X379438204Y113973342D01*
X379443937Y113971373D01*
X379510917Y113939725D01*
X379565888Y113896338D01*
X379608597Y113841661D01*
X379638790Y113776141D01*
X379656214Y113700227D01*
X379660616Y113614368D01*
X379659540Y113589543D01*
X379652923Y113521854D01*
X379641049Y113461878D01*
X379622142Y113402936D01*
X379594428Y113338349D01*
X379590743Y113330566D01*
X379535302Y113231898D01*
X379463095Y113133061D01*
X379374285Y113034227D01*
X379269037Y112935569D01*
X379147514Y112837257D01*
X379059065Y112773058D01*
X378865636Y112647730D01*
X378664527Y112536223D01*
X378455293Y112438396D01*
X378237487Y112354109D01*
X378010664Y112283219D01*
X377774379Y112225585D01*
X377528185Y112181067D01*
X377271638Y112149522D01*
X377037621Y112132417D01*
X376864075Y112123535D01*
X376823374Y112083584D01*
X376802279Y112061756D01*
X376773884Y112030818D01*
X376741714Y111994681D01*
X376709294Y111957258D01*
X376705313Y111952582D01*
X376582484Y111797383D01*
X376476496Y111640734D01*
X376387315Y111482570D01*
X376314906Y111322827D01*
X376259234Y111161442D01*
X376243512Y111103833D01*
X376228750Y111044323D01*
X376217316Y110993629D01*
X376208796Y110948039D01*
X376202779Y110903842D01*
X376198851Y110857328D01*
X376196598Y110804784D01*
X376195609Y110742501D01*
X376195461Y110672033D01*
X376195727Y110604838D01*
X376196443Y110551490D01*
X376197817Y110508906D01*
X376200054Y110474000D01*
X376203360Y110443688D01*
X376207942Y110414887D01*
X376214006Y110384512D01*
X376214990Y110379933D01*
X376256234Y110227535D01*
X376312538Y110082221D01*
X376384016Y109943835D01*
X376470782Y109812217D01*
X376572949Y109687210D01*
X376690630Y109568656D01*
X376823939Y109456397D01*
X376937504Y109374015D01*
X376977107Y109347030D01*
X377149170Y109434413D01*
X377404986Y109556395D01*
X377661898Y109662819D01*
X377921541Y109754149D01*
X378185551Y109830852D01*
X378455562Y109893393D01*
X378733210Y109942237D01*
X379020128Y109977849D01*
X379078067Y109983361D01*
X379135241Y109987454D01*
X379203523Y109990576D01*
X379279980Y109992741D01*
X379361676Y109993965D01*
X379445678Y109994260D01*
X379529049Y109993642D01*
X379608857Y109992125D01*
X379682166Y109989723D01*
X379746042Y109986452D01*
X379797550Y109982325D01*
X379819501Y109979702D01*
X379942192Y109958207D01*
X380049452Y109930389D01*
X380141652Y109896012D01*
X380219163Y109854838D01*
X380282356Y109806628D01*
X380331603Y109751145D01*
X380367276Y109688151D01*
X380389744Y109617409D01*
X380390462Y109613982D01*
X380397900Y109537401D01*
X380388689Y109462303D01*
X380363076Y109389021D01*
X380321307Y109317894D01*
X380263629Y109249258D01*
X380190286Y109183449D01*
X380101526Y109120803D01*
X379997595Y109061658D01*
X379979767Y109052638D01*
X379847611Y108994149D01*
X379702366Y108943871D01*
X379543564Y108901684D01*
X379370739Y108867468D01*
X379183422Y108841103D01*
X379132022Y108835492D01*
X378970334Y108821964D01*
X378794929Y108813044D01*
X378608357Y108808644D01*
X378413170Y108808677D01*
X378211920Y108813055D01*
X378007157Y108821691D01*
X377801434Y108834496D01*
X377597302Y108851384D01*
X377397311Y108872266D01*
X377204014Y108897056D01*
X377161960Y108903126D01*
X377078886Y108915374D01*
X376958760Y108836416D01*
X376726907Y108677608D01*
X376506628Y108513717D01*
X376298680Y108345445D01*
X376103820Y108173491D01*
X375922805Y107998557D01*
X375756391Y107821344D01*
X375605335Y107642553D01*
X375470393Y107462885D01*
X375460161Y107448271D01*
X375333307Y107252843D01*
X375223109Y107054750D01*
X375129460Y106853708D01*
X375052250Y106649436D01*
X374991372Y106441650D01*
X374946717Y106230068D01*
X374920778Y106040734D01*
X374915757Y105976768D01*
X374912540Y105902523D01*
X374911096Y105822263D01*
X374911393Y105740249D01*
X374913398Y105660746D01*
X374917080Y105588016D01*
X374922408Y105526322D01*
X374924759Y105507366D01*
X374956315Y105336732D01*
X375002940Y105173437D01*
X375064486Y105017828D01*
X375140806Y104870252D01*
X375231753Y104731055D01*
X375282483Y104664933D01*
X375328355Y104611951D01*
X375383524Y104554288D01*
X375444061Y104495627D01*
X375506036Y104439651D01*
X375565521Y104390045D01*
X375616146Y104352172D01*
X375744003Y104272993D01*
X375885735Y104202803D01*
X376040800Y104141715D01*
X376208654Y104089840D01*
X376388752Y104047291D01*
X376580552Y104014179D01*
X376783510Y103990616D01*
X376997083Y103976713D01*
X377220726Y103972583D01*
X377437079Y103977602D01*
X377510580Y103980932D01*
X377588891Y103984866D01*
X377667375Y103989146D01*
X377741398Y103993510D01*
X377806323Y103997701D01*
X377843290Y104000348D01*
X378052430Y104015847D01*
X378244845Y104029395D01*
X378420627Y104040997D01*
X378579870Y104050658D01*
X378722669Y104058382D01*
X378849118Y104064175D01*
X378959309Y104068041D01*
X379053338Y104069984D01*
X379131298Y104070011D01*
X379183900Y104068578D01*
X379371081Y104054271D01*
X379546143Y104028374D01*
X379709513Y103990668D01*
X379861620Y103940934D01*
X380002890Y103878953D01*
X380133751Y103804507D01*
X380254632Y103717378D01*
X380365959Y103617347D01*
X380468160Y103504195D01*
X380561663Y103377703D01*
X380575158Y103357269D01*
X380671257Y103194471D01*
X380755021Y103020674D01*
X380826086Y102836855D01*
X380884088Y102643991D01*
X380928663Y102443059D01*
X380939754Y102378933D01*
X380950376Y102310703D01*
X380958924Y102249038D01*
X380965607Y102190789D01*
X380970632Y102132810D01*
X380974208Y102071953D01*
X380976541Y102005068D01*
X380977839Y101929010D01*
X380978311Y101840629D01*
X380978308Y101794733D01*
X380977700Y101689006D01*
X380976002Y101596714D01*
X380972950Y101514379D01*
X380968284Y101438524D01*
X380961739Y101365670D01*
X380953055Y101292340D01*
X380941968Y101215056D01*
X380928215Y101130339D01*
X380928144Y101129919D01*
X380885189Y100919748D01*
X380829301Y100719661D01*
X380760616Y100529926D01*
X380679273Y100350808D01*
X380585407Y100182574D01*
X380479155Y100025489D01*
X380360655Y99879820D01*
X380230043Y99745834D01*
X380204811Y99722573D01*
X380043025Y99584767D01*
X379879672Y99463521D01*
X379714014Y99358482D01*
X379545312Y99269298D01*
X379372829Y99195615D01*
X379195826Y99137081D01*
X379013565Y99093343D01*
X378828004Y99064362D01*
X378785608Y99060556D01*
X378731482Y99057427D01*
X378669453Y99055030D01*
X378603345Y99053422D01*
X378536983Y99052660D01*
X378474191Y99052800D01*
X378418795Y99053898D01*
X378374620Y99056012D01*
X378358400Y99057417D01*
X378291401Y99066356D01*
X378217881Y99079127D01*
X378143762Y99094505D01*
X378074964Y99111266D01*
X378019608Y99127460D01*
X377897733Y99173739D01*
X377788658Y99228203D01*
X377692892Y99290387D01*
X377610946Y99359825D01*
X377543328Y99436051D01*
X377490549Y99518601D01*
X377453119Y99607009D01*
X377439431Y99657184D01*
X377431370Y99709861D01*
X377427830Y99771032D01*
X377428611Y99835478D01*
X377433514Y99897982D01*
X377442340Y99953329D01*
X377452105Y99988986D01*
X377488984Y100068304D01*
X377539953Y100140847D01*
X377602967Y100204965D01*
X377675976Y100259010D01*
X377756935Y100301333D01*
X377843795Y100330285D01*
X377886593Y100338887D01*
X377941269Y100344965D01*
X377997991Y100345703D01*
X378059113Y100340754D01*
X378126991Y100329769D01*
X378203978Y100312402D01*
X378292430Y100288303D01*
X378354167Y100269797D01*
X378491630Y100228368D01*
X378615249Y100193191D01*
X378726783Y100163937D01*
X378827991Y100140279D01*
X378920630Y100121886D01*
X379006459Y100108430D01*
X379087236Y100099582D01*
X379164721Y100095013D01*
X379240671Y100094395D01*
X379284980Y100095729D01*
X379424115Y100107938D01*
X379552286Y100132353D01*
X379670815Y100169527D01*
X379781025Y100220012D01*
X379884239Y100284362D01*
X379981779Y100363129D01*
X380026583Y100405832D01*
X380124349Y100515485D01*
X380208055Y100634538D01*
X380277671Y100762911D01*
X380333164Y100900522D01*
X380374506Y101047288D01*
X380401664Y101203129D01*
X380414609Y101367962D01*
X380415800Y101437932D01*
X380411639Y101561811D01*
X380398656Y101674303D01*
X380376101Y101778908D01*
X380343226Y101879123D01*
X380300556Y101975872D01*
X380239006Y102086421D01*
X380170490Y102182288D01*
X380094014Y102264176D01*
X380008589Y102332784D01*
X379913221Y102388815D01*
X379806920Y102432969D01*
X379688694Y102465947D01*
X379579840Y102485470D01*
X379549935Y102489307D01*
X379519556Y102492287D01*
X379486443Y102494460D01*
X379448336Y102495878D01*
X379402974Y102496592D01*
X379348098Y102496653D01*
X379281447Y102496112D01*
X379200760Y102495020D01*
X379175433Y102494625D01*
X379092067Y102493000D01*
X379002585Y102490742D01*
X378911275Y102487993D01*
X378822423Y102484896D01*
X378740318Y102481594D01*
X378669247Y102478230D01*
X378646267Y102476979D01*
X378508751Y102469207D01*
X378386234Y102462432D01*
X378276816Y102456588D01*
X378178595Y102451605D01*
X378089671Y102447418D01*
X378008143Y102443957D01*
X377932111Y102441157D01*
X377859674Y102438948D01*
X377788931Y102437263D01*
X377717982Y102436036D01*
X377644925Y102435197D01*
X377567860Y102434681D01*
X377484887Y102434418D01*
X377448233Y102434367D01*
X377342488Y102434375D01*
X377251430Y102434709D01*
X377172815Y102435509D01*
X377104399Y102436910D01*
X377043937Y102439052D01*
X376989185Y102442071D01*
X376937897Y102446106D01*
X376887830Y102451294D01*
X376836739Y102457773D01*
X376782379Y102465680D01*
X376722505Y102475153D01*
X376686233Y102481110D01*
X376453605Y102527415D01*
X376230394Y102587677D01*
X376016699Y102661838D01*
X375812614Y102749842D01*
X375618239Y102851631D01*
X375433669Y102967148D01*
X375259002Y103096337D01*
X375094334Y103239139D01*
X374939763Y103395499D01*
X374795385Y103565357D01*
X374752869Y103620539D01*
X374630697Y103796832D01*
X374522604Y103982230D01*
X374428710Y104176248D01*
X374349139Y104378401D01*
X374284014Y104588203D01*
X374233456Y104805167D01*
X374197588Y105028809D01*
X374176533Y105258643D01*
X374170413Y105494182D01*
X374179351Y105734942D01*
X374189248Y105854500D01*
X374220890Y106092359D01*
X374268982Y106326351D01*
X374333439Y106556264D01*
X374414176Y106781885D01*
X374511109Y107003003D01*
X374624153Y107219406D01*
X374753223Y107430883D01*
X374898236Y107637220D01*
X374904243Y107645200D01*
X375064259Y107844326D01*
X375240461Y108039097D01*
X375432904Y108229566D01*
X375641644Y108415788D01*
X375866737Y108597817D01*
X375932266Y108647714D01*
X375987721Y108688570D01*
X376053201Y108735455D01*
X376125112Y108785901D01*
X376199857Y108837442D01*
X376273844Y108887611D01*
X376343477Y108933939D01*
X376405161Y108973961D01*
X376434831Y108992660D01*
X376496696Y109031099D01*
X376422397Y109093666D01*
X376271775Y109229483D01*
X376137568Y109369440D01*
X376019769Y109513549D01*
X375918370Y109661821D01*
X375833364Y109814269D01*
X375764743Y109970903D01*
X375712501Y110131735D01*
X375682124Y110265428D01*
X375672178Y110333358D01*
X375664827Y110412684D01*
X375660264Y110498042D01*
X375658681Y110584065D01*
X375660273Y110665388D01*
X375665166Y110736008D01*
X375691751Y110913903D01*
X375734670Y111090591D01*
X375794019Y111266277D01*
X375869889Y111441167D01*
X375962374Y111615468D01*
X376071567Y111789383D01*
X376197562Y111963119D01*
X376254025Y112034256D01*
X376281942Y112068572D01*
X376307767Y112100321D01*
X376328649Y112125996D01*
X376341736Y112142091D01*
X376341849Y112142229D01*
X376353760Y112159531D01*
X376353698Y112168578D01*
X376350315Y112170589D01*
X376338134Y112174501D01*
X376313344Y112182061D01*
X376279588Y112192167D01*
X376241734Y112203362D01*
X376072740Y112259182D01*
X375918254Y112322957D01*
X375778368Y112394615D01*
X375653170Y112474083D01*
X375542752Y112561285D01*
X375447205Y112656150D01*
X375366618Y112758603D01*
X375301082Y112868570D01*
X375250687Y112985979D01*
X375239871Y113018367D01*
X375218643Y113092465D01*
X375203765Y113161840D01*
X375194414Y113232217D01*
X375189765Y113309319D01*
X375188868Y113372900D01*
X375190957Y113465066D01*
X375197621Y113545550D01*
X375209561Y113619155D01*
X375227479Y113690684D01*
X375241865Y113736000D01*
X375287823Y113845845D01*
X375347689Y113946031D01*
X375421462Y114036559D01*
X375509139Y114117426D01*
X375610720Y114188632D01*
X375726202Y114250175D01*
X375855583Y114302055D01*
X375998863Y114344271D01*
X376156040Y114376821D01*
X376229034Y114388002D01*
X376280684Y114394278D01*
X376339277Y114400084D01*
X376395039Y114404490D01*
X376415300Y114405702D01*
X376458872Y114408133D01*
X376501307Y114410786D01*
X376536640Y114413275D01*
X376552883Y114414613D01*
X376597333Y114418681D01*
X376597333Y114097837D01*
G37*
X376597333Y114097837D02*
X376557117Y114092155D01*
X376454086Y114073236D01*
X376350970Y114046139D01*
X376251863Y114012283D01*
X376160858Y113973085D01*
X376082048Y113929964D01*
X376073758Y113924692D01*
X375991505Y113862677D01*
X375923755Y113792161D01*
X375870008Y113712408D01*
X375829762Y113622685D01*
X375804045Y113529821D01*
X375797771Y113483844D01*
X375794870Y113426893D01*
X375795172Y113364426D01*
X375798508Y113301897D01*
X375804709Y113244765D01*
X375813605Y113198484D01*
X375814430Y113195405D01*
X375848996Y113098282D01*
X375897191Y113008918D01*
X375959295Y112927096D01*
X376035591Y112852601D01*
X376126359Y112785216D01*
X376231879Y112724726D01*
X376352434Y112670912D01*
X376488304Y112623561D01*
X376597333Y112592947D01*
X376711633Y112563693D01*
X376779367Y112634114D01*
X376971562Y112823470D01*
X377177824Y113006964D01*
X377395780Y113182792D01*
X377623056Y113349151D01*
X377857280Y113504237D01*
X378096078Y113646247D01*
X378151589Y113676974D01*
X378284517Y113745418D01*
X378418501Y113806529D01*
X378552125Y113859986D01*
X378683973Y113905465D01*
X378812628Y113942643D01*
X378936674Y113971199D01*
X379054696Y113990809D01*
X379165276Y114001151D01*
X379266998Y114001902D01*
X379358446Y113992740D01*
X379438204Y113973342D01*
X379443937Y113971373D01*
X379510917Y113939725D01*
X379565888Y113896338D01*
X379608597Y113841661D01*
X379638790Y113776141D01*
X379656214Y113700227D01*
X379660616Y113614368D01*
X379659540Y113589543D01*
X379652923Y113521854D01*
X379641049Y113461878D01*
X379622142Y113402936D01*
X379594428Y113338349D01*
X379590743Y113330566D01*
X379535302Y113231898D01*
X379463095Y113133061D01*
X379374285Y113034227D01*
X379269037Y112935569D01*
X379147514Y112837257D01*
X379059065Y112773058D01*
X378865636Y112647730D01*
X378664527Y112536223D01*
X378455293Y112438396D01*
X378237487Y112354109D01*
X378010664Y112283219D01*
X377774379Y112225585D01*
X377528185Y112181067D01*
X377271638Y112149522D01*
X377037621Y112132417D01*
X376864075Y112123535D01*
X376823374Y112083584D01*
X376802279Y112061756D01*
X376773884Y112030818D01*
X376741714Y111994681D01*
X376709294Y111957258D01*
X376705313Y111952582D01*
X376582484Y111797383D01*
X376476496Y111640734D01*
X376387315Y111482570D01*
X376314906Y111322827D01*
X376259234Y111161442D01*
X376243512Y111103833D01*
X376228750Y111044323D01*
X376217316Y110993629D01*
X376208796Y110948039D01*
X376202779Y110903842D01*
X376198851Y110857328D01*
X376196598Y110804784D01*
X376195609Y110742501D01*
X376195461Y110672033D01*
X376195727Y110604838D01*
X376196443Y110551490D01*
X376197817Y110508906D01*
X376200054Y110474000D01*
X376203360Y110443688D01*
X376207942Y110414887D01*
X376214006Y110384512D01*
X376214990Y110379933D01*
X376256234Y110227535D01*
X376312538Y110082221D01*
X376384016Y109943835D01*
X376470782Y109812217D01*
X376572949Y109687210D01*
X376690630Y109568656D01*
X376823939Y109456397D01*
X376937504Y109374015D01*
X376977107Y109347030D01*
X377149170Y109434413D01*
X377404986Y109556395D01*
X377661898Y109662819D01*
X377921541Y109754149D01*
X378185551Y109830852D01*
X378455562Y109893393D01*
X378733210Y109942237D01*
X379020128Y109977849D01*
X379078067Y109983361D01*
X379135241Y109987454D01*
X379203523Y109990576D01*
X379279980Y109992741D01*
X379361676Y109993965D01*
X379445678Y109994260D01*
X379529049Y109993642D01*
X379608857Y109992125D01*
X379682166Y109989723D01*
X379746042Y109986452D01*
X379797550Y109982325D01*
X379819501Y109979702D01*
X379942192Y109958207D01*
X380049452Y109930389D01*
X380141652Y109896012D01*
X380219163Y109854838D01*
X380282356Y109806628D01*
X380331603Y109751145D01*
X380367276Y109688151D01*
X380389744Y109617409D01*
X380390462Y109613982D01*
X380397900Y109537401D01*
X380388689Y109462303D01*
X380363076Y109389021D01*
X380321307Y109317894D01*
X380263629Y109249258D01*
X380190286Y109183449D01*
X380101526Y109120803D01*
X379997595Y109061658D01*
X379979767Y109052638D01*
X379847611Y108994149D01*
X379702366Y108943871D01*
X379543564Y108901684D01*
X379370739Y108867468D01*
X379183422Y108841103D01*
X379132022Y108835492D01*
X378970334Y108821964D01*
X378794929Y108813044D01*
X378608357Y108808644D01*
X378413170Y108808677D01*
X378211920Y108813055D01*
X378007157Y108821691D01*
X377801434Y108834496D01*
X377597302Y108851384D01*
X377397311Y108872266D01*
X377204014Y108897056D01*
X377161960Y108903126D01*
X377078886Y108915374D01*
X376958760Y108836416D01*
X376726907Y108677608D01*
X376506628Y108513717D01*
X376298680Y108345445D01*
X376103820Y108173491D01*
X375922805Y107998557D01*
X375756391Y107821344D01*
X375605335Y107642553D01*
X375470393Y107462885D01*
X375460161Y107448271D01*
X375333307Y107252843D01*
X375223109Y107054750D01*
X375129460Y106853708D01*
X375052250Y106649436D01*
X374991372Y106441650D01*
X374946717Y106230068D01*
X374920778Y106040734D01*
X374915757Y105976768D01*
X374912540Y105902523D01*
X374911096Y105822263D01*
X374911393Y105740249D01*
X374913398Y105660746D01*
X374917080Y105588016D01*
X374922408Y105526322D01*
X374924759Y105507366D01*
X374956315Y105336732D01*
X375002940Y105173437D01*
X375064486Y105017828D01*
X375140806Y104870252D01*
X375231753Y104731055D01*
X375282483Y104664933D01*
X375328355Y104611951D01*
X375383524Y104554288D01*
X375444061Y104495627D01*
X375506036Y104439651D01*
X375565521Y104390045D01*
X375616146Y104352172D01*
X375744003Y104272993D01*
X375885735Y104202803D01*
X376040800Y104141715D01*
X376208654Y104089840D01*
X376388752Y104047291D01*
X376580552Y104014179D01*
X376783510Y103990616D01*
X376997083Y103976713D01*
X377220726Y103972583D01*
X377437079Y103977602D01*
X377510580Y103980932D01*
X377588891Y103984866D01*
X377667375Y103989146D01*
X377741398Y103993510D01*
X377806323Y103997701D01*
X377843290Y104000348D01*
X378052430Y104015847D01*
X378244845Y104029395D01*
X378420627Y104040997D01*
X378579870Y104050658D01*
X378722669Y104058382D01*
X378849118Y104064175D01*
X378959309Y104068041D01*
X379053338Y104069984D01*
X379131298Y104070011D01*
X379183900Y104068578D01*
X379371081Y104054271D01*
X379546143Y104028374D01*
X379709513Y103990668D01*
X379861620Y103940934D01*
X380002890Y103878953D01*
X380133751Y103804507D01*
X380254632Y103717378D01*
X380365959Y103617347D01*
X380468160Y103504195D01*
X380561663Y103377703D01*
X380575158Y103357269D01*
X380671257Y103194471D01*
X380755021Y103020674D01*
X380826086Y102836855D01*
X380884088Y102643991D01*
X380928663Y102443059D01*
X380939754Y102378933D01*
X380950376Y102310703D01*
X380958924Y102249038D01*
X380965607Y102190789D01*
X380970632Y102132810D01*
X380974208Y102071953D01*
X380976541Y102005068D01*
X380977839Y101929010D01*
X380978311Y101840629D01*
X380978308Y101794733D01*
X380977700Y101689006D01*
X380976002Y101596714D01*
X380972950Y101514379D01*
X380968284Y101438524D01*
X380961739Y101365670D01*
X380953055Y101292340D01*
X380941968Y101215056D01*
X380928215Y101130339D01*
X380928144Y101129919D01*
X380885189Y100919748D01*
X380829301Y100719661D01*
X380760616Y100529926D01*
X380679273Y100350808D01*
X380585407Y100182574D01*
X380479155Y100025489D01*
X380360655Y99879820D01*
X380230043Y99745834D01*
X380204811Y99722573D01*
X380043025Y99584767D01*
X379879672Y99463521D01*
X379714014Y99358482D01*
X379545312Y99269298D01*
X379372829Y99195615D01*
X379195826Y99137081D01*
X379013565Y99093343D01*
X378828004Y99064362D01*
X378785608Y99060556D01*
X378731482Y99057427D01*
X378669453Y99055030D01*
X378603345Y99053422D01*
X378536983Y99052660D01*
X378474191Y99052800D01*
X378418795Y99053898D01*
X378374620Y99056012D01*
X378358400Y99057417D01*
X378291401Y99066356D01*
X378217881Y99079127D01*
X378143762Y99094505D01*
X378074964Y99111266D01*
X378019608Y99127460D01*
X377897733Y99173739D01*
X377788658Y99228203D01*
X377692892Y99290387D01*
X377610946Y99359825D01*
X377543328Y99436051D01*
X377490549Y99518601D01*
X377453119Y99607009D01*
X377439431Y99657184D01*
X377431370Y99709861D01*
X377427830Y99771032D01*
X377428611Y99835478D01*
X377433514Y99897982D01*
X377442340Y99953329D01*
X377452105Y99988986D01*
X377488984Y100068304D01*
X377539953Y100140847D01*
X377602967Y100204965D01*
X377675976Y100259010D01*
X377756935Y100301333D01*
X377843795Y100330285D01*
X377886593Y100338887D01*
X377941269Y100344965D01*
X377997991Y100345703D01*
X378059113Y100340754D01*
X378126991Y100329769D01*
X378203978Y100312402D01*
X378292430Y100288303D01*
X378354167Y100269797D01*
X378491630Y100228368D01*
X378615249Y100193191D01*
X378726783Y100163937D01*
X378827991Y100140279D01*
X378920630Y100121886D01*
X379006459Y100108430D01*
X379087236Y100099582D01*
X379164721Y100095013D01*
X379240671Y100094395D01*
X379284980Y100095729D01*
X379424115Y100107938D01*
X379552286Y100132353D01*
X379670815Y100169527D01*
X379781025Y100220012D01*
X379884239Y100284362D01*
X379981779Y100363129D01*
X380026583Y100405832D01*
X380124349Y100515485D01*
X380208055Y100634538D01*
X380277671Y100762911D01*
X380333164Y100900522D01*
X380374506Y101047288D01*
X380401664Y101203129D01*
X380414609Y101367962D01*
X380415800Y101437932D01*
X380411639Y101561811D01*
X380398656Y101674303D01*
X380376101Y101778908D01*
X380343226Y101879123D01*
X380300556Y101975872D01*
X380239006Y102086421D01*
X380170490Y102182288D01*
X380094014Y102264176D01*
X380008589Y102332784D01*
X379913221Y102388815D01*
X379806920Y102432969D01*
X379688694Y102465947D01*
X379579840Y102485470D01*
X379549935Y102489307D01*
X379519556Y102492287D01*
X379486443Y102494460D01*
X379448336Y102495878D01*
X379402974Y102496592D01*
X379348098Y102496653D01*
X379281447Y102496112D01*
X379200760Y102495020D01*
X379175433Y102494625D01*
X379092067Y102493000D01*
X379002585Y102490742D01*
X378911275Y102487993D01*
X378822423Y102484896D01*
X378740318Y102481594D01*
X378669247Y102478230D01*
X378646267Y102476979D01*
X378508751Y102469207D01*
X378386234Y102462432D01*
X378276816Y102456588D01*
X378178595Y102451605D01*
X378089671Y102447418D01*
X378008143Y102443957D01*
X377932111Y102441157D01*
X377859674Y102438948D01*
X377788931Y102437263D01*
X377717982Y102436036D01*
X377644925Y102435197D01*
X377567860Y102434681D01*
X377484887Y102434418D01*
X377448233Y102434367D01*
X377342488Y102434375D01*
X377251430Y102434709D01*
X377172815Y102435509D01*
X377104399Y102436910D01*
X377043937Y102439052D01*
X376989185Y102442071D01*
X376937897Y102446106D01*
X376887830Y102451294D01*
X376836739Y102457773D01*
X376782379Y102465680D01*
X376722505Y102475153D01*
X376686233Y102481110D01*
X376453605Y102527415D01*
X376230394Y102587677D01*
X376016699Y102661838D01*
X375812614Y102749842D01*
X375618239Y102851631D01*
X375433669Y102967148D01*
X375259002Y103096337D01*
X375094334Y103239139D01*
X374939763Y103395499D01*
X374795385Y103565357D01*
X374752869Y103620539D01*
X374630697Y103796832D01*
X374522604Y103982230D01*
X374428710Y104176248D01*
X374349139Y104378401D01*
X374284014Y104588203D01*
X374233456Y104805167D01*
X374197588Y105028809D01*
X374176533Y105258643D01*
X374170413Y105494182D01*
X374179351Y105734942D01*
X374189248Y105854500D01*
X374220890Y106092359D01*
X374268982Y106326351D01*
X374333439Y106556264D01*
X374414176Y106781885D01*
X374511109Y107003003D01*
X374624153Y107219406D01*
X374753223Y107430883D01*
X374898236Y107637220D01*
X374904243Y107645200D01*
X375064259Y107844326D01*
X375240461Y108039097D01*
X375432904Y108229566D01*
X375641644Y108415788D01*
X375866737Y108597817D01*
X375932266Y108647714D01*
X375987721Y108688570D01*
X376053201Y108735455D01*
X376125112Y108785901D01*
X376199857Y108837442D01*
X376273844Y108887611D01*
X376343477Y108933939D01*
X376405161Y108973961D01*
X376434831Y108992660D01*
X376496696Y109031099D01*
X376422397Y109093666D01*
X376271775Y109229483D01*
X376137568Y109369440D01*
X376019769Y109513549D01*
X375918370Y109661821D01*
X375833364Y109814269D01*
X375764743Y109970903D01*
X375712501Y110131735D01*
X375682124Y110265428D01*
X375672178Y110333358D01*
X375664827Y110412684D01*
X375660264Y110498042D01*
X375658681Y110584065D01*
X375660273Y110665388D01*
X375665166Y110736008D01*
X375691751Y110913903D01*
X375734670Y111090591D01*
X375794019Y111266277D01*
X375869889Y111441167D01*
X375962374Y111615468D01*
X376071567Y111789383D01*
X376197562Y111963119D01*
X376254025Y112034256D01*
X376281942Y112068572D01*
X376307767Y112100321D01*
X376328649Y112125996D01*
X376341736Y112142091D01*
X376341849Y112142229D01*
X376353760Y112159531D01*
X376353698Y112168578D01*
X376350315Y112170589D01*
X376338134Y112174501D01*
X376313344Y112182061D01*
X376279588Y112192167D01*
X376241734Y112203362D01*
X376072740Y112259182D01*
X375918254Y112322957D01*
X375778368Y112394615D01*
X375653170Y112474083D01*
X375542752Y112561285D01*
X375447205Y112656150D01*
X375366618Y112758603D01*
X375301082Y112868570D01*
X375250687Y112985979D01*
X375239871Y113018367D01*
X375218643Y113092465D01*
X375203765Y113161840D01*
X375194414Y113232217D01*
X375189765Y113309319D01*
X375188868Y113372900D01*
X375190957Y113465066D01*
X375197621Y113545550D01*
X375209561Y113619155D01*
X375227479Y113690684D01*
X375241865Y113736000D01*
X375287823Y113845845D01*
X375347689Y113946031D01*
X375421462Y114036559D01*
X375509139Y114117426D01*
X375610720Y114188632D01*
X375726202Y114250175D01*
X375855583Y114302055D01*
X375998863Y114344271D01*
X376156040Y114376821D01*
X376229034Y114388002D01*
X376280684Y114394278D01*
X376339277Y114400084D01*
X376395039Y114404490D01*
X376415300Y114405702D01*
X376458872Y114408133D01*
X376501307Y114410786D01*
X376536640Y114413275D01*
X376552883Y114414613D01*
X376597333Y114418681D01*
X376597333Y114097837D01*
D11*
%TO.C,J4*%
X391100000Y130870000D02*
X392430000Y130870000D01*
X391100000Y129540000D02*
X391100000Y130870000D01*
X391100000Y128270000D02*
X393760000Y128270000D01*
X393760000Y128270000D02*
X393760000Y82490000D01*
X391100000Y128270000D02*
X391100000Y82490000D01*
X391100000Y82490000D02*
X393760000Y82490000D01*
%TO.C,J3*%
X350460000Y130870000D02*
X351790000Y130870000D01*
X350460000Y129540000D02*
X350460000Y130870000D01*
X350460000Y128270000D02*
X353120000Y128270000D01*
X353120000Y128270000D02*
X353120000Y82490000D01*
X350460000Y128270000D02*
X350460000Y82490000D01*
X350460000Y82490000D02*
X353120000Y82490000D01*
%TO.C,D1*%
X401590000Y85400000D02*
X404275000Y85400000D01*
X404275000Y85400000D02*
X404275000Y87320000D01*
X404275000Y87320000D02*
X401590000Y87320000D01*
%TO.C,D2*%
X404275000Y84780000D02*
X401590000Y84780000D01*
X404275000Y82860000D02*
X404275000Y84780000D01*
X401590000Y82860000D02*
X404275000Y82860000D01*
%TO.C,R1*%
X407897064Y85625000D02*
X407442936Y85625000D01*
X407897064Y87095000D02*
X407442936Y87095000D01*
%TO.C,R2*%
X407897064Y84555000D02*
X407442936Y84555000D01*
X407897064Y83085000D02*
X407442936Y83085000D01*
%TD*%
M02*
