%TF.GenerationSoftware,KiCad,Pcbnew,5.1.10-88a1d61d58~90~ubuntu20.04.1*%
%TF.CreationDate,2021-09-12T18:51:28+00:00*%
%TF.ProjectId,WifiServoBridge,57696669-5365-4727-966f-427269646765,rev?*%
%TF.SameCoordinates,Original*%
%TF.FileFunction,Paste,Top*%
%TF.FilePolarity,Positive*%
%FSLAX46Y46*%
G04 Gerber Fmt 4.6, Leading zero omitted, Abs format (unit mm)*
G04 Created by KiCad (PCBNEW 5.1.10-88a1d61d58~90~ubuntu20.04.1) date 2021-09-12 18:51:28*
%MOMM*%
%LPD*%
G01*
G04 APERTURE LIST*
G04 APERTURE END LIST*
%TO.C,D1*%
G36*
G01*
X404015000Y86816250D02*
X404015000Y85903750D01*
G75*
G02*
X403771250Y85660000I-243750J0D01*
G01*
X403283750Y85660000D01*
G75*
G02*
X403040000Y85903750I0J243750D01*
G01*
X403040000Y86816250D01*
G75*
G02*
X403283750Y87060000I243750J0D01*
G01*
X403771250Y87060000D01*
G75*
G02*
X404015000Y86816250I0J-243750D01*
G01*
G37*
G36*
G01*
X402140000Y86816250D02*
X402140000Y85903750D01*
G75*
G02*
X401896250Y85660000I-243750J0D01*
G01*
X401408750Y85660000D01*
G75*
G02*
X401165000Y85903750I0J243750D01*
G01*
X401165000Y86816250D01*
G75*
G02*
X401408750Y87060000I243750J0D01*
G01*
X401896250Y87060000D01*
G75*
G02*
X402140000Y86816250I0J-243750D01*
G01*
G37*
%TD*%
%TO.C,D2*%
G36*
G01*
X402140000Y84276250D02*
X402140000Y83363750D01*
G75*
G02*
X401896250Y83120000I-243750J0D01*
G01*
X401408750Y83120000D01*
G75*
G02*
X401165000Y83363750I0J243750D01*
G01*
X401165000Y84276250D01*
G75*
G02*
X401408750Y84520000I243750J0D01*
G01*
X401896250Y84520000D01*
G75*
G02*
X402140000Y84276250I0J-243750D01*
G01*
G37*
G36*
G01*
X404015000Y84276250D02*
X404015000Y83363750D01*
G75*
G02*
X403771250Y83120000I-243750J0D01*
G01*
X403283750Y83120000D01*
G75*
G02*
X403040000Y83363750I0J243750D01*
G01*
X403040000Y84276250D01*
G75*
G02*
X403283750Y84520000I243750J0D01*
G01*
X403771250Y84520000D01*
G75*
G02*
X404015000Y84276250I0J-243750D01*
G01*
G37*
%TD*%
%TO.C,R1*%
G36*
G01*
X409095000Y86810002D02*
X409095000Y85909998D01*
G75*
G02*
X408845002Y85660000I-249998J0D01*
G01*
X408319998Y85660000D01*
G75*
G02*
X408070000Y85909998I0J249998D01*
G01*
X408070000Y86810002D01*
G75*
G02*
X408319998Y87060000I249998J0D01*
G01*
X408845002Y87060000D01*
G75*
G02*
X409095000Y86810002I0J-249998D01*
G01*
G37*
G36*
G01*
X407270000Y86810002D02*
X407270000Y85909998D01*
G75*
G02*
X407020002Y85660000I-249998J0D01*
G01*
X406494998Y85660000D01*
G75*
G02*
X406245000Y85909998I0J249998D01*
G01*
X406245000Y86810002D01*
G75*
G02*
X406494998Y87060000I249998J0D01*
G01*
X407020002Y87060000D01*
G75*
G02*
X407270000Y86810002I0J-249998D01*
G01*
G37*
%TD*%
%TO.C,R2*%
G36*
G01*
X407270000Y84270002D02*
X407270000Y83369998D01*
G75*
G02*
X407020002Y83120000I-249998J0D01*
G01*
X406494998Y83120000D01*
G75*
G02*
X406245000Y83369998I0J249998D01*
G01*
X406245000Y84270002D01*
G75*
G02*
X406494998Y84520000I249998J0D01*
G01*
X407020002Y84520000D01*
G75*
G02*
X407270000Y84270002I0J-249998D01*
G01*
G37*
G36*
G01*
X409095000Y84270002D02*
X409095000Y83369998D01*
G75*
G02*
X408845002Y83120000I-249998J0D01*
G01*
X408319998Y83120000D01*
G75*
G02*
X408070000Y83369998I0J249998D01*
G01*
X408070000Y84270002D01*
G75*
G02*
X408319998Y84520000I249998J0D01*
G01*
X408845002Y84520000D01*
G75*
G02*
X409095000Y84270002I0J-249998D01*
G01*
G37*
%TD*%
M02*
